<svg width="60" height="60" viewBox="0 0 60 60" fill="none" xmlns="http://www.w3.org/2000/svg">
<path d="M51.6007 39.4295C52.9783 37.8573 53.7415 35.8404 53.75 33.75C53.75 31.4294 52.8281 29.2038 51.1872 27.5628C49.5462 25.9219 47.3206 25 45 25C42.6794 25 40.4538 25.9219 38.8128 27.5628C37.1719 29.2038 36.25 31.4294 36.25 33.75C36.2585 35.8404 37.0217 37.8573 38.3994 39.4295C36.5993 40.5455 35.1132 42.1015 34.081 43.9509C33.0489 45.8003 32.5048 47.8821 32.5 50C32.5 50.6631 32.7634 51.2989 33.2322 51.7678C33.7011 52.2366 34.337 52.5 35 52.5C35.663 52.5 36.2989 52.2366 36.7678 51.7678C37.2366 51.2989 37.5 50.6631 37.5 50C37.5 48.0109 38.2902 46.1032 39.6967 44.6967C41.1032 43.2902 43.0109 42.5 45 42.5C46.9891 42.5 48.8968 43.2902 50.3033 44.6967C51.7098 46.1032 52.5 48.0109 52.5 50C52.5 50.6631 52.7634 51.2989 53.2322 51.7678C53.7011 52.2366 54.337 52.5 55 52.5C55.663 52.5 56.2989 52.2366 56.7678 51.7678C57.2366 51.2989 57.5 50.6631 57.5 50C57.4952 47.8821 56.9511 45.8003 55.919 43.9509C54.8868 42.1015 53.4007 40.5455 51.6007 39.4295V39.4295ZM45 37.5C44.2583 37.5 43.5333 37.2801 42.9166 36.868C42.2999 36.456 41.8193 35.8703 41.5355 35.1851C41.2516 34.4999 41.1774 33.7459 41.3221 33.0184C41.4667 32.291 41.8239 31.6228 42.3484 31.0984C42.8728 30.5739 43.541 30.2168 44.2684 30.0721C44.9958 29.9274 45.7498 30.0016 46.4351 30.2855C47.1203 30.5693 47.706 31.0499 48.118 31.6666C48.5301 32.2833 48.75 33.0083 48.75 33.75C48.7489 34.7442 48.3535 35.6974 47.6505 36.4005C46.9474 37.1035 45.9942 37.4989 45 37.5V37.5ZM16.9832 19.2684L21.9825 24.2675C22.4527 24.7293 23.0863 24.9867 23.7453 24.9837C24.4043 24.9807 25.0355 24.7176 25.5016 24.2516C25.9676 23.7856 26.2307 23.1544 26.2337 22.4953C26.2367 21.8363 25.9793 21.2027 25.5175 20.7325L24.7851 20H35.2149L34.4824 20.7325C34.2478 20.9641 34.0614 21.2398 33.9339 21.5437C33.8063 21.8476 33.7401 22.1737 33.7391 22.5033C33.7381 22.8329 33.8022 23.1595 33.9279 23.4642C34.0535 23.7689 34.2382 24.0457 34.4713 24.2787C34.7043 24.5118 34.9812 24.6965 35.2859 24.8221C35.5906 24.9477 35.9171 25.0119 36.2467 25.0109C36.5763 25.0098 36.9024 24.9436 37.2063 24.816C37.5102 24.6885 37.7859 24.502 38.0175 24.2675L43.0167 19.2683C43.4838 18.7983 43.7459 18.1626 43.7459 17.4999C43.7459 16.8373 43.4838 16.2016 43.0167 15.7316L38.0175 10.7325C37.5473 10.2707 36.9137 10.0133 36.2547 10.0163C35.5957 10.0193 34.9645 10.2824 34.4984 10.7485C34.0324 11.2145 33.7693 11.8457 33.7663 12.5047C33.7633 13.1637 34.0207 13.7973 34.4825 14.2675L35.215 15H24.7851L25.5176 14.2675C25.9816 13.7977 26.2408 13.1635 26.2387 12.5032C26.2366 11.843 25.9734 11.2104 25.5065 10.7435C25.0396 10.2767 24.407 10.0135 23.7468 10.0114C23.0865 10.0094 22.4523 10.2686 21.9825 10.7325L16.9832 15.7317C16.5161 16.2017 16.254 16.8374 16.254 17.5C16.254 18.1626 16.5161 18.7983 16.9832 19.2684V19.2684ZM21.6007 39.4295C22.9783 37.8573 23.7415 35.8404 23.75 33.75C23.75 31.4294 22.8281 29.2038 21.1872 27.5628C19.5462 25.9219 17.3206 25 15 25C12.6794 25 10.4538 25.9219 8.81282 27.5628C7.17187 29.2038 6.25 31.4294 6.25 33.75C6.25846 35.8404 7.02175 37.8573 8.39935 39.4295C6.59932 40.5455 5.11318 42.1015 4.08105 43.9509C3.04892 45.8003 2.5048 47.8821 2.5 50C2.5 50.6631 2.76339 51.2989 3.23223 51.7678C3.70107 52.2366 4.33696 52.5 5 52.5C5.66304 52.5 6.29893 52.2366 6.76777 51.7678C7.23661 51.2989 7.5 50.6631 7.5 50C7.5 48.0109 8.29018 46.1032 9.6967 44.6967C11.1032 43.2902 13.0109 42.5 15 42.5C16.9891 42.5 18.8968 43.2902 20.3033 44.6967C21.7098 46.1032 22.5 48.0109 22.5 50C22.5 50.6631 22.7634 51.2989 23.2322 51.7678C23.7011 52.2366 24.337 52.5 25 52.5C25.663 52.5 26.2989 52.2366 26.7678 51.7678C27.2366 51.2989 27.5 50.6631 27.5 50C27.4952 47.8821 26.9511 45.8003 25.919 43.9509C24.8868 42.1015 23.4007 40.5455 21.6006 39.4295H21.6007ZM15 37.5C14.2583 37.5 13.5333 37.2801 12.9166 36.868C12.2999 36.456 11.8193 35.8703 11.5355 35.1851C11.2516 34.4999 11.1774 33.7459 11.3221 33.0184C11.4667 32.291 11.8239 31.6228 12.3483 31.0984C12.8728 30.5739 13.541 30.2168 14.2684 30.0721C14.9958 29.9274 15.7498 30.0016 16.4351 30.2855C17.1203 30.5693 17.706 31.0499 18.118 31.6666C18.5301 32.2833 18.75 33.0083 18.75 33.75C18.7489 34.7442 18.3535 35.6974 17.6505 36.4005C16.9474 37.1035 15.9942 37.4989 15 37.5V37.5Z" fill="#D74848"/>
</svg>
