<svg width="60" height="60" viewBox="0 0 60 60" fill="none" xmlns="http://www.w3.org/2000/svg">
<path d="M30 27.5C29.5056 27.5 29.0222 27.6466 28.6111 27.9213C28.2 28.196 27.8795 28.5865 27.6903 29.0433C27.5011 29.5001 27.4516 30.0028 27.5481 30.4877C27.6445 30.9727 27.8826 31.4181 28.2323 31.7678C28.5819 32.1174 29.0273 32.3555 29.5123 32.452C29.9972 32.5484 30.4999 32.4989 30.9567 32.3097C31.4135 32.1205 31.804 31.8 32.0787 31.3889C32.3534 30.9778 32.5 30.4945 32.5 30C32.5 29.337 32.2366 28.7011 31.7678 28.2322C31.2989 27.7634 30.6631 27.5 30 27.5ZM49.05 30L49.325 29.65C52.7 25 53.5 20.725 51.65 17.5C49.8 14.275 45.65 12.85 40 13.425H39.55C37.275 8.25 33.9 5 30 5C26.1 5 22.725 8.25 20.475 13.5L20 13.425C14.35 12.85 10.2 14.275 8.35002 17.5C6.50002 20.725 7.30002 25 10.675 29.65L10.95 30L10.675 30.35C7.30002 35 6.50002 39.275 8.35002 42.5C10 45.25 13.175 46.7 17.5 46.7C18.275 46.7 19.075 46.7 20 46.575H20.45C22.725 51.75 26.1 55 30 55C33.9 55 37.275 51.75 39.525 46.5H39.975C40.825 46.5 41.625 46.625 42.475 46.625C46.9 46.625 50.15 45.175 51.725 42.425C53.575 39.2 52.775 34.925 49.4 30.275L49.05 30ZM12.675 20C13.3 18.9 15.175 18.3 17.675 18.3H18.9C18.5083 19.8379 18.216 21.3995 18.025 22.975C16.7514 23.9384 15.5406 24.9822 14.4 26.1C12.5 23.6 11.95 21.25 12.675 20ZM12.675 40C11.95 38.75 12.675 36.4 14.35 33.825C15.4906 34.9428 16.7014 35.9866 17.975 36.95C18.166 38.5337 18.4583 40.1036 18.85 41.65C15.75 41.85 13.4 41.25 12.675 40ZM30 10C31.4 10 33.075 11.65 34.5 14.575C32.9727 15.0183 31.4705 15.5441 30 16.15C28.5296 15.5441 27.0274 15.0183 25.5 14.575C26.925 11.65 28.6 10 30 10ZM30 50C28.6 50 26.925 48.35 25.5 45.425C27.0274 44.9817 28.5296 44.4559 30 43.85C31.4705 44.4559 32.9727 44.9817 34.5 45.425C33.075 48.35 31.4 50 30 50ZM37.325 34.225C36.175 35.025 35 35.775 33.75 36.5C32.5 37.225 31.25 37.875 30 38.45C28.75 37.8667 27.5 37.2167 26.25 36.5C25 35.775 23.75 35.025 22.675 34.225C22.5 32.875 22.5 31.475 22.5 30C22.5 28.525 22.5 27.125 22.675 25.775C23.825 24.975 25 24.225 26.25 23.5C27.5 22.775 28.75 22.125 30 21.55C31.25 22.1333 32.5 22.7833 33.75 23.5C35 24.225 36.25 24.975 37.325 25.775C37.325 27.125 37.5 28.525 37.5 30C37.5 31.475 37.5 32.875 37.325 34.225V34.225ZM47.325 40C46.6 41.25 44.25 41.875 41.15 41.65C41.5418 40.1036 41.834 38.5337 42.025 36.95C43.2987 35.9866 44.5095 34.9428 45.65 33.825C47.5 36.4 48.05 38.75 47.325 40ZM45.65 26.175C44.5095 25.0572 43.2987 24.0134 42.025 23.05C41.8341 21.4745 41.5418 19.9129 41.15 18.375H42.375C44.875 18.375 46.7 18.975 47.375 20.075C48.05 21.175 47.5 23.6 45.65 26.175V26.175Z" fill="#D74848"/>
</svg>
