<svg width="60" height="60" viewBox="0 0 60 60" fill="none" xmlns="http://www.w3.org/2000/svg">
<path d="M49.725 23.875C49.5173 23.4627 49.1994 23.116 48.8067 22.8733C48.414 22.6306 47.9617 22.5014 47.5 22.5H35V7.49999C35.0269 6.95169 34.8725 6.40981 34.5607 5.95799C34.2489 5.50616 33.7971 5.1695 33.275 4.99999C32.7731 4.83484 32.2317 4.83299 31.7287 4.99468C31.2256 5.15638 30.7867 5.47331 30.475 5.89999L10.475 33.4C10.2244 33.7622 10.074 34.1841 10.0388 34.6231C10.0037 35.0621 10.0852 35.5026 10.275 35.9C10.4498 36.3544 10.7535 36.7478 11.1487 37.032C11.544 37.3163 12.0136 37.4789 12.5 37.5H25V52.5C25.0004 53.0272 25.1674 53.5408 25.4773 53.9673C25.7871 54.3939 26.2238 54.7116 26.725 54.875C26.9762 54.9528 27.2371 54.9949 27.5 55C27.8945 55.001 28.2836 54.9087 28.6355 54.7305C28.9875 54.5524 29.2923 54.2935 29.525 53.975L49.525 26.475C49.7944 26.102 49.9556 25.6619 49.9909 25.2031C50.0262 24.7444 49.9342 24.2848 49.725 23.875V23.875ZM30 44.8V35C30 34.3369 29.7366 33.7011 29.2678 33.2322C28.7989 32.7634 28.1631 32.5 27.5 32.5H17.5L30 15.2V25C30 25.663 30.2634 26.2989 30.7323 26.7678C31.2011 27.2366 31.837 27.5 32.5 27.5H42.5L30 44.8Z" fill="#D74848"/>
</svg>
