<svg width="60" height="60" viewBox="0 0 60 60" fill="none" xmlns="http://www.w3.org/2000/svg">
<path d="M55 27.5C55.007 25.7379 54.5482 24.0053 53.6702 22.4775C52.7921 20.9497 51.526 19.6811 50 18.8C50.0376 18.3675 50.0376 17.9325 50 17.5C50 15.5109 49.2098 13.6032 47.8033 12.1967C46.3967 10.7902 44.4891 10 42.5 10H42.05C41.6336 8.8458 40.9405 7.81135 40.0313 6.98738C39.1221 6.16342 38.0247 5.5751 36.8352 5.27403C35.6457 4.97295 34.4005 4.96831 33.2088 5.26052C32.0171 5.55272 30.9153 6.13285 30 6.95001C29.0847 6.13285 27.9828 5.55272 26.7911 5.26052C25.5994 4.96831 24.3542 4.97295 23.1648 5.27403C21.9753 5.5751 20.8778 6.16342 19.9686 6.98738C19.0594 7.81135 18.3663 8.8458 17.95 10H17.5C15.5108 10 13.6032 10.7902 12.1967 12.1967C10.7901 13.6032 9.99996 15.5109 9.99996 17.5C9.96233 17.9325 9.96233 18.3675 9.99996 18.8C8.58111 19.602 7.37979 20.7386 6.50056 22.1109C5.62134 23.4833 5.09086 25.0497 4.9553 26.6739C4.81975 28.298 5.08323 29.9307 5.72281 31.4298C6.36239 32.9289 7.35868 34.2489 8.62496 35.275C7.80564 36.8032 7.39775 38.5181 7.44132 40.2515C7.4849 41.9849 7.97844 43.6772 8.87352 45.1623C9.76859 46.6473 11.0344 47.8741 12.5468 48.7223C14.0591 49.5704 15.766 50.0107 17.5 50H17.95C18.3663 51.1542 19.0594 52.1887 19.9686 53.0126C20.8778 53.8366 21.9753 54.4249 23.1648 54.726C24.3542 55.0271 25.5994 55.0317 26.7911 54.7395C27.9828 54.4473 29.0847 53.8672 30 53.05C30.9153 53.8672 32.0171 54.4473 33.2088 54.7395C34.4005 55.0317 35.6457 55.0271 36.8352 54.726C38.0247 54.4249 39.1221 53.8366 40.0313 53.0126C40.9405 52.1887 41.6336 51.1542 42.05 50H42.5C44.2233 49.9891 45.9145 49.5331 47.4097 48.676C48.9048 47.819 50.1531 46.5902 51.0335 45.1086C51.9139 43.6271 52.3964 41.9432 52.4343 40.2203C52.4723 38.4973 52.0643 36.7938 51.25 35.275C52.416 34.3414 53.3582 33.1584 54.0071 31.813C54.656 30.4675 54.9953 28.9938 55 27.5ZM27.5 21.375C26.9555 21.0636 26.387 20.7961 25.8 20.575C25.1701 20.3628 24.4817 20.4096 23.8863 20.705C23.2908 21.0003 22.8371 21.5201 22.625 22.15C22.4128 22.7799 22.4595 23.4683 22.7549 24.0637C23.0503 24.6591 23.5701 25.1128 24.2 25.325C25.1623 25.6729 25.9947 26.3077 26.5849 27.1438C27.175 27.9798 27.4944 28.9767 27.5 30V33.875C26.9555 33.5636 26.387 33.2961 25.8 33.075C25.1701 32.8628 24.4817 32.9096 23.8863 33.205C23.2908 33.5003 22.8371 34.0201 22.625 34.65C22.4128 35.2799 22.4595 35.9683 22.7549 36.5637C23.0503 37.1591 23.5701 37.6128 24.2 37.825C25.1623 38.1729 25.9947 38.8077 26.5849 39.6438C27.175 40.4798 27.4944 41.4767 27.5 42.5V47.5C27.5 48.1631 27.2366 48.7989 26.7677 49.2678C26.2989 49.7366 25.663 50 25 50C24.5163 49.9969 24.0439 49.8535 23.6401 49.5872C23.2363 49.321 22.9184 48.9433 22.725 48.5C23.1442 48.254 23.5452 47.9783 23.925 47.675C24.1778 47.4649 24.3867 47.2071 24.5398 46.9162C24.693 46.6253 24.7873 46.3072 24.8175 45.9798C24.8477 45.6525 24.8131 45.3224 24.7157 45.0085C24.6183 44.6945 24.4601 44.4028 24.25 44.15C24.0398 43.8972 23.782 43.6883 23.4911 43.5351C23.2003 43.382 22.8821 43.2876 22.5548 43.2575C22.2274 43.2273 21.8974 43.2619 21.5834 43.3593C21.2695 43.4566 20.9778 43.6149 20.725 43.825C19.8223 44.585 18.6799 45.0012 17.5 45C16.1739 45 14.9021 44.4732 13.9644 43.5355C13.0267 42.5979 12.5 41.3261 12.5 40C12.5119 39.059 12.7892 38.1405 13.3 37.35C13.861 37.4506 14.43 37.5008 15 37.5C15.663 37.5 16.2989 37.2366 16.7677 36.7678C17.2366 36.2989 17.5 35.6631 17.5 35C17.5 34.337 17.2366 33.7011 16.7677 33.2322C16.2989 32.7634 15.663 32.5 15 32.5C14.4094 32.5034 13.8238 32.3931 13.275 32.175C12.3758 31.8507 11.5885 31.2755 11.0062 30.5175C10.4239 29.7595 10.0711 28.8505 9.98953 27.8982C9.90798 26.9458 10.1011 25.9901 10.546 25.1441C10.991 24.2982 11.669 23.5975 12.5 23.125C12.8552 23.4519 13.2402 23.7448 13.65 24C14.2268 24.3315 14.9117 24.4203 15.554 24.2469C16.1963 24.0734 16.7434 23.6519 17.075 23.075C17.4065 22.4982 17.4953 21.8133 17.3218 21.1709C17.1483 20.5286 16.7268 19.9815 16.15 19.65C15.798 19.4559 15.5045 19.171 15.3 18.825C15.0688 18.4236 14.9643 17.9618 15 17.5C15 16.837 15.2634 16.2011 15.7322 15.7322C16.201 15.2634 16.8369 15 17.5 15C17.6741 14.9757 17.8508 14.9757 18.025 15C18.1573 15.4017 18.316 15.7942 18.5 16.175C18.6633 16.4615 18.8817 16.7128 19.1425 16.9145C19.4034 17.1162 19.7016 17.2643 20.02 17.3503C20.3383 17.4363 20.6705 17.4584 20.9975 17.4155C21.3244 17.3725 21.6396 17.2653 21.925 17.1C22.4792 16.7665 22.8827 16.2312 23.0505 15.6065C23.2183 14.9818 23.1375 14.3164 22.825 13.75C22.6152 13.3665 22.5035 12.9371 22.5 12.5C22.5 11.837 22.7634 11.2011 23.2322 10.7322C23.701 10.2634 24.3369 10 25 10C25.663 10 26.2989 10.2634 26.7677 10.7322C27.2366 11.2011 27.5 11.837 27.5 12.5V21.375ZM46.725 32.175C46.1762 32.3931 45.5905 32.5034 45 32.5C44.3369 32.5 43.701 32.7634 43.2322 33.2322C42.7634 33.7011 42.5 34.337 42.5 35C42.5 35.6631 42.7634 36.2989 43.2322 36.7678C43.701 37.2366 44.3369 37.5 45 37.5C45.57 37.5008 46.1389 37.4506 46.7 37.35C47.2107 38.1405 47.488 39.059 47.5 40C47.5 41.3261 46.9732 42.5979 46.0355 43.5355C45.0978 44.4732 43.826 45 42.5 45C41.32 45.0012 40.1776 44.585 39.275 43.825C38.7644 43.4007 38.1062 43.1965 37.4452 43.2575C36.7841 43.3184 36.1743 43.6395 35.75 44.15C35.3256 44.6606 35.1215 45.3188 35.1824 45.9798C35.2434 46.6409 35.5644 47.2507 36.075 47.675C36.4547 47.9783 36.8558 48.254 37.275 48.5C37.0815 48.9433 36.7636 49.321 36.3598 49.5872C35.956 49.8535 35.4836 49.9969 35 50C34.3369 50 33.701 49.7366 33.2322 49.2678C32.7634 48.7989 32.5 48.1631 32.5 47.5V42.5C32.5055 41.4767 32.8249 40.4798 33.415 39.6438C34.0052 38.8077 34.8376 38.1729 35.8 37.825C36.4299 37.6128 36.9497 37.1591 37.245 36.5637C37.5404 35.9683 37.5871 35.2799 37.375 34.65C37.1628 34.0201 36.7091 33.5003 36.1137 33.205C35.5182 32.9096 34.8299 32.8628 34.2 33.075C33.6129 33.2961 33.0445 33.5636 32.5 33.875V30C32.5055 28.9767 32.8249 27.9798 33.415 27.1438C34.0052 26.3077 34.8376 25.6729 35.8 25.325C36.4299 25.1128 36.9497 24.6591 37.245 24.0637C37.5404 23.4683 37.5871 22.7799 37.375 22.15C37.1628 21.5201 36.7091 21.0003 36.1137 20.705C35.5182 20.4096 34.8299 20.3628 34.2 20.575C33.6129 20.7961 33.0445 21.0636 32.5 21.375V12.5C32.5 11.837 32.7634 11.2011 33.2322 10.7322C33.701 10.2634 34.3369 10 35 10C35.663 10 36.2989 10.2634 36.7677 10.7322C37.2366 11.2011 37.5 11.837 37.5 12.5C37.4964 12.9371 37.3847 13.3665 37.175 13.75C37.0086 14.0339 36.9 14.3477 36.8552 14.6737C36.8104 14.9996 36.8304 15.3312 36.914 15.6493C36.9976 15.9675 37.1432 16.2661 37.3424 16.5279C37.5416 16.7897 37.7906 17.0096 38.075 17.175C38.3603 17.3403 38.6755 17.4475 39.0025 17.4905C39.3294 17.5334 39.6616 17.5113 39.98 17.4253C40.2983 17.3393 40.5965 17.1912 40.8574 16.9895C41.1183 16.7878 41.3366 16.5365 41.5 16.25C41.6871 15.8449 41.8458 15.4272 41.975 15C42.1491 14.9757 42.3258 14.9757 42.5 15C43.163 15 43.7989 15.2634 44.2677 15.7322C44.7366 16.2011 45 16.837 45 17.5C44.9961 17.9901 44.8483 18.4682 44.575 18.875C44.3705 19.1994 44.0865 19.4662 43.75 19.65C43.1731 19.9815 42.7516 20.5286 42.5781 21.1709C42.4046 21.8133 42.4934 22.4982 42.825 23.075C43.1565 23.6519 43.7036 24.0734 44.3459 24.2469C44.9882 24.4203 45.6731 24.3315 46.25 24C46.6988 23.7573 47.1182 23.4637 47.5 23.125C48.3337 23.5891 49.0173 24.2821 49.4699 25.1221C49.9225 25.9621 50.1253 26.9141 50.0543 27.8657C49.9833 28.8173 49.6416 29.7287 49.0693 30.4922C48.4971 31.2558 47.7183 31.8397 46.825 32.175H46.725Z" fill="#D74848"/>
</svg>
