<svg width="60" height="60" viewBox="0 0 60 60" fill="none" xmlns="http://www.w3.org/2000/svg">
<path d="M35 20H37.5C38.163 20 38.7989 19.7366 39.2678 19.2678C39.7366 18.7989 40 18.163 40 17.5C40 16.837 39.7366 16.2011 39.2678 15.7322C38.7989 15.2634 38.163 15 37.5 15H35C34.337 15 33.7011 15.2634 33.2322 15.7322C32.7634 16.2011 32.5 16.837 32.5 17.5C32.5 18.163 32.7634 18.7989 33.2322 19.2678C33.7011 19.7366 34.337 20 35 20V20ZM35 30H37.5C38.163 30 38.7989 29.7366 39.2678 29.2678C39.7366 28.7989 40 28.163 40 27.5C40 26.837 39.7366 26.2011 39.2678 25.7322C38.7989 25.2634 38.163 25 37.5 25H35C34.337 25 33.7011 25.2634 33.2322 25.7322C32.7634 26.2011 32.5 26.837 32.5 27.5C32.5 28.163 32.7634 28.7989 33.2322 29.2678C33.7011 29.7366 34.337 30 35 30V30ZM22.5 20H25C25.663 20 26.2989 19.7366 26.7678 19.2678C27.2366 18.7989 27.5 18.163 27.5 17.5C27.5 16.837 27.2366 16.2011 26.7678 15.7322C26.2989 15.2634 25.663 15 25 15H22.5C21.837 15 21.2011 15.2634 20.7322 15.7322C20.2634 16.2011 20 16.837 20 17.5C20 18.163 20.2634 18.7989 20.7322 19.2678C21.2011 19.7366 21.837 20 22.5 20V20ZM22.5 30H25C25.663 30 26.2989 29.7366 26.7678 29.2678C27.2366 28.7989 27.5 28.163 27.5 27.5C27.5 26.837 27.2366 26.2011 26.7678 25.7322C26.2989 25.2634 25.663 25 25 25H22.5C21.837 25 21.2011 25.2634 20.7322 25.7322C20.2634 26.2011 20 26.837 20 27.5C20 28.163 20.2634 28.7989 20.7322 29.2678C21.2011 29.7366 21.837 30 22.5 30V30ZM52.5 50H50V7.5C50 6.83696 49.7366 6.20107 49.2678 5.73223C48.7989 5.26339 48.163 5 47.5 5H12.5C11.837 5 11.2011 5.26339 10.7322 5.73223C10.2634 6.20107 10 6.83696 10 7.5V50H7.5C6.83696 50 6.20107 50.2634 5.73223 50.7322C5.26339 51.2011 5 51.837 5 52.5C5 53.163 5.26339 53.7989 5.73223 54.2678C6.20107 54.7366 6.83696 55 7.5 55H52.5C53.163 55 53.7989 54.7366 54.2678 54.2678C54.7366 53.7989 55 53.163 55 52.5C55 51.837 54.7366 51.2011 54.2678 50.7322C53.7989 50.2634 53.163 50 52.5 50ZM32.5 50H27.5V40H32.5V50ZM45 50H37.5V37.5C37.5 36.837 37.2366 36.2011 36.7678 35.7322C36.2989 35.2634 35.663 35 35 35H25C24.337 35 23.7011 35.2634 23.2322 35.7322C22.7634 36.2011 22.5 36.837 22.5 37.5V50H15V10H45V50Z" fill="#D74848"/>
</svg>
