<svg width="60" height="60" viewBox="0 0 60 60" fill="none" xmlns="http://www.w3.org/2000/svg">
<path d="M56.25 36.25C56.25 34.9239 55.7233 33.6522 54.7856 32.7145C53.8479 31.7768 52.5761 31.25 51.25 31.25H36.25C34.924 31.25 33.6522 31.7768 32.7145 32.7145C31.7768 33.6522 31.25 34.9239 31.25 36.25H23.75V28.75H29.575C31.7475 28.7536 33.8505 27.9841 35.5075 26.5792C37.1646 25.1742 38.2677 23.2255 38.6195 21.0817C38.9713 18.9379 38.5488 16.7388 37.4277 14.8779C36.3065 13.0171 34.5598 11.6159 32.5 10.925C31.3568 8.54112 29.4872 6.58108 27.1599 5.32665C24.8326 4.07223 22.1675 3.58801 19.5477 3.94362C16.9279 4.29922 14.4883 5.47633 12.5796 7.30574C10.6709 9.13515 9.39142 11.5226 8.92505 14.125C7.23201 14.6815 5.79245 15.8226 4.8643 17.344C3.93615 18.8654 3.58008 20.6675 3.85988 22.4276C4.13968 24.1876 5.03707 25.7905 6.39125 26.949C7.74543 28.1076 9.46791 28.746 11.25 28.75H18.75V48.75C18.75 49.4131 19.0134 50.049 19.4823 50.5178C19.9511 50.9866 20.587 51.25 21.25 51.25H31.25C31.25 52.5761 31.7768 53.8479 32.7145 54.7856C33.6522 55.7232 34.924 56.25 36.25 56.25H51.25C52.5761 56.25 53.8479 55.7232 54.7856 54.7856C55.7233 53.8479 56.25 52.5761 56.25 51.25V46.25C56.2409 45.3696 55.9994 44.5072 55.55 43.75C55.9994 42.9929 56.2409 42.1305 56.25 41.25V36.25ZM11.25 23.75C10.587 23.75 9.95112 23.4866 9.48228 23.0178C9.01344 22.5489 8.75005 21.9131 8.75005 21.25C8.75005 20.587 9.01344 19.9511 9.48228 19.4823C9.95112 19.0134 10.587 18.75 11.25 18.75C11.9131 18.75 12.549 18.4866 13.0178 18.0178C13.4867 17.5489 13.75 16.9131 13.75 16.25C13.7299 14.4659 14.3464 12.7331 15.4889 11.3626C16.6314 9.99218 18.2251 9.07395 19.9837 8.77281C21.7424 8.47168 23.5507 8.80737 25.0841 9.7196C26.6175 10.6318 27.7755 12.0608 28.35 13.75C28.4967 14.175 28.7552 14.5525 29.0984 14.8429C29.4416 15.1332 29.8567 15.3257 30.3 15.4C31.282 15.5626 32.1722 16.0747 32.8062 16.842C33.4403 17.6093 33.7755 18.58 33.75 19.575C33.75 20.6823 33.3102 21.7442 32.5272 22.5272C31.7443 23.3102 30.6823 23.75 29.575 23.75H11.25ZM31.25 46.25H23.75V41.25H31.25C31.2592 42.1305 31.5007 42.9929 31.95 43.75C31.5007 44.5072 31.2592 45.3696 31.25 46.25V46.25ZM36.25 51.25V46.25H51.25V51.25H36.25ZM36.25 41.25V36.25H51.25V41.25H36.25Z" fill="#D74848"/>
</svg>
