<svg width="47" height="47" viewBox="0 0 47 47" fill="none" xmlns="http://www.w3.org/2000/svg">
<path d="M42.9267 12.9642C42.728 12.4856 42.3477 12.1054 41.8692 11.9067C41.6338 11.8063 41.3809 11.7531 41.125 11.75H31.3334C30.814 11.75 30.3159 11.9563 29.9486 12.3236C29.5813 12.6908 29.375 13.189 29.375 13.7083C29.375 14.2277 29.5813 14.7258 29.9486 15.0931C30.3159 15.4603 30.814 15.6667 31.3334 15.6667H36.4054L25.4584 26.6137L19.0154 20.1512C18.8334 19.9677 18.6168 19.822 18.3782 19.7226C18.1395 19.6232 17.8835 19.572 17.625 19.572C17.3665 19.572 17.1105 19.6232 16.8719 19.7226C16.6333 19.822 16.4167 19.9677 16.2346 20.1512L4.48461 31.9013C4.30105 32.0833 4.15537 32.2999 4.05594 32.5385C3.95652 32.7772 3.90533 33.0331 3.90533 33.2917C3.90533 33.5502 3.95652 33.8062 4.05594 34.0448C4.15537 34.2834 4.30105 34.5 4.48461 34.6821C4.66666 34.8656 4.88325 35.0113 5.12189 35.1107C5.36053 35.2102 5.6165 35.2614 5.87502 35.2614C6.13355 35.2614 6.38951 35.2102 6.62815 35.1107C6.86679 35.0113 7.08339 34.8656 7.26544 34.6821L17.625 24.3029L24.0679 30.7654C24.25 30.949 24.4666 31.0947 24.7052 31.1941C24.9439 31.2935 25.1998 31.3447 25.4584 31.3447C25.7169 31.3447 25.9728 31.2935 26.2115 31.1941C26.4501 31.0947 26.6667 30.949 26.8488 30.7654L39.1667 18.4279V23.5C39.1667 24.0194 39.373 24.5175 39.7403 24.8847C40.1075 25.252 40.6056 25.4583 41.125 25.4583C41.6444 25.4583 42.1425 25.252 42.5098 24.8847C42.877 24.5175 43.0834 24.0194 43.0834 23.5V13.7083C43.0803 13.4524 43.027 13.1996 42.9267 12.9642V12.9642Z" fill="#D74848"/>
</svg>
