<svg width="48" height="47" viewBox="0 0 48 47" fill="none" xmlns="http://www.w3.org/2000/svg">
<path d="M14.84 30.4325C14.4675 30.7994 14.2584 31.2958 14.2584 31.8131C14.2584 32.3305 14.4675 32.8268 14.84 33.1938C15.0259 33.3773 15.2471 33.523 15.4909 33.6224C15.7346 33.7218 15.996 33.773 16.26 33.773C16.524 33.773 16.7854 33.7218 17.0292 33.6224C17.2729 33.523 17.4941 33.3773 17.68 33.1938C18.0525 32.8268 18.2616 32.3305 18.2616 31.8131C18.2616 31.2958 18.0525 30.7994 17.68 30.4325C17.4941 30.249 17.2729 30.1033 17.0292 30.0038C16.7854 29.9044 16.524 29.8532 16.26 29.8532C15.996 29.8532 15.7346 29.9044 15.4909 30.0038C15.2471 30.1033 15.0259 30.249 14.84 30.4325V30.4325ZM14.84 13.8063C14.4675 14.1732 14.2584 14.6695 14.2584 15.1869C14.2584 15.7042 14.4675 16.2006 14.84 16.5675C15.0259 16.7511 15.2471 16.8967 15.4909 16.9962C15.7346 17.0956 15.996 17.1468 16.26 17.1468C16.524 17.1468 16.7854 17.0956 17.0292 16.9962C17.2729 16.8967 17.4941 16.7511 17.68 16.5675C18.0525 16.2006 18.2616 15.7042 18.2616 15.1869C18.2616 14.6695 18.0525 14.1732 17.68 13.8063C17.4941 13.6227 17.2729 13.477 17.0292 13.3776C16.7854 13.2782 16.524 13.227 16.26 13.227C15.996 13.227 15.7346 13.2782 15.4909 13.3776C15.2471 13.477 15.0259 13.6227 14.84 13.8063ZM24.74 33.3896C24.3444 33.3896 23.9578 33.5044 23.6289 33.7196C23.3 33.9348 23.0436 34.2407 22.8923 34.5985C22.7409 34.9563 22.7013 35.3501 22.7784 35.73C22.8556 36.1099 23.0461 36.4588 23.3258 36.7327C23.6055 37.0066 23.9619 37.1931 24.3498 37.2686C24.7378 37.3442 25.1399 37.3054 25.5054 37.1572C25.8708 37.009 26.1832 36.758 26.4029 36.4359C26.6227 36.1139 26.74 35.7352 26.74 35.3479C26.7536 35.0826 26.7119 34.8174 26.6175 34.5684C26.523 34.3194 26.3779 34.0918 26.1908 33.8994C26.0037 33.7071 25.7786 33.554 25.5292 33.4495C25.2798 33.3451 25.0113 33.2913 24.74 33.2917V33.3896ZM12.74 21.6396C12.3444 21.6396 11.9578 21.7544 11.6289 21.9696C11.3 22.1848 11.0436 22.4907 10.8923 22.8485C10.7409 23.2063 10.7013 23.6001 10.7784 23.98C10.8556 24.3599 11.0461 24.7088 11.3258 24.9827C11.6055 25.2566 11.9619 25.4431 12.3498 25.5186C12.7378 25.5942 13.1399 25.5554 13.5054 25.4072C13.8708 25.259 14.1832 25.008 14.4029 24.6859C14.6227 24.3639 14.74 23.9852 14.74 23.5979C14.7536 23.3326 14.7119 23.0674 14.6175 22.8184C14.523 22.5694 14.3779 22.3418 14.1908 22.1494C14.0037 21.9571 13.7786 21.804 13.5292 21.6995C13.2798 21.595 13.0113 21.5413 12.74 21.5417V21.6396ZM24.74 9.88959C24.3444 9.88959 23.9578 10.0044 23.6289 10.2196C23.3 10.4348 23.0436 10.7407 22.8923 11.0985C22.7409 11.4563 22.7013 11.8501 22.7784 12.23C22.8556 12.6099 23.0461 12.9588 23.3258 13.2327C23.6055 13.5066 23.9619 13.6931 24.3498 13.7686C24.7378 13.8442 25.1399 13.8054 25.5054 13.6572C25.8708 13.509 26.1832 13.258 26.4029 12.9359C26.6227 12.6139 26.74 12.2352 26.74 11.8479C26.7536 11.5826 26.7119 11.3174 26.6175 11.0684C26.523 10.8194 26.3779 10.5918 26.1908 10.3994C26.0037 10.2071 25.7786 10.054 25.5292 9.94953C25.2798 9.84505 25.0113 9.79134 24.74 9.79167V9.88959ZM31.82 13.9042C31.5391 14.1776 31.3474 14.5265 31.2693 14.9067C31.1912 15.2869 31.2301 15.6813 31.3811 16.0398C31.5321 16.3983 31.7885 16.7048 32.1176 16.9205C32.4468 17.1362 32.8339 17.2514 33.23 17.2514C33.6261 17.2514 34.0132 17.1362 34.3424 16.9205C34.6715 16.7048 34.9279 16.3983 35.0789 16.0398C35.2299 15.6813 35.2688 15.2869 35.1907 14.9067C35.1126 14.5265 34.9209 14.1776 34.64 13.9042C34.2787 13.5261 33.7791 13.3036 33.2507 13.2852C32.7222 13.2669 32.2078 13.4542 31.82 13.8063V13.9042ZM44.42 13.9042C42.5915 10.3249 39.7808 7.3152 36.3032 5.2125C32.8256 3.10981 28.8184 1.99728 24.7312 1.99967C20.644 2.00206 16.6382 3.11928 13.1632 5.22604C9.68811 7.33281 6.88112 10.3458 5.05697 13.9272C3.23282 17.5086 2.46365 21.5167 2.8357 25.5022C3.20775 29.4877 4.70631 33.2929 7.16334 36.4911C9.62038 39.6893 12.9387 42.1541 16.7463 43.609C20.5539 45.064 24.7001 45.4516 28.72 44.7283C29.7309 44.5421 30.6937 44.1604 31.5522 43.6056C32.4107 43.0508 33.1477 42.334 33.72 41.4971C34.3367 40.5872 34.7622 39.5663 34.9717 38.4937C35.1811 37.4211 35.1704 36.3185 34.94 35.25C34.8141 34.6043 34.7471 33.949 34.74 33.2917C34.7488 31.394 35.3205 29.5397 36.3857 27.9543C37.4509 26.3689 38.9637 25.1207 40.74 24.3617C41.6977 23.9418 42.5574 23.3342 43.266 22.5763C43.9747 21.8185 44.5171 20.9265 44.86 19.9554C45.2068 18.9631 45.3466 17.9127 45.271 16.8665C45.1954 15.8203 44.906 14.7996 44.42 13.865V13.9042ZM41.02 18.6825C40.8493 19.1512 40.5844 19.5816 40.2409 19.9482C39.8973 20.3148 39.4822 20.6103 39.02 20.8171C36.56 21.8953 34.4701 23.646 33.0013 25.8588C31.5326 28.0716 30.7474 30.6526 30.74 33.2917C30.743 34.2123 30.8367 35.1304 31.02 36.0333C31.1422 36.5852 31.1502 37.1554 31.0437 37.7104C30.9373 38.2653 30.7184 38.7938 30.4 39.2646C30.1306 39.6766 29.7761 40.0289 29.3593 40.2987C28.9426 40.5685 28.4727 40.7499 27.98 40.8313C26.9117 41.0278 25.827 41.1262 24.74 41.125C22.3283 41.1261 19.941 40.6527 17.7199 39.7329C15.4987 38.8131 13.4889 37.4656 11.8099 35.7704C10.1309 34.0753 8.81697 32.067 7.94604 29.865C7.07511 27.6629 6.66498 25.3119 6.74001 22.9517C6.89523 18.5509 8.71802 14.3643 11.8533 11.2075C14.9885 8.05066 19.2117 6.14972 23.7 5.87501H24.72C28.0715 5.87583 31.3562 6.79285 34.2042 8.5228C37.0523 10.2528 39.3505 12.7269 40.84 15.6667C41.2985 16.5968 41.3632 17.6667 41.02 18.6433V18.6825ZM24.74 21.5417C24.3444 21.5417 23.9578 21.6565 23.6289 21.8717C23.3 22.0869 23.0436 22.3927 22.8923 22.7506C22.7409 23.1084 22.7013 23.5022 22.7784 23.8821C22.8556 24.2619 23.0461 24.6109 23.3258 24.8848C23.6055 25.1586 23.9619 25.3451 24.3498 25.4207C24.7378 25.4963 25.1399 25.4575 25.5054 25.3093C25.8708 25.161 26.1832 24.91 26.4029 24.588C26.6227 24.266 26.74 23.8873 26.74 23.5C26.74 22.9806 26.5293 22.4825 26.1542 22.1153C25.7791 21.748 25.2704 21.5417 24.74 21.5417Z" fill="#D74848"/>
</svg>
