<svg width="60" height="60" viewBox="0 0 60 60" fill="none" xmlns="http://www.w3.org/2000/svg">
<path d="M47.5 7.5H12.5C10.5109 7.5 8.60322 8.29018 7.1967 9.6967C5.79018 11.1032 5 13.0109 5 15V35C5 36.9891 5.79018 38.8968 7.1967 40.3033C8.60322 41.7098 10.5109 42.5 12.5 42.5H27.5V47.5H17.5C16.837 47.5 16.2011 47.7634 15.7322 48.2322C15.2634 48.7011 15 49.337 15 50C15 50.663 15.2634 51.2989 15.7322 51.7678C16.2011 52.2366 16.837 52.5 17.5 52.5H42.5C43.163 52.5 43.7989 52.2366 44.2678 51.7678C44.7366 51.2989 45 50.663 45 50C45 49.337 44.7366 48.7011 44.2678 48.2322C43.7989 47.7634 43.163 47.5 42.5 47.5H32.5V42.5H47.5C49.4891 42.5 51.3968 41.7098 52.8033 40.3033C54.2098 38.8968 55 36.9891 55 35V15C55 13.0109 54.2098 11.1032 52.8033 9.6967C51.3968 8.29018 49.4891 7.5 47.5 7.5ZM50 35C50 35.663 49.7366 36.2989 49.2678 36.7678C48.7989 37.2366 48.163 37.5 47.5 37.5H12.5C11.837 37.5 11.2011 37.2366 10.7322 36.7678C10.2634 36.2989 10 35.663 10 35V15C10 14.337 10.2634 13.7011 10.7322 13.2322C11.2011 12.7634 11.837 12.5 12.5 12.5H47.5C48.163 12.5 48.7989 12.7634 49.2678 13.2322C49.7366 13.7011 50 14.337 50 15V35Z" fill="#D74848"/>
</svg>
