<svg width="48" height="47" viewBox="0 0 48 47" fill="none" xmlns="http://www.w3.org/2000/svg">
<path d="M24 21.5416C23.6044 21.5416 23.2178 21.6565 22.8889 21.8717C22.56 22.0868 22.3036 22.3927 22.1522 22.7505C22.0009 23.1084 21.9613 23.5021 22.0384 23.882C22.1156 24.2619 22.3061 24.6108 22.5858 24.8847C22.8655 25.1586 23.2219 25.3451 23.6098 25.4207C23.9978 25.4962 24.3999 25.4574 24.7654 25.3092C25.1308 25.161 25.4432 24.91 25.6629 24.588C25.8827 24.2659 26 23.8873 26 23.5C26 22.9806 25.7893 22.4825 25.4142 22.1152C25.0391 21.7479 24.5304 21.5416 24 21.5416ZM39.24 23.5L39.46 23.2258C42.16 19.5833 42.8 16.2345 41.32 13.7083C39.84 11.182 36.52 10.0658 32 10.5162H31.64C29.82 6.46246 27.12 3.91663 24 3.91663C20.88 3.91663 18.18 6.46246 16.38 10.575L16 10.5162C11.48 10.0658 8.16 11.182 6.68 13.7083C5.2 16.2345 5.84 19.5833 8.54 23.2258L8.76 23.5L8.54 23.7741C5.84 27.4166 5.2 30.7654 6.68 33.2916C8 35.4458 10.54 36.5816 14 36.5816C14.62 36.5816 15.26 36.5816 16 36.4837H16.36C18.18 40.5375 20.88 43.0833 24 43.0833C27.12 43.0833 29.82 40.5375 31.62 36.425H31.98C32.66 36.425 33.3 36.5229 33.98 36.5229C37.52 36.5229 40.12 35.387 41.38 33.2329C42.86 30.7066 42.22 27.3579 39.52 23.7154L39.24 23.5ZM10.14 15.6666C10.64 14.805 12.14 14.335 14.14 14.335H15.12C14.8066 15.5397 14.5728 16.7629 14.42 17.997C13.4011 18.7517 12.4325 19.5694 11.52 20.445C10 18.4866 9.56 16.6458 10.14 15.6666ZM10.14 31.3333C9.56 30.3541 10.14 28.5133 11.48 26.4962C12.3925 27.3718 13.3611 28.1894 14.38 28.9441C14.5328 30.1847 14.7666 31.4145 15.08 32.6258C12.6 32.7825 10.72 32.3125 10.14 31.3333ZM24 7.83329C25.12 7.83329 26.46 9.12579 27.6 11.417C26.3781 11.7643 25.1764 12.1761 24 12.6508C22.8237 12.1761 21.6219 11.7643 20.4 11.417C21.54 9.12579 22.88 7.83329 24 7.83329ZM24 39.1666C22.88 39.1666 21.54 37.8741 20.4 35.5829C21.6219 35.2356 22.8237 34.8238 24 34.3491C25.1764 34.8238 26.3781 35.2356 27.6 35.5829C26.46 37.8741 25.12 39.1666 24 39.1666ZM29.86 26.8095C28.94 27.4362 28 28.0237 27 28.5916C26 29.1595 25 29.6687 24 30.1191C23 29.6622 22 29.153 21 28.5916C20 28.0237 19 27.4362 18.14 26.8095C18 25.752 18 24.6554 18 23.5C18 22.3445 18 21.2479 18.14 20.1904C19.06 19.5637 20 18.9762 21 18.4083C22 17.8404 23 17.3312 24 16.8808C25 17.3377 26 17.8469 27 18.4083C28 18.9762 29 19.5637 29.86 20.1904C29.86 21.2479 30 22.3445 30 23.5C30 24.6554 30 25.752 29.86 26.8095V26.8095ZM37.86 31.3333C37.28 32.3125 35.4 32.802 32.92 32.6258C33.2334 31.4145 33.4672 30.1847 33.62 28.9441C34.6389 28.1894 35.6076 27.3718 36.52 26.4962C38 28.5133 38.44 30.3541 37.86 31.3333ZM36.52 20.5037C35.6076 19.6281 34.6389 18.8105 33.62 18.0558C33.4672 16.8216 33.2334 15.5984 32.92 14.3937H33.9C35.9 14.3937 37.36 14.8637 37.9 15.7254C38.44 16.587 38 18.4866 36.52 20.5037V20.5037Z" fill="#D74848"/>
</svg>
