<svg width="60" height="60" viewBox="0 0 60 60" fill="none" xmlns="http://www.w3.org/2000/svg">
<path d="M53.525 21.6C53.525 21.6 53.525 21.6 53.525 21.475C51.7635 16.6656 48.5673 12.5132 44.3687 9.57967C40.1702 6.64612 35.1719 5.07294 30.05 5.07294C24.9281 5.07294 19.9298 6.64612 15.7313 9.57967C11.5327 12.5132 8.3365 16.6656 6.575 21.475C6.575 21.475 6.575 21.475 6.575 21.6C4.60781 27.0272 4.60781 32.9728 6.575 38.4C6.575 38.4 6.575 38.4 6.575 38.525C8.3365 43.3345 11.5327 47.4868 15.7313 50.4204C19.9298 53.3539 24.9281 54.9271 30.05 54.9271C35.1719 54.9271 40.1702 53.3539 44.3687 50.4204C48.5673 47.4868 51.7635 43.3345 53.525 38.525C53.525 38.525 53.525 38.525 53.525 38.4C55.4922 32.9728 55.4922 27.0272 53.525 21.6V21.6ZM10.65 35C9.78307 31.723 9.78307 28.277 10.65 25H15.3C14.9001 28.3213 14.9001 31.6787 15.3 35H10.65ZM12.7 40H16.2C16.7868 42.2296 17.6255 44.3852 18.7 46.425C16.2482 44.7548 14.1987 42.5602 12.7 40ZM16.2 20H12.7C14.1772 17.4477 16.2005 15.2537 18.625 13.575C17.5764 15.6181 16.7629 17.7736 16.2 20V20ZM27.5 49.25C24.4294 46.9967 22.2729 43.7131 21.425 40H27.5V49.25ZM27.5 35H20.35C19.8835 31.683 19.8835 28.317 20.35 25H27.5V35ZM27.5 20H21.425C22.2729 16.2869 24.4294 13.0033 27.5 10.75V20ZM47.3 20H43.8C43.2132 17.7704 42.3745 15.6149 41.3 13.575C43.7518 15.2452 45.8013 17.4399 47.3 20ZM32.5 10.75C35.5706 13.0033 37.7271 16.2869 38.575 20H32.5V10.75ZM32.5 49.25V40H38.575C37.7271 43.7131 35.5706 46.9967 32.5 49.25V49.25ZM39.65 35H32.5V25H39.65C40.1165 28.317 40.1165 31.683 39.65 35ZM41.375 46.425C42.4495 44.3852 43.2882 42.2296 43.875 40H47.375C45.8763 42.5602 43.8268 44.7548 41.375 46.425ZM49.35 35H44.7C44.9033 33.3412 45.0035 31.6713 45 30C45.0028 28.3288 44.9026 26.6589 44.7 25H49.35C50.2169 28.277 50.2169 31.723 49.35 35Z" fill="#D74848"/>
</svg>
