<svg width="60" height="60" viewBox="0 0 60 60" fill="none" xmlns="http://www.w3.org/2000/svg">
<path d="M51.05 11.45C49.7958 10.1915 48.3055 9.19286 46.6645 8.51149C45.0236 7.83011 43.2643 7.47937 41.4875 7.47937C39.7107 7.47937 37.9514 7.83011 36.3104 8.51149C34.6695 9.19286 33.1792 10.1915 31.925 11.45L30 13.4L28.075 11.45C26.8208 10.1915 25.3305 9.19286 23.6895 8.51149C22.0486 7.83011 20.2893 7.47937 18.5125 7.47937C16.7357 7.47937 14.9764 7.83011 13.3354 8.51149C11.6945 9.19286 10.2042 10.1915 8.94997 11.45C3.64997 16.75 3.32497 25.7 9.99997 32.5L30 52.5L50 32.5C56.675 25.7 56.35 16.75 51.05 11.45Z" stroke="#D74848" stroke-width="5" stroke-linecap="round" stroke-linejoin="round"/>
<path d="M30 13.4L22.175 21.25C21.1857 22.2474 20.6306 23.5952 20.6306 25C20.6306 26.4048 21.1857 27.7527 22.175 28.75V28.75C23.1723 29.7393 24.5202 30.2944 25.925 30.2944C27.3298 30.2944 28.6776 29.7393 29.675 28.75L35.325 23.225C36.7291 21.8357 38.6247 21.0565 40.6 21.0565C42.5753 21.0565 44.4708 21.8357 45.875 23.225L51.875 29.225M45 37.5L40 32.5M37.5 45L32.5 40" stroke="#D74848" stroke-width="5" stroke-linecap="round" stroke-linejoin="round"/>
</svg>
