<svg width="60" height="60" viewBox="0 0 60 60" fill="none" xmlns="http://www.w3.org/2000/svg">
<path d="M34 27.25C34.25 27.5 34.5 27.5 35 27.5H52.5C54 27.5 55 26.5 55 25C55 24.5 55 24.25 54.75 24L46 6.5C45.25 5.25 43.75 4.75 42.5 5.5C42.25 5.75 41.75 6 41.5 6.5L32.75 24C32.25 25 32.75 26.5 34 27.25ZM43.75 13L48.5 22.5H39L43.75 13ZM16.25 5C10 5 5 10 5 16.25C5 22.5 10 27.5 16.25 27.5C22.5 27.5 27.5 22.5 27.5 16.25C27.5 10 22.5 5 16.25 5ZM16.25 22.5C12.75 22.5 10 19.75 10 16.25C10 12.75 12.75 10 16.25 10C19.75 10 22.5 12.75 22.5 16.25C22.5 19.75 19.75 22.5 16.25 22.5ZM26.75 33.25C25.75 32.25 24.25 32.25 23.25 33.25L16.25 40.25L9.25 33.25C8.25 32.25 6.75 32.25 5.75 33.25C4.75 34.25 4.75 35.75 5.75 36.75L12.75 43.75L5.75 50.75C4.75 51.75 4.75 53.25 5.75 54.25C6.75 55.25 8.25 55.25 9.25 54.25L16.25 47.25L23.25 54.25C24.25 55.25 25.75 55.25 26.75 54.25C27.75 53.25 27.75 51.75 26.75 50.75L19.75 43.75L26.75 36.75C27.75 35.75 27.75 34.25 26.75 33.25ZM52.5 32.5H35C33.5 32.5 32.5 33.5 32.5 35V52.5C32.5 54 33.5 55 35 55H52.5C54 55 55 54 55 52.5V35C55 33.5 54 32.5 52.5 32.5ZM50 50H37.5V37.5H50V50Z" fill="#D74848"/>
</svg>
