<svg width="48" height="47" viewBox="0 0 48 47" fill="none" xmlns="http://www.w3.org/2000/svg">
<path d="M44 18.9371C43.8737 18.5789 43.6439 18.2642 43.3386 18.0313C43.0333 17.7984 42.6656 17.6573 42.28 17.625L30.9 15.9996L25.8 5.87498C25.6362 5.54388 25.3805 5.26465 25.0622 5.06927C24.7438 4.87389 24.3757 4.77026 24 4.77026C23.6243 4.77026 23.2562 4.87389 22.9378 5.06927C22.6195 5.26465 22.3638 5.54388 22.2 5.87498L17.1 15.98L5.71999 17.625C5.34983 17.6765 5.00183 17.8286 4.71549 18.064C4.42914 18.2993 4.21591 18.6086 4.09999 18.9566C3.99388 19.2968 3.98435 19.6587 4.07244 20.0038C4.16053 20.3488 4.3429 20.6638 4.59999 20.915L12.86 28.7483L10.86 39.8716C10.7792 40.2406 10.8091 40.6246 10.946 40.9774C11.0828 41.3302 11.3209 41.6367 11.6314 41.8601C11.942 42.0836 12.3119 42.2144 12.6966 42.2368C13.0814 42.2593 13.4645 42.1724 13.8 41.9866L24 36.7579L34.2 41.9866C34.4807 42.1417 34.7977 42.2227 35.12 42.2216C35.5436 42.2231 35.9568 42.0928 36.3 41.8496C36.6103 41.6319 36.8505 41.3319 36.9922 40.9849C37.134 40.6379 37.1714 40.2584 37.1 39.8912L35.1 28.7679L43.36 20.9346C43.6487 20.695 43.8622 20.3802 43.9755 20.0266C44.0887 19.673 44.0973 19.2952 44 18.9371ZM31.7 26.7704C31.4685 26.9905 31.2948 27.2622 31.1938 27.5623C31.0928 27.8624 31.0675 28.182 31.12 28.4937L32.56 36.7187L25.04 32.8021C24.7477 32.6605 24.4261 32.5869 24.1 32.5869C23.7739 32.5869 23.4522 32.6605 23.16 32.8021L15.64 36.7187L17.08 28.4937C17.1325 28.182 17.1071 27.8624 17.0061 27.5623C16.9051 27.2622 16.7315 26.9905 16.5 26.7704L10.5 20.8954L18.92 19.7008C19.244 19.6567 19.552 19.5354 19.817 19.3476C20.082 19.1598 20.2959 18.9113 20.44 18.6237L24 11.1625L27.76 18.6433C27.9041 18.9309 28.118 19.1794 28.383 19.3672C28.648 19.555 28.956 19.6763 29.28 19.7204L37.7 20.915L31.7 26.7704Z" fill="#D74848"/>
</svg>
