<svg width="60" height="60" viewBox="0 0 60 60" fill="none" xmlns="http://www.w3.org/2000/svg">
<path d="M49.978 5.00501C49.6497 5.00482 49.3245 5.06935 49.0211 5.19492C48.7177 5.3205 48.442 5.50464 48.2098 5.73682C47.9777 5.969 47.7935 6.24468 47.668 6.54807C47.5424 6.85147 47.4778 7.17665 47.478 7.50501V9.09681C45.3695 11.7111 42.7047 13.8223 39.6774 15.2768C36.6501 16.7313 33.3366 17.4925 29.978 17.505H14.978C12.9896 17.5072 11.0832 18.298 9.67712 19.7041C8.27107 21.1102 7.4802 23.0165 7.47803 25.005V30.005C7.4802 31.9935 8.27107 33.8999 9.67712 35.3059C11.0832 36.712 12.9896 37.5028 14.978 37.505H16.1875L10.1807 51.521C10.0174 51.9012 9.95117 52.3159 9.98781 52.728C10.0244 53.1401 10.1629 53.5366 10.3906 53.882C10.6184 54.2274 10.9283 54.5108 11.2927 54.7068C11.657 54.9028 12.0643 55.0053 12.478 55.005H22.478C22.9674 55.0053 23.4461 54.8617 23.8545 54.5922C24.263 54.3226 24.5832 53.939 24.7754 53.4889L31.5848 37.6C34.6614 37.8259 37.659 38.6801 40.3926 40.1098C43.1261 41.5396 45.5376 43.5145 47.478 45.9127V47.505C47.478 48.168 47.7414 48.8039 48.2103 49.2728C48.6791 49.7416 49.315 50.005 49.978 50.005C50.6411 50.005 51.277 49.7416 51.7458 49.2728C52.2146 48.8039 52.478 48.168 52.478 47.505V7.50501C52.4782 7.17665 52.4137 6.85147 52.2881 6.54807C52.1625 6.24467 51.9784 5.969 51.7462 5.73681C51.514 5.50463 51.2384 5.32049 50.935 5.19492C50.6316 5.06935 50.3064 5.00481 49.978 5.00501V5.00501ZM14.978 32.505C14.3151 32.5046 13.6795 32.241 13.2108 31.7723C12.742 31.3035 12.4785 30.6679 12.478 30.005V25.005C12.4785 24.3421 12.742 23.7065 13.2108 23.2377C13.6795 22.769 14.3151 22.5055 14.978 22.505H17.478V32.505H14.978ZM20.8301 50.005H16.2695L21.626 37.505H26.1865L20.8301 50.005ZM47.478 38.8095C42.5487 34.7486 36.3647 32.5207 29.978 32.5049H22.478V22.5049H29.978C36.3648 22.4886 42.5488 20.2603 47.478 16.199V38.8095Z" fill="#D74848"/>
</svg>
