<svg width="60" height="60" viewBox="0 0 60 60" fill="none" xmlns="http://www.w3.org/2000/svg">
<path d="M31.775 40.725L31.4 40.425C31.2606 40.3304 31.1093 40.2547 30.95 40.2L30.5 40C30.0946 39.9152 29.6744 39.9325 29.2773 40.0504C28.8802 40.1682 28.5186 40.3828 28.225 40.675C28.0042 40.918 27.8266 41.197 27.7 41.5C27.5108 41.9555 27.4606 42.4568 27.5556 42.9408C27.6507 43.4248 27.8868 43.8698 28.2342 44.2199C28.5817 44.57 29.0249 44.8095 29.5081 44.9083C29.9914 45.0071 30.4931 44.9607 30.95 44.775C31.2487 44.63 31.5263 44.445 31.775 44.225C32.1219 43.8734 32.3569 43.427 32.4503 42.942C32.5438 42.4571 32.4914 41.9553 32.3 41.5C32.1754 41.2109 31.9972 40.948 31.775 40.725V40.725ZM40 5H20C18.0109 5 16.1032 5.79018 14.6967 7.1967C13.2902 8.60322 12.5 10.5109 12.5 12.5V47.5C12.5 49.4891 13.2902 51.3968 14.6967 52.8033C16.1032 54.2098 18.0109 55 20 55H40C41.9891 55 43.8968 54.2098 45.3033 52.8033C46.7098 51.3968 47.5 49.4891 47.5 47.5V12.5C47.5 10.5109 46.7098 8.60322 45.3033 7.1967C43.8968 5.79018 41.9891 5 40 5ZM42.5 47.5C42.5 48.163 42.2366 48.7989 41.7678 49.2678C41.2989 49.7366 40.663 50 40 50H20C19.337 50 18.7011 49.7366 18.2322 49.2678C17.7634 48.7989 17.5 48.163 17.5 47.5V12.5C17.5 11.837 17.7634 11.2011 18.2322 10.7322C18.7011 10.2634 19.337 10 20 10H40C40.663 10 41.2989 10.2634 41.7678 10.7322C42.2366 11.2011 42.5 11.837 42.5 12.5V47.5Z" fill="#D74848"/>
</svg>
