<svg width="60" height="60" viewBox="0 0 60 60" fill="none" xmlns="http://www.w3.org/2000/svg">
<path d="M52.5 35H50V7.5C50 6.83696 49.7366 6.20107 49.2678 5.73223C48.7989 5.26339 48.163 5 47.5 5H12.5C11.837 5 11.2011 5.26339 10.7322 5.73223C10.2634 6.20107 10 6.83696 10 7.5V35H7.5C6.83696 35 6.20107 35.2634 5.73223 35.7322C5.26339 36.2011 5 36.837 5 37.5C5 38.163 5.26339 38.7989 5.73223 39.2678C6.20107 39.7366 6.83696 40 7.5 40H27.5V42.875L16.125 50.375C15.6583 50.6639 15.2997 51.0983 15.1044 51.6112C14.9091 52.1241 14.8881 52.687 15.0445 53.2131C15.2009 53.7392 15.5261 54.1992 15.9698 54.5221C16.4136 54.8451 16.9513 55.013 17.5 55C17.9915 55.0056 18.4724 54.857 18.875 54.575L27.5 48.875V52.5C27.5 53.163 27.7634 53.7989 28.2322 54.2678C28.7011 54.7366 29.337 55 30 55C30.663 55 31.2989 54.7366 31.7678 54.2678C32.2366 53.7989 32.5 53.163 32.5 52.5V48.875L41.125 54.575C41.5276 54.857 42.0085 55.0056 42.5 55C43.0341 54.9959 43.5529 54.8208 43.9803 54.5004C44.4076 54.18 44.7212 53.7312 44.8749 53.2196C45.0286 52.7081 45.0145 52.1608 44.8346 51.6579C44.6546 51.155 44.3183 50.7229 43.875 50.425L32.5 42.925V40H52.5C53.163 40 53.7989 39.7366 54.2678 39.2678C54.7366 38.7989 55 38.163 55 37.5C55 36.837 54.7366 36.2011 54.2678 35.7322C53.7989 35.2634 53.163 35 52.5 35ZM45 35H15V10H45V35ZM22.5 30C22.9118 29.9979 23.3166 29.8941 23.6786 29.6978C24.0406 29.5015 24.3485 29.2189 24.575 28.875L27.9 23.875L30.725 26.725C30.9873 26.9889 31.3052 27.191 31.6555 27.3164C32.0059 27.4418 32.3798 27.4875 32.75 27.45C33.1186 27.4096 33.4736 27.2876 33.7892 27.0931C34.1049 26.8985 34.3733 26.6361 34.575 26.325L39.575 18.825C39.8694 18.2761 39.9484 17.637 39.7963 17.033C39.6442 16.4289 39.2721 15.9034 38.7529 15.5593C38.2336 15.2152 37.6046 15.0774 36.9891 15.1727C36.3735 15.2681 35.8158 15.5899 35.425 16.075L32.1 21.075L29.275 18.225C29.0127 17.9611 28.6948 17.759 28.3445 17.6336C27.9941 17.5082 27.6202 17.4625 27.25 17.5C26.8814 17.5404 26.5264 17.6624 26.2108 17.8569C25.8951 18.0515 25.6267 18.3139 25.425 18.625L20.425 26.125C20.0632 26.6762 19.9337 27.3479 20.0648 27.9941C20.1959 28.6402 20.577 29.2084 21.125 29.575C21.5276 29.857 22.0085 30.0056 22.5 30V30Z" fill="#D74848"/>
</svg>
