<svg width="60" height="60" viewBox="0 0 60 60" fill="none" xmlns="http://www.w3.org/2000/svg">
<path d="M17.5 25C17.0055 25 16.5222 25.1466 16.1111 25.4213C15.7 25.696 15.3795 26.0865 15.1903 26.5433C15.0011 27.0001 14.9516 27.5028 15.048 27.9877C15.1445 28.4727 15.3826 28.9181 15.7322 29.2678C16.0819 29.6174 16.5273 29.8555 17.0123 29.952C17.4972 30.0484 17.9999 29.9989 18.4567 29.8097C18.9135 29.6205 19.304 29.3 19.5787 28.8889C19.8534 28.4778 20 27.9945 20 27.5C20 26.837 19.7366 26.2011 19.2678 25.7322C18.7989 25.2634 18.163 25 17.5 25ZM47.5 15H45V7.5C45 6.83696 44.7366 6.20107 44.2678 5.73223C43.7989 5.26339 43.163 5 42.5 5H17.5C16.837 5 16.2011 5.26339 15.7322 5.73223C15.2634 6.20107 15 6.83696 15 7.5V15H12.5C10.5109 15 8.60322 15.7902 7.1967 17.1967C5.79018 18.6032 5 20.5109 5 22.5V37.5C5 39.4891 5.79018 41.3968 7.1967 42.8033C8.60322 44.2098 10.5109 45 12.5 45H15V52.5C15 53.163 15.2634 53.7989 15.7322 54.2678C16.2011 54.7366 16.837 55 17.5 55H42.5C43.163 55 43.7989 54.7366 44.2678 54.2678C44.7366 53.7989 45 53.163 45 52.5V45H47.5C49.4891 45 51.3968 44.2098 52.8033 42.8033C54.2098 41.3968 55 39.4891 55 37.5V22.5C55 20.5109 54.2098 18.6032 52.8033 17.1967C51.3968 15.7902 49.4891 15 47.5 15ZM20 10H40V15H20V10ZM40 50H20V40H40V50ZM50 37.5C50 38.163 49.7366 38.7989 49.2678 39.2678C48.7989 39.7366 48.163 40 47.5 40H45V37.5C45 36.837 44.7366 36.2011 44.2678 35.7322C43.7989 35.2634 43.163 35 42.5 35H17.5C16.837 35 16.2011 35.2634 15.7322 35.7322C15.2634 36.2011 15 36.837 15 37.5V40H12.5C11.837 40 11.2011 39.7366 10.7322 39.2678C10.2634 38.7989 10 38.163 10 37.5V22.5C10 21.837 10.2634 21.2011 10.7322 20.7322C11.2011 20.2634 11.837 20 12.5 20H47.5C48.163 20 48.7989 20.2634 49.2678 20.7322C49.7366 21.2011 50 21.837 50 22.5V37.5Z" fill="#D74848"/>
</svg>
