<svg width="48" height="47" viewBox="0 0 48 47" fill="none" xmlns="http://www.w3.org/2000/svg">
<path d="M42 21.5416H39.86C39.4136 18.0949 37.8098 14.8913 35.3008 12.4346C32.7918 9.97785 29.52 8.40746 26 7.97038V5.87496C26 5.35558 25.7893 4.85747 25.4142 4.49021C25.0391 4.12295 24.5304 3.91663 24 3.91663C23.4696 3.91663 22.9609 4.12295 22.5858 4.49021C22.2107 4.85747 22 5.35558 22 5.87496V7.97038C18.48 8.40746 15.2082 9.97785 12.6992 12.4346C10.1902 14.8913 8.58639 18.0949 8.14 21.5416H6C5.46957 21.5416 4.96086 21.748 4.58579 22.1152C4.21071 22.4825 4 22.9806 4 23.5C4 24.0193 4.21071 24.5175 4.58579 24.8847C4.96086 25.252 5.46957 25.4583 6 25.4583H8.14C8.58639 28.905 10.1902 32.1086 12.6992 34.5654C15.2082 37.0221 18.48 38.5925 22 39.0295V41.125C22 41.6443 22.2107 42.1425 22.5858 42.5097C22.9609 42.877 23.4696 43.0833 24 43.0833C24.5304 43.0833 25.0391 42.877 25.4142 42.5097C25.7893 42.1425 26 41.6443 26 41.125V39.0295C29.52 38.5925 32.7918 37.0221 35.3008 34.5654C37.8098 32.1086 39.4136 28.905 39.86 25.4583H42C42.5304 25.4583 43.0391 25.252 43.4142 24.8847C43.7893 24.5175 44 24.0193 44 23.5C44 22.9806 43.7893 22.4825 43.4142 22.1152C43.0391 21.748 42.5304 21.5416 42 21.5416ZM24 35.25C21.6266 35.25 19.3065 34.5608 17.3332 33.2697C15.3598 31.9786 13.8217 30.1435 12.9134 27.9965C12.0052 25.8495 11.7676 23.4869 12.2306 21.2076C12.6936 18.9284 13.8365 16.8347 15.5147 15.1915C17.1929 13.5482 19.3311 12.4291 21.6589 11.9757C23.9867 11.5224 26.3995 11.755 28.5922 12.6444C30.7849 13.5337 32.6591 15.0397 33.9776 16.972C35.2962 18.9043 36 21.176 36 23.5C36 26.6163 34.7357 29.6049 32.4853 31.8085C30.2348 34.012 27.1826 35.25 24 35.25ZM24 17.625C22.8133 17.625 21.6533 17.9695 20.6666 18.6151C19.6799 19.2606 18.9108 20.1782 18.4567 21.2517C18.0026 22.3252 17.8838 23.5065 18.1153 24.6461C18.3468 25.7858 18.9182 26.8326 19.7574 27.6542C20.5965 28.4758 21.6656 29.0354 22.8295 29.2621C23.9933 29.4888 25.1997 29.3724 26.2961 28.9278C27.3925 28.4831 28.3295 27.7301 28.9888 26.7639C29.6481 25.7978 30 24.6619 30 23.5C30 21.9418 29.3679 20.4475 28.2426 19.3457C27.1174 18.2439 25.5913 17.625 24 17.625ZM24 25.4583C23.6044 25.4583 23.2178 25.3434 22.8889 25.1283C22.56 24.9131 22.3036 24.6072 22.1522 24.2494C22.0009 23.8915 21.9613 23.4978 22.0384 23.1179C22.1156 22.738 22.3061 22.3891 22.5858 22.1152C22.8655 21.8413 23.2219 21.6548 23.6098 21.5793C23.9978 21.5037 24.3999 21.5425 24.7654 21.6907C25.1308 21.8389 25.4432 22.0899 25.6629 22.412C25.8827 22.734 26 23.1126 26 23.5C26 24.0193 25.7893 24.5175 25.4142 24.8847C25.0391 25.252 24.5304 25.4583 24 25.4583Z" fill="#D74848"/>
</svg>
