<svg width="48" height="47" viewBox="0 0 48 47" fill="none" xmlns="http://www.w3.org/2000/svg">
<path d="M18 29.375C17.6044 29.375 17.2178 29.4898 16.8889 29.705C16.56 29.9202 16.3036 30.2261 16.1522 30.5839C16.0009 30.9417 15.9613 31.3355 16.0384 31.7154C16.1156 32.0953 16.3061 32.4442 16.5858 32.7181C16.8655 32.992 17.2219 33.1785 17.6098 33.254C17.9978 33.3296 18.3999 33.2908 18.7654 33.1426C19.1308 32.9944 19.4432 32.7434 19.6629 32.4213C19.8827 32.0993 20 31.7206 20 31.3333C20 30.8139 19.7893 30.3158 19.4142 29.9486C19.0391 29.5813 18.5304 29.375 18 29.375ZM4 27.4167C3.46957 27.4167 2.96086 27.623 2.58579 27.9902C2.21071 28.3575 2 28.8556 2 29.375V33.2917C2 33.811 2.21071 34.3092 2.58579 34.6764C2.96086 35.0437 3.46957 35.25 4 35.25C4.53043 35.25 5.03914 35.0437 5.41421 34.6764C5.78929 34.3092 6 33.811 6 33.2917V29.375C6 28.8556 5.78929 28.3575 5.41421 27.9902C5.03914 27.623 4.53043 27.4167 4 27.4167ZM44 27.4167C43.4696 27.4167 42.9609 27.623 42.5858 27.9902C42.2107 28.3575 42 28.8556 42 29.375V33.2917C42 33.811 42.2107 34.3092 42.5858 34.6764C42.9609 35.0437 43.4696 35.25 44 35.25C44.5304 35.25 45.0391 35.0437 45.4142 34.6764C45.7893 34.3092 46 33.811 46 33.2917V29.375C46 28.8556 45.7893 28.3575 45.4142 27.9902C45.0391 27.623 44.5304 27.4167 44 27.4167ZM34 13.7083H26V11.2017C26.6046 10.8599 27.1072 10.3692 27.4581 9.77828C27.809 9.18737 27.9958 8.51684 28 7.83332C28 6.79456 27.5786 5.79834 26.8284 5.06382C26.0783 4.3293 25.0609 3.91666 24 3.91666C22.9391 3.91666 21.9217 4.3293 21.1716 5.06382C20.4214 5.79834 20 6.79456 20 7.83332C20.0042 8.51684 20.191 9.18737 20.5419 9.77828C20.8928 10.3692 21.3954 10.8599 22 11.2017V13.7083H14C12.4087 13.7083 10.8826 14.3273 9.75736 15.4291C8.63214 16.5308 8 18.0252 8 19.5833V37.2083C8 38.7665 8.63214 40.2608 9.75736 41.3626C10.8826 42.4644 12.4087 43.0833 14 43.0833H34C35.5913 43.0833 37.1174 42.4644 38.2426 41.3626C39.3679 40.2608 40 38.7665 40 37.2083V19.5833C40 18.0252 39.3679 16.5308 38.2426 15.4291C37.1174 14.3273 35.5913 13.7083 34 13.7083ZM27.44 17.625L26.44 21.5417H21.56L20.56 17.625H27.44ZM36 37.2083C36 37.7277 35.7893 38.2258 35.4142 38.5931C35.0391 38.9603 34.5304 39.1667 34 39.1667H14C13.4696 39.1667 12.9609 38.9603 12.5858 38.5931C12.2107 38.2258 12 37.7277 12 37.2083V19.5833C12 19.0639 12.2107 18.5658 12.5858 18.1986C12.9609 17.8313 13.4696 17.625 14 17.625H16.44L18 23.97C18.1095 24.4045 18.3677 24.7892 18.7316 25.06C19.0955 25.3308 19.5431 25.4714 20 25.4583H28C28.4569 25.4714 28.9045 25.3308 29.2684 25.06C29.6323 24.7892 29.8905 24.4045 30 23.97L31.56 17.625H34C34.5304 17.625 35.0391 17.8313 35.4142 18.1986C35.7893 18.5658 36 19.0639 36 19.5833V37.2083ZM30 29.375C29.6044 29.375 29.2178 29.4898 28.8889 29.705C28.56 29.9202 28.3036 30.2261 28.1522 30.5839C28.0009 30.9417 27.9613 31.3355 28.0384 31.7154C28.1156 32.0953 28.3061 32.4442 28.5858 32.7181C28.8655 32.992 29.2219 33.1785 29.6098 33.254C29.9978 33.3296 30.3999 33.2908 30.7654 33.1426C31.1308 32.9944 31.4432 32.7434 31.6629 32.4213C31.8827 32.0993 32 31.7206 32 31.3333C32 30.8139 31.7893 30.3158 31.4142 29.9486C31.0391 29.5813 30.5304 29.375 30 29.375Z" fill="#D74848"/>
</svg>
