<svg width="60" height="60" viewBox="0 0 60 60" fill="none" xmlns="http://www.w3.org/2000/svg">
<path d="M25 22.5H17.5C16.837 22.5 16.2011 22.7634 15.7322 23.2322C15.2634 23.7011 15 24.337 15 25C15 25.663 15.2634 26.2989 15.7322 26.7678C16.2011 27.2366 16.837 27.5 17.5 27.5H18.75V35C18.75 35.663 19.0134 36.2989 19.4822 36.7678C19.9511 37.2366 20.587 37.5 21.25 37.5C21.9131 37.5 22.5489 37.2366 23.0178 36.7678C23.4866 36.2989 23.75 35.663 23.75 35V27.5H25C25.6631 27.5 26.2989 27.2366 26.7678 26.7678C27.2366 26.2989 27.5 25.663 27.5 25C27.5 24.337 27.2366 23.7011 26.7678 23.2322C26.2989 22.7634 25.6631 22.5 25 22.5ZM43.45 22.7C42.9947 22.5086 42.493 22.4562 42.008 22.5497C41.523 22.6431 41.0766 22.8781 40.725 23.225L37.5 26.475L34.275 23.225C33.9235 22.8781 33.477 22.6431 32.992 22.5497C32.5071 22.4562 32.0053 22.5086 31.55 22.7C31.0935 22.8876 30.7026 23.206 30.4268 23.6153C30.151 24.0246 30.0025 24.5064 30 25V35C30 35.663 30.2634 36.2989 30.7322 36.7678C31.2011 37.2366 31.837 37.5 32.5 37.5C33.1631 37.5 33.7989 37.2366 34.2678 36.7678C34.7366 36.2989 35 35.663 35 35V31.025L35.725 31.775C35.9574 32.0093 36.2339 32.1953 36.5386 32.3222C36.8432 32.4491 37.17 32.5145 37.5 32.5145C37.83 32.5145 38.1568 32.4491 38.4615 32.3222C38.7661 32.1953 39.0426 32.0093 39.275 31.775L40 31.025V35C40 35.663 40.2634 36.2989 40.7322 36.7678C41.2011 37.2366 41.837 37.5 42.5 37.5C43.1631 37.5 43.7989 37.2366 44.2678 36.7678C44.7366 36.2989 45 35.663 45 35V25C44.9975 24.5064 44.849 24.0246 44.5732 23.6153C44.2974 23.206 43.9066 22.8876 43.45 22.7ZM30 5C25.0555 5 20.222 6.46622 16.1108 9.21326C11.9995 11.9603 8.79521 15.8648 6.90302 20.4329C5.01083 25.0011 4.51575 30.0277 5.48038 34.8773C6.44501 39.7268 8.82603 44.1814 12.3223 47.6777C15.8187 51.174 20.2732 53.555 25.1228 54.5196C29.9723 55.4843 34.9989 54.9892 39.5671 53.097C44.1353 51.2048 48.0397 48.0005 50.7867 43.8893C53.5338 39.778 55 34.9445 55 30C55 26.717 54.3534 23.4661 53.097 20.4329C51.8406 17.3998 49.9991 14.6438 47.6777 12.3223C45.3562 10.0009 42.6002 8.15938 39.5671 6.90301C36.534 5.64664 33.2831 5 30 5V5ZM30 50C26.0444 50 22.1776 48.827 18.8886 46.6294C15.5996 44.4318 13.0362 41.3082 11.5224 37.6537C10.0087 33.9991 9.6126 29.9778 10.3843 26.0982C11.156 22.2186 13.0608 18.6549 15.8579 15.8579C18.6549 13.0608 22.2186 11.156 26.0982 10.3843C29.9778 9.61259 33.9992 10.0087 37.6537 11.5224C41.3082 13.0362 44.4318 15.5996 46.6294 18.8886C48.827 22.1776 50 26.0444 50 30C50 35.3043 47.8929 40.3914 44.1421 44.1421C40.3914 47.8929 35.3043 50 30 50V50Z" fill="#D74848"/>
</svg>
