<svg width="60" height="60" viewBox="0 0 60 60" fill="none" xmlns="http://www.w3.org/2000/svg">
<path d="M47.5 32.5C46.837 32.5 46.2011 32.7634 45.7322 33.2322C45.2634 33.7011 45 34.3369 45 35V35.95L41.3 32.25C39.9936 30.9538 38.2278 30.2265 36.3875 30.2265C34.5472 30.2265 32.7814 30.9538 31.475 32.25L29.725 34L23.525 27.8C22.2003 26.539 20.4414 25.8357 18.6125 25.8357C16.7836 25.8357 15.0247 26.539 13.7 27.8L10 31.5V17.5C10 16.8369 10.2634 16.2011 10.7322 15.7322C11.2011 15.2634 11.837 15 12.5 15H30C30.663 15 31.2989 14.7366 31.7678 14.2678C32.2366 13.7989 32.5 13.163 32.5 12.5C32.5 11.8369 32.2366 11.2011 31.7678 10.7322C31.2989 10.2634 30.663 9.99998 30 9.99998H12.5C10.5109 9.99998 8.60322 10.7902 7.1967 12.1967C5.79018 13.6032 5 15.5109 5 17.5V47.5C5 49.4891 5.79018 51.3968 7.1967 52.8033C8.60322 54.2098 10.5109 55 12.5 55H42.5C44.4891 55 46.3968 54.2098 47.8033 52.8033C49.2098 51.3968 50 49.4891 50 47.5V35C50 34.3369 49.7366 33.7011 49.2678 33.2322C48.7989 32.7634 48.163 32.5 47.5 32.5ZM12.5 50C11.837 50 11.2011 49.7366 10.7322 49.2678C10.2634 48.7989 10 48.163 10 47.5V38.575L17.25 31.325C17.6173 30.975 18.1052 30.7797 18.6125 30.7797C19.1198 30.7797 19.6077 30.975 19.975 31.325L27.9 39.25L38.65 50H12.5ZM45 47.5C44.9964 47.9786 44.8386 48.4432 44.55 48.825L33.275 37.5L35.025 35.75C35.2042 35.5671 35.4182 35.4217 35.6543 35.3225C35.8904 35.2233 36.1439 35.1722 36.4 35.1722C36.6561 35.1722 36.9096 35.2233 37.1457 35.3225C37.3818 35.4217 37.5958 35.5671 37.775 35.75L45 43.025V47.5ZM56.775 10.725L49.275 3.22498C49.0372 2.99738 48.7569 2.81897 48.45 2.69998C47.8413 2.44994 47.1587 2.44994 46.55 2.69998C46.2431 2.81897 45.9628 2.99738 45.725 3.22498L38.225 10.725C37.9919 10.9581 37.807 11.2348 37.6809 11.5394C37.5547 11.8439 37.4898 12.1703 37.4898 12.5C37.4898 13.1657 37.7542 13.8042 38.225 14.275C38.6958 14.7457 39.3342 15.0102 40 15.0102C40.6658 15.0102 41.3042 14.7457 41.775 14.275L45 11.025V25C45 25.663 45.2634 26.2989 45.7322 26.7678C46.2011 27.2366 46.837 27.5 47.5 27.5C48.163 27.5 48.7989 27.2366 49.2678 26.7678C49.7366 26.2989 50 25.663 50 25V11.025L53.225 14.275C53.4574 14.5093 53.7339 14.6953 54.0386 14.8222C54.3432 14.9491 54.67 15.0145 55 15.0145C55.33 15.0145 55.6568 14.9491 55.9614 14.8222C56.2661 14.6953 56.5426 14.5093 56.775 14.275C57.0093 14.0426 57.1953 13.7661 57.3222 13.4614C57.4492 13.1568 57.5145 12.83 57.5145 12.5C57.5145 12.17 57.4492 11.8432 57.3222 11.5385C57.1953 11.2339 57.0093 10.9574 56.775 10.725V10.725Z" fill="#D74848"/>
</svg>
