<svg width="99" height="138" viewBox="0 0 99 138" fill="none" xmlns="http://www.w3.org/2000/svg">
<path d="M51.8154 62.4582C71.8881 67.2867 75.4669 84.4198 71.1101 99.0609C69.2429 84.8871 61.9296 77.5666 50.5706 75.0745C44.3389 73.7073 33.2833 70.2809 24.5851 64.6388C21.2234 62.4582 19.6058 61.0564 18.5166 58.2528C18.9834 67.1309 25.8299 73.9842 42.3237 78.9684C61.4038 84.7341 65.0835 92.9864 66.1308 96.8803C67.9552 103.663 66.2864 110.275 62.0852 118.53C58.6619 110.431 53.3715 107.316 45.9026 107.316C47.4586 108.251 56.3279 113.235 57.4171 119.309C59.3029 125.092 55.4529 133.658 51.193 138C55.0831 117.284 41.2345 115.26 34.9332 111.366C29.07 107.742 26.2967 107.316 22.4067 103.889C16.5291 98.712 11.8257 92.5192 12.1369 84.7314C14.9378 94.6998 29.0204 99.0609 34.9332 99.0609C42.3237 99.0609 49.4814 96.2573 59.5955 103.889C56.7947 91.1174 32.054 90.6501 23.8071 86.1332C15.5602 81.6162 7.56294 73.0496 5.07331 66.6636C-5.36766 44.8578 2.58368 8.8781 8.65216 0C7.58535 45.393 27.9348 56.7138 51.8154 62.4582Z" fill="#D74848"/>
<path fill-rule="evenodd" clip-rule="evenodd" d="M99 54.9621C97.5739 50.1305 94.4125 49.6525 89.2529 52.2665C87.2645 50.0328 80.8396 50.6285 76.1134 51.2997C68.0054 52.4513 65.8642 57.6351 64.4884 60.966C64.313 61.3907 64.15 61.7853 63.9887 62.1375C68.2677 62.8511 77.5189 69.6106 77.5711 84.7054C80.4192 77.1696 85.6183 64.2023 91.5152 57.9828C91.5152 57.9828 93.5882 56.3501 95.045 55.5816C96.4688 54.8305 97.3143 54.3485 97.3143 54.3485C97.7034 54.0889 98.4356 54.3484 99 54.9621ZM84.8283 53.3618C84.8283 53.3618 82.1127 55.1567 81.1791 55.1439C80.2456 55.1312 78.7213 54.0038 78.7213 54.0038C78.7213 54.0038 81.2389 53.2474 82.4216 53.0803C83.5843 52.916 84.8283 53.3618 84.8283 53.3618Z" fill="#D74848"/>
</svg>
