<svg width="180" height="180" viewBox="0 0 180 180" fill="none" xmlns="http://www.w3.org/2000/svg">
<path d="M90 0C40.2966 0 0 40.2966 0 90C0 139.703 40.2966 180 90 180C139.703 180 180 139.703 180 90C180 40.2966 139.725 0 90 0ZM103.326 149.915L103.136 150.085C98.1144 154.364 90.5508 153.75 86.2712 148.729C81.9915 143.708 82.6059 136.144 87.6271 131.864L87.8178 131.695C92.839 127.415 100.403 128.03 104.682 133.051C108.962 138.093 108.347 145.636 103.326 149.915ZM109.576 97.3729L80.0212 122.5C75 126.78 67.4364 126.165 63.1568 121.144C58.8771 116.123 59.4915 108.559 64.5127 104.28L94.0678 79.1525C99.089 74.8729 106.653 75.4873 110.932 80.5085C115.212 85.5508 114.597 93.1144 109.576 97.3729ZM115.466 44.428L56.3559 94.661C51.3347 98.9407 43.7712 98.3263 39.4915 93.3051C35.2119 88.2839 35.8263 80.7203 40.8475 76.4407L99.9576 26.1864C104.979 21.9068 112.542 22.5212 116.822 27.5424C121.102 32.6059 120.487 40.1483 115.466 44.428Z" fill="#7CC9D0"/>
</svg>
