<svg width="175" height="180" viewBox="0 0 175 180" fill="none" xmlns="http://www.w3.org/2000/svg">
<path fill-rule="evenodd" clip-rule="evenodd" d="M130.024 30.3766L97.3359 36.056L75.8072 9.8084C69.667 2.32236 60.0668 -1.26352 50.6228 0.401547L29.5998 4.10811C20.1558 5.77317 12.3029 12.4362 8.99905 21.5873L1.64451 41.9584C-1.6593 51.1095 0.087962 61.3584 6.22813 68.8444L27.5146 94.7967L15.9571 126.528C12.6275 135.669 14.3459 145.923 20.4649 153.427L34.0864 170.132C40.2054 177.635 49.7955 181.249 59.2441 179.612L80.2775 175.966C89.7261 174.329 97.5979 167.689 100.927 158.547L112.444 126.929L145.286 121.222C154.734 119.581 162.603 112.937 165.929 103.795L173.333 83.4419C176.659 74.299 174.936 64.0458 168.814 56.5445L155.186 39.8461C149.063 32.3448 139.472 28.735 130.024 30.3766ZM145.8 96.219L153.203 75.8663C153.869 74.0377 153.524 71.9871 152.3 70.4868L138.671 53.7884C137.447 52.2881 135.529 51.5662 133.639 51.8945L113.235 55.4396L120.755 64.6086C125.919 70.9041 127.976 79.1536 126.534 87.0609C126.257 88.6022 125.847 90.1306 125.301 91.6291L124.066 95.0205L122.642 98.9657L98.1924 103.216L103.929 87.4662L105.191 83.9692C105.294 83.6862 105.372 83.3979 105.426 83.1072C105.7 81.5423 105.291 79.9134 104.273 78.6651L93.8127 65.837L90.3808 61.6527C90.2776 61.5442 90.1706 61.4404 90.06 61.3417L72.7363 40.1533L72.7453 40.1517L69.5337 36.2362L66.7691 32.8548L66.7684 32.8648L59.3266 23.7918C58.0985 22.2946 56.1785 21.5774 54.2897 21.9104L33.2667 25.617C31.3779 25.95 29.8073 27.2826 29.1466 29.1128L21.792 49.4838C21.1313 51.3141 21.4807 53.3638 22.7087 54.861L36.0891 71.1743L40.219 59.8211C40.6902 58.5258 41.2526 57.2806 41.8977 56.0927C45.7874 48.7866 52.7918 43.6098 60.9808 42.1906L68.1139 40.9544L84.1411 60.4946L64.4769 63.9112C62.8851 64.1877 61.5174 65.1742 60.7282 66.5713C60.6259 66.7714 60.5352 66.9792 60.457 67.1938L52.7925 88.2368C52.7771 88.2957 52.7626 88.3547 52.7492 88.4138L43.2811 114.358L43.2793 114.355L41.5785 119.023L41.5791 119.023L36.0833 134.112C35.4174 135.94 35.7611 137.991 36.9849 139.492L50.6063 156.196C51.8301 157.697 53.7482 158.42 55.6379 158.092L76.6712 154.447C78.561 154.12 80.1353 152.791 80.8012 150.963L88.009 131.174L76.1243 133.239C66.6764 134.881 57.0848 131.271 50.9627 123.77L46.2543 118.001L54.8597 94.0592L67.6568 109.661C68.8848 111.158 70.8048 111.876 72.6936 111.543L93.7166 107.836C93.7525 107.83 93.7883 107.823 93.8239 107.816L121.088 103.268L121.083 103.282L122.99 102.95L128.336 102.058L128.332 102.022L141.671 99.7045C143.561 99.3762 145.135 98.0475 145.8 96.219Z" fill="#56C6D0"/>
<path d="M66.1142 78.5013L74.8337 72.099C73.8112 73.7912 73.0652 75.5403 72.5912 77.2776C70.371 77.5723 68.1836 78.0004 66.1142 78.5013Z" fill="#56C6D0"/>
<path d="M60.0328 84.6661C60.9925 84.3143 62.0428 83.9587 63.1616 83.6146C68.4741 89.2872 73.9213 91.9157 78.9526 92.5067C79.165 92.575 79.3824 92.6371 79.6047 92.6931C79.8779 92.7619 80.152 92.7713 80.4135 92.7292C78.9546 94.2623 76.7861 95.6389 73.6988 96.5214L63.9904 92.7755C60.5754 91.4578 59.1323 87.8014 60.0328 84.6661Z" fill="#56C6D0"/>
<path d="M67.7476 82.3815C69.1176 82.0657 70.5352 81.7866 71.9717 81.5636C71.9537 83.1239 72.1746 84.6479 72.6384 86.0492C71.0491 85.1396 69.411 83.9372 67.7476 82.3815Z" fill="#56C6D0"/>
<path d="M76.0745 81.0984C75.856 84.7704 77.3422 87.4252 79.8509 88.4221C80.2862 88.4613 80.7126 88.4809 81.1295 88.4828C81.6991 88.4853 82.2549 88.4552 82.7954 88.3962C83.5968 84.8449 81.8922 81.7965 79.4807 81.022C79.4717 81.0191 79.4628 81.0162 79.454 81.0132C78.3566 80.9892 77.2266 81.0195 76.0745 81.0984Z" fill="#56C6D0"/>
<path d="M86.0963 82.0139C86.8107 83.6085 87.1406 85.422 87.052 87.2622C88.6119 86.579 89.9269 85.6738 90.9311 84.7178C90.9167 84.7053 90.9025 84.6927 90.8883 84.6797C89.5778 83.4787 87.9515 82.6064 86.0963 82.0139Z" fill="#56C6D0"/>
<path d="M91.457 79.9431L89.8235 72.5242C89.2374 69.8631 87.2322 68.0454 84.9111 67.4969C84.7769 67.677 84.6112 67.8377 84.4159 67.9702C80.6298 70.5373 78.2398 73.7616 77.0263 76.8851C82.1198 76.6763 87.36 77.3625 91.457 79.9431Z" fill="#56C6D0"/>
<path d="M85.831 92.0553C84.597 94.6423 82.4459 96.9695 79.3137 98.6879L85.7441 101.169C90.6117 103.047 95.5798 98.6664 94.442 93.4993L93.2681 88.1685C91.3416 89.8656 88.7916 91.2966 85.831 92.0553Z" fill="#56C6D0"/>
</svg>
