<svg width="182" height="181" viewBox="0 0 182 181" fill="none" xmlns="http://www.w3.org/2000/svg">
<path d="M4.66565 27.0403C-1.55158 20.8579 -1.55581 10.8306 4.65653 4.64319C10.8689 -1.5442 20.945 -1.54823 27.1622 4.63412L75.1075 52.309C90.5406 36.9008 102.213 25.2506 102.557 24.9157C103.595 23.9077 109.13 19.6042 111.379 18.3988C113.628 17.1931 116.223 15.8167 120.72 14.6117C125.217 13.4067 128.504 12.7181 130.234 12.7181C131.964 12.7181 143.554 12.7181 149.262 15.3002C169.496 22.191 176.617 39.1743 178.825 46.6343C179.505 48.3971 179.878 50.3115 179.878 52.313V93.6273C179.878 102.374 172.754 109.464 163.964 109.464C155.175 109.464 148.05 102.374 148.05 93.6273V60.7275C147.997 60.3435 147.954 59.9821 147.921 59.6506C147.245 52.8899 145.118 49.7379 144.066 48.1799C143.934 47.9845 143.819 47.8144 143.726 47.6651C140.612 42.673 130.58 42.1566 126.428 45.9498C125.058 47.2022 113.037 59.1634 97.5502 74.6253L177.334 153.96C183.552 160.142 183.556 170.17 177.344 176.357C171.131 182.544 161.055 182.548 154.838 176.366L75.0906 97.0685C58.7282 113.43 42.1644 130.012 31.6315 140.56C29.7035 142.49 27.404 143.819 24.963 144.547C23.4662 145.017 21.8727 145.27 20.2198 145.27C11.6986 145.27 4.75873 138.532 4.4871 130.118C4.46463 129.664 4.46193 129.209 4.47882 128.755V73.8308C4.47882 65.1793 11.5263 58.1658 20.2198 58.1658C28.9133 58.1658 35.9608 65.1793 35.9608 73.8308V91.3975L52.639 74.7433L4.66565 27.0403Z" fill="url(#paint0_linear_329_2738)"/>
<defs>
<linearGradient id="paint0_linear_329_2738" x1="29.6739" y1="31.8242" x2="181.884" y2="181.118" gradientUnits="userSpaceOnUse">
<stop stop-color="#8F00FF"/>
<stop offset="1" stop-color="#ADFF00"/>
</linearGradient>
</defs>
</svg>
