<svg width="191" height="180" viewBox="0 0 191 180" fill="none" xmlns="http://www.w3.org/2000/svg">
<path d="M168.709 138.715C175.184 144.21 182.905 144.959 191 144.585C191 156.199 191 167.813 191 179.552C188.509 179.677 185.894 179.801 183.403 179.926C173.441 180.301 163.727 179.302 154.387 175.68C149.281 173.807 144.549 171.06 140.564 167.313C139.817 166.689 139.443 166.689 138.696 167.063C133.341 169.936 127.986 172.808 122.258 174.806C111.174 178.802 99.717 180.051 88.1354 179.801C65.0967 179.302 45.2958 170.81 28.2348 155.449C15.6569 144.21 7.68673 130.098 3.4526 113.864C0.588327 103.249 -0.657008 92.384 0.33926 81.3944C1.58459 67.2828 6.19233 54.1702 13.9134 42.3064C21.759 30.0679 31.5972 19.7027 44.175 12.2098C55.0095 5.71596 66.7156 2.09438 79.1689 0.720678C88.1354 -0.278378 96.9772 -0.278377 105.819 0.970443C121.261 3.21832 135.209 9.21265 147.662 18.5788C166.716 32.9402 178.298 51.9223 181.909 75.6499C184.898 95.2563 182.407 113.864 173.067 131.472C171.697 133.97 170.203 136.218 168.709 138.715ZM139.319 92.1343C138.322 92.6338 137.575 93.0084 136.952 93.2582C128.36 97.6291 119.393 100.252 109.68 100.127C102.83 100.002 96.1055 98.753 89.5052 96.63C74.8103 91.7596 62.4815 83.2676 51.398 72.7776C49.4055 70.9043 47.4129 68.9062 45.2958 66.7832C44.7977 68.1569 44.2996 69.4058 43.8014 70.6546C40.6881 80.77 40.0654 90.8854 42.307 101.251C44.2996 110.991 48.4092 119.608 55.5076 126.602C64.8476 135.968 76.4292 140.214 89.5052 141.088C99.3434 141.712 108.31 138.715 116.404 133.345C118.895 131.597 121.386 129.724 123.503 127.601C130.85 120.482 135.084 111.741 137.451 101.875C138.198 98.753 138.696 95.5061 139.319 92.1343Z" fill="#510B33"/>
</svg>
