<svg width="235" height="139" viewBox="0 0 235 139" fill="none" xmlns="http://www.w3.org/2000/svg">
<mask id="mask0_329_2739" style="mask-type:alpha" maskUnits="userSpaceOnUse" x="0" y="0" width="235" height="139">
<path d="M220.36 36.2742L197.756 13.67C179.53 -4.55671 149.978 -4.55666 131.751 13.6701L111.149 34.2723H150.752L151.553 33.4715C158.844 26.1808 170.664 26.1808 177.955 33.4715L200.559 56.0757C207.85 63.3664 207.85 75.1869 200.559 82.4776L177.955 105.082C170.709 112.328 158.988 112.372 151.687 105.214H112.083L131.751 124.883C149.978 143.11 179.53 143.11 197.756 124.883L220.36 102.279C238.587 84.0523 238.587 54.5009 220.36 36.2742Z" fill="#56C6D0"/>
<path d="M115.281 78.8766C129.479 83.2452 151.686 105.215 151.686 105.215C151.686 105.215 121.815 113.881 114.348 107.347C106.88 100.813 102.213 89.6112 92.4115 90.0779V76.9111C101.169 76.79 109.214 77.0097 115.281 78.8766Z" fill="#56C6D0"/>
<path d="M114.814 59.2741C129.012 54.9055 150.752 34.2723 150.752 34.2723C150.752 34.2723 122.409 23.6677 111.153 34.2722C106.413 38.7382 105.48 46.2058 91.4781 46.2058V61.9407C100.236 62.0619 108.747 61.141 114.814 59.2741Z" fill="#56C6D0"/>
<path d="M10.6626 43.3333L22.9851 31.0109C37.202 16.794 60.252 16.794 74.4689 31.0109L86.7914 43.3333C88.9638 45.5057 90.8043 47.8844 92.3127 50.4063H61.6077V51.152L57.9677 47.5121C52.8642 42.4086 44.5898 42.4086 39.4863 47.5121L27.1639 59.8346C22.0604 64.9381 22.0604 73.2124 27.1639 78.3159L39.4863 90.6384C44.5898 95.7419 52.8642 95.7419 57.9677 90.6384L61.6077 86.9984V107.347H74.2602C60.0273 121.356 37.1326 121.287 22.9851 107.14L10.6626 94.8171C-3.5542 80.6003 -3.55423 57.5502 10.6626 43.3333Z" fill="#56C6D0"/>
<path d="M75.1427 60.2075C66.2749 57.4071 57.4072 46.6725 57.4072 46.6725C57.4072 46.6725 67.9497 30.7817 81.2101 38.7381C85.8774 41.5385 90.0779 49.0061 103.146 44.3389L97.5455 61.6077C97.5455 61.6077 84.0105 63.0078 75.1427 60.2075Z" fill="#56C6D0"/>
<path d="M76.5434 79.8101C62.5417 83.5439 55.0732 92.8784 49.4728 97.5456C42.6449 103.236 55.5314 107.929 70.9422 109.214C76.5429 109.68 83.077 88.6778 94.7453 90.0781L94.2786 77.0098C94.2786 77.0098 90.5452 76.0763 76.5434 79.8101Z" fill="#56C6D0"/>
</mask>
<g mask="url(#mask0_329_2739)">
<rect width="234.296" height="138.151" fill="url(#paint0_linear_329_2739)"/>
</g>
<defs>
<linearGradient id="paint0_linear_329_2739" x1="21.0026" y1="32.204" x2="210.493" y2="116.214" gradientUnits="userSpaceOnUse">
<stop stop-color="#00F0FF"/>
<stop offset="1" stop-color="#FA00FF"/>
</linearGradient>
</defs>
</svg>
