<svg width="191" height="155" viewBox="0 0 191 155" fill="none" xmlns="http://www.w3.org/2000/svg">
<path d="M88.875 16H74.4375C70.6084 16 66.9362 17.5352 64.2286 20.2679C61.5211 23.0005 60 26.7068 60 30.5714V137.429C60 141.293 61.5211 144.999 64.2286 147.732C66.9362 150.465 70.6084 152 74.4375 152H122.562C126.392 152 130.064 150.465 132.771 147.732C135.479 144.999 137 141.293 137 137.429V30.5714C137 26.7068 135.479 23.0005 132.771 20.2679C130.064 17.5352 126.392 16 122.562 16H108.125M88.875 16H108.125Z" stroke="#19BCBB" stroke-width="5" stroke-linecap="round" stroke-linejoin="round"/>
<path d="M74 55C74 52.2386 76.2386 50 79 50H117C119.761 50 122 52.2386 122 55V74C122 76.7615 119.761 79 117 79H79C76.2386 79 74 76.7615 74 74V55Z" fill="#19BCBB"/>
<path d="M68 129C68 126.239 70.2386 124 73 124H121C123.761 124 126 126.239 126 129V134C126 136.761 123.761 139 121 139H73C70.2386 139 68 136.761 68 134V129Z" fill="#19BCBB"/>
<path d="M68.3 38.222C68.3 37.706 68.42 37.25 68.66 36.854C68.888 36.446 69.206 36.128 69.614 35.9C70.01 35.66 70.466 35.54 70.982 35.54H81.134C81.65 35.54 82.106 35.66 82.502 35.9C82.91 36.128 83.228 36.446 83.456 36.854C83.696 37.25 83.816 37.706 83.816 38.222V38.258C83.816 38.774 83.696 39.236 83.456 39.644C83.228 40.04 82.91 40.358 82.502 40.598C82.106 40.826 81.65 40.94 81.134 40.94H70.982C70.466 40.94 70.01 40.826 69.614 40.598C69.206 40.358 68.888 40.04 68.66 39.644C68.42 39.236 68.3 38.774 68.3 38.258V38.222Z" fill="#19BCBB"/>
<path d="M78.4074 38.222C78.4074 37.706 78.5274 37.25 78.7674 36.854C78.9954 36.446 79.3134 36.128 79.7214 35.9C80.1174 35.66 80.5734 35.54 81.0894 35.54H91.2414C91.7574 35.54 92.2134 35.66 92.6094 35.9C93.0174 36.128 93.3354 36.446 93.5634 36.854C93.8034 37.25 93.9234 37.706 93.9234 38.222V38.258C93.9234 38.774 93.8034 39.236 93.5634 39.644C93.3354 40.04 93.0174 40.358 92.6094 40.598C92.2134 40.826 91.7574 40.94 91.2414 40.94H81.0894C80.5734 40.94 80.1174 40.826 79.7214 40.598C79.3134 40.358 78.9954 40.04 78.7674 39.644C78.5274 39.236 78.4074 38.774 78.4074 38.258V38.222Z" fill="#19BCBB"/>
<path d="M68.3 97.222C68.3 96.706 68.42 96.25 68.66 95.854C68.888 95.446 69.206 95.128 69.614 94.9C70.01 94.66 70.466 94.54 70.982 94.54H81.134C81.65 94.54 82.106 94.66 82.502 94.9C82.91 95.128 83.228 95.446 83.456 95.854C83.696 96.25 83.816 96.706 83.816 97.222V97.258C83.816 97.774 83.696 98.236 83.456 98.644C83.228 99.04 82.91 99.358 82.502 99.598C82.106 99.826 81.65 99.94 81.134 99.94H70.982C70.466 99.94 70.01 99.826 69.614 99.598C69.206 99.358 68.888 99.04 68.66 98.644C68.42 98.236 68.3 97.774 68.3 97.258V97.222Z" fill="#19BCBB"/>
<path d="M78.4074 97.222C78.4074 96.706 78.5274 96.25 78.7674 95.854C78.9954 95.446 79.3134 95.128 79.7214 94.9C80.1174 94.66 80.5734 94.54 81.0894 94.54H91.2414C91.7574 94.54 92.2134 94.66 92.6094 94.9C93.0174 95.128 93.3354 95.446 93.5634 95.854C93.8034 96.25 93.9234 96.706 93.9234 97.222V97.258C93.9234 97.774 93.8034 98.236 93.5634 98.644C93.3354 99.04 93.0174 99.358 92.6094 99.598C92.2134 99.826 91.7574 99.94 91.2414 99.94H81.0894C80.5734 99.94 80.1174 99.826 79.7214 99.598C79.3134 99.358 78.9954 99.04 78.7674 98.644C78.5274 98.236 78.4074 97.774 78.4074 97.258V97.222Z" fill="#19BCBB"/>
<path d="M68.3 108.222C68.3 107.706 68.42 107.25 68.66 106.854C68.888 106.446 69.206 106.128 69.614 105.9C70.01 105.66 70.466 105.54 70.982 105.54H81.134C81.65 105.54 82.106 105.66 82.502 105.9C82.91 106.128 83.228 106.446 83.456 106.854C83.696 107.25 83.816 107.706 83.816 108.222V108.258C83.816 108.774 83.696 109.236 83.456 109.644C83.228 110.04 82.91 110.358 82.502 110.598C82.106 110.826 81.65 110.94 81.134 110.94H70.982C70.466 110.94 70.01 110.826 69.614 110.598C69.206 110.358 68.888 110.04 68.66 109.644C68.42 109.236 68.3 108.774 68.3 108.258V108.222Z" fill="#19BCBB"/>
<path d="M78.4074 108.222C78.4074 107.706 78.5274 107.25 78.7674 106.854C78.9954 106.446 79.3134 106.128 79.7214 105.9C80.1174 105.66 80.5734 105.54 81.0894 105.54H91.2414C91.7574 105.54 92.2134 105.66 92.6094 105.9C93.0174 106.128 93.3354 106.446 93.5634 106.854C93.8034 107.25 93.9234 107.706 93.9234 108.222V108.258C93.9234 108.774 93.8034 109.236 93.5634 109.644C93.3354 110.04 93.0174 110.358 92.6094 110.598C92.2134 110.826 91.7574 110.94 91.2414 110.94H81.0894C80.5734 110.94 80.1174 110.826 79.7214 110.598C79.3134 110.358 78.9954 110.04 78.7674 109.644C78.5274 109.236 78.4074 108.774 78.4074 108.258V108.222Z" fill="#19BCBB"/>
<path d="M88.5148 108.222C88.5148 107.706 88.6348 107.25 88.8748 106.854C89.1028 106.446 89.4208 106.128 89.8288 105.9C90.2248 105.66 90.6808 105.54 91.1968 105.54H101.349C101.865 105.54 102.321 105.66 102.717 105.9C103.125 106.128 103.443 106.446 103.671 106.854C103.911 107.25 104.031 107.706 104.031 108.222V108.258C104.031 108.774 103.911 109.236 103.671 109.644C103.443 110.04 103.125 110.358 102.717 110.598C102.321 110.826 101.865 110.94 101.349 110.94H91.1968C90.6808 110.94 90.2248 110.826 89.8288 110.598C89.4208 110.358 89.1028 110.04 88.8748 109.644C88.6348 109.236 88.5148 108.774 88.5148 108.258V108.222Z" fill="#19BCBB"/>
<path d="M98.6223 108.222C98.6223 107.706 98.7423 107.25 98.9823 106.854C99.2103 106.446 99.5283 106.128 99.9363 105.9C100.332 105.66 100.788 105.54 101.304 105.54H111.456C111.972 105.54 112.428 105.66 112.824 105.9C113.232 106.128 113.55 106.446 113.778 106.854C114.018 107.25 114.138 107.706 114.138 108.222V108.258C114.138 108.774 114.018 109.236 113.778 109.644C113.55 110.04 113.232 110.358 112.824 110.598C112.428 110.826 111.972 110.94 111.456 110.94H101.304C100.788 110.94 100.332 110.826 99.9363 110.598C99.5283 110.358 99.2103 110.04 98.9823 109.644C98.7423 109.236 98.6223 108.774 98.6223 108.258V108.222Z" fill="#19BCBB"/>
<path d="M108.73 108.222C108.73 107.706 108.85 107.25 109.09 106.854C109.318 106.446 109.636 106.128 110.044 105.9C110.44 105.66 110.896 105.54 111.412 105.54H121.564C122.08 105.54 122.536 105.66 122.932 105.9C123.34 106.128 123.658 106.446 123.886 106.854C124.126 107.25 124.246 107.706 124.246 108.222V108.258C124.246 108.774 124.126 109.236 123.886 109.644C123.658 110.04 123.34 110.358 122.932 110.598C122.536 110.826 122.08 110.94 121.564 110.94H111.412C110.896 110.94 110.44 110.826 110.044 110.598C109.636 110.358 109.318 110.04 109.09 109.644C108.85 109.236 108.73 108.774 108.73 108.258V108.222Z" fill="#19BCBB"/>
<path d="M117.3 38.222C117.3 37.706 117.42 37.25 117.66 36.854C117.888 36.446 118.206 36.128 118.614 35.9C119.01 35.66 119.466 35.54 119.982 35.54H125.166C125.682 35.54 126.138 35.66 126.534 35.9C126.942 36.128 127.26 36.446 127.488 36.854C127.728 37.25 127.848 37.706 127.848 38.222V38.258C127.848 38.774 127.728 39.236 127.488 39.644C127.26 40.04 126.942 40.358 126.534 40.598C126.138 40.826 125.682 40.94 125.166 40.94H119.982C119.466 40.94 119.01 40.826 118.614 40.598C118.206 40.358 117.888 40.04 117.66 39.644C117.42 39.236 117.3 38.774 117.3 38.258V38.222Z" fill="#19BCBB"/>
<path d="M34.962 135.556L37.9099 137.143V133.795V122.444V121.227L36.8289 120.668L20.5519 112.247L36.832 103.788L37.9099 103.228V102.014V90.7061V87.3544L34.9602 88.946L3.05026 106.164L2 106.731V107.924V116.619V117.814L3.05209 118.38L34.962 135.556ZM66.4888 77.4318L67.0266 75H64.536H54.4853H52.8815L52.5331 76.5656L36.5118 148.566L35.9701 151H38.464H48.6142H50.2202L50.567 149.432L66.4888 77.4318ZM68.0362 88.944L65.0901 87.3623V90.7061V102.057V103.274L66.1711 103.833L82.4481 112.254L66.168 120.712L65.0901 121.272V122.487V133.795V137.147L68.0398 135.555L99.9497 118.337L101 117.77V116.576V107.839V106.643L99.9461 106.077L68.0362 88.944Z" fill="#474747" stroke="white" stroke-width="4"/>
<path d="M144.601 36.7378C145.108 36.9993 145.561 37.356 145.934 37.789L185.177 81.33C185.177 81.3302 185.177 81.3304 185.177 81.3305C185.573 81.7702 185.878 82.2851 186.072 82.8452C186.266 83.4055 186.345 83.9993 186.304 84.5911C186.263 85.183 186.103 85.7601 185.833 86.2884C185.564 86.8166 185.19 87.2846 184.737 87.6654L184.736 87.6656L170.207 99.8535L170.206 99.8537C169.752 100.235 169.226 100.521 168.66 100.695C168.094 100.869 167.498 100.929 166.909 100.871C166.32 100.813 165.747 100.638 165.226 100.356C164.705 100.075 164.245 99.6914 163.874 99.2288L127.184 53.5053C126.817 53.0682 126.537 52.5639 126.362 52.0198C126.182 51.4644 126.115 50.879 126.164 50.2971C126.213 49.7153 126.377 49.1493 126.647 48.6317C126.765 48.4049 126.902 48.1895 127.056 47.9875C126.982 47.9874 126.908 47.985 126.834 47.9804C125.913 47.9227 125.045 47.517 124.411 46.8423L124.407 46.8372C124.122 46.5318 123.82 46.2072 123.507 45.8715C122.572 44.8672 121.546 43.7647 120.619 42.788C120.002 42.1368 119.439 41.5529 118.986 41.0994C118.759 40.8723 118.568 40.6863 118.417 40.5447C118.341 40.4741 118.281 40.4198 118.235 40.3799C118.195 40.3457 118.176 40.3308 118.174 40.329C117.944 40.1607 117.728 40.0182 117.53 39.8977C117.63 40.4503 117.657 41.0151 117.608 41.5772C117.536 42.4131 117.297 43.2259 116.907 43.9686C116.516 44.7109 115.982 45.368 115.336 45.9027C115.336 45.903 115.335 45.9033 115.335 45.9036L105.678 53.9256C104.942 54.5368 103.996 54.8314 103.046 54.7504C102.096 54.6694 101.214 54.219 100.592 53.4924C100.592 53.4923 100.592 53.4921 100.592 53.492L86.7299 37.2879C86.7282 37.286 86.7265 37.284 86.7249 37.2821C86.4143 36.9221 86.1774 36.504 86.0284 36.0514C85.8787 35.5963 85.821 35.1158 85.8592 34.6379C85.8974 34.1599 86.0306 33.6946 86.2508 33.2691C86.4709 32.8436 86.7733 32.4667 87.1398 32.1597L88.4241 33.6925L87.147 32.1537L96.7911 24.1504C96.7921 24.1496 96.7931 24.1488 96.794 24.148C97.4376 23.6125 98.1808 23.2095 98.9806 22.9613C99.78 22.7132 100.621 22.6246 101.454 22.7001C101.653 22.7175 101.851 22.7439 102.046 22.7792C102.286 21.6465 102.773 20.3789 103.77 19.2153L103.783 19.2011L103.795 19.1872C105.558 17.2069 107.464 15.3578 109.5 13.6548C109.527 13.6309 109.555 13.6076 109.583 13.5851C112.663 11.0543 119.182 6.45153 128.78 3.48954C132.562 2.31517 136.54 1.8867 140.489 2.22791C147.442 2.82118 152.509 6.36568 154.524 8.54032C156.529 10.6927 157.73 13.465 157.923 16.3938L158.01 17.7218L156.819 18.3152L153.406 20.0155L152.661 20.3866L151.873 20.1198L152.514 18.2254L151.873 20.1198L151.873 20.1198L151.873 20.1197L151.872 20.1195L151.868 20.1183L151.855 20.1138L151.803 20.0961L151.606 20.0298C151.439 19.9733 151.204 19.894 150.933 19.8029C150.398 19.623 149.726 19.398 149.16 19.2116C148.148 18.9081 147.097 18.7538 146.04 18.7537L146.034 18.7537C144.924 18.75 143.624 18.9682 142.408 19.3151C141.179 19.6657 140.199 20.1008 139.681 20.4382C137.785 21.7055 136.655 23.5237 136.18 26.7959C136.201 26.8781 136.237 27.0013 136.297 27.1699C136.445 27.591 136.691 28.1702 137.039 28.8814C137.732 30.2972 138.768 32.1157 140.051 34.0365C140.544 34.7756 140.749 35.6713 140.622 36.5531C140.615 36.6012 140.607 36.649 140.598 36.6966C140.798 36.599 141.004 36.5163 141.217 36.4493C141.772 36.274 142.357 36.2094 142.937 36.2589C143.517 36.3083 144.083 36.471 144.601 36.7378ZM128.177 47.8125C128.177 47.8125 128.176 47.8126 128.176 47.8126L129.008 48.8077L128.177 47.8125ZM136.159 26.6943C136.159 26.6942 136.159 26.7004 136.162 26.7134C136.16 26.701 136.159 26.6945 136.159 26.6943Z" fill="#474747" stroke="white" stroke-width="4"/>
</svg>
