<svg width="161" height="111" viewBox="0 0 161 111" fill="none" xmlns="http://www.w3.org/2000/svg">
<path d="M145.001 2.20289C137.887 2.20289 131.788 6.94887 129.756 13.3901H98.5876V4.74598C98.5876 2.03372 96.3851 0 93.8446 0H67.0802C64.3696 0 62.3371 2.20385 62.3371 4.74598V13.3901H31.1684C29.136 6.94887 23.0377 2.20289 15.9234 2.20289C7.11459 2.20289 0 9.32185 0 18.1361C0 26.9504 7.11459 34.0694 15.9234 34.0694C23.038 34.0694 29.1363 29.3234 31.1684 22.8821H50.4794C37.2666 32.2049 28.4578 47.7985 28.4578 65.2569C28.4578 67.9692 30.6603 70.0029 33.2008 70.0029C35.9114 70.0029 37.9439 67.7991 37.9439 65.2569C37.9439 48.4762 47.7688 33.8996 62.1668 26.9501V31.5269C62.1668 34.2391 64.3693 36.2729 66.9099 36.2729H93.8434C96.554 36.2729 98.5864 34.069 98.5864 31.5269V26.9501C112.987 34.0691 122.812 48.4768 122.812 65.4264C122.812 68.1387 125.014 70.1724 127.555 70.1724C130.265 70.1724 132.298 67.9686 132.298 65.4264C132.298 47.968 123.659 32.3741 110.276 23.0516H129.587C131.62 29.4929 137.718 34.2389 144.832 34.2389C153.641 34.2389 160.756 27.1199 160.756 18.3056C160.926 9.49136 153.811 2.20228 145.002 2.20228L145.001 2.20289ZM15.9222 24.5774C12.3643 24.5774 9.48492 21.6961 9.48492 18.1361C9.48492 14.5762 12.3645 11.6948 15.9222 11.6948C19.48 11.6948 22.3595 14.5762 22.3595 18.1361C22.3595 21.6961 19.4788 24.5774 15.9222 24.5774ZM89.1009 26.9503H71.8235V9.4919H89.1021L89.1009 26.9503ZM145.001 24.5774C141.443 24.5774 138.564 21.6961 138.564 18.1361C138.564 14.5762 141.444 11.6948 145.001 11.6948C148.559 11.6948 151.439 14.5762 151.439 18.1361C151.439 21.6961 148.559 24.5774 145.001 24.5774Z" fill="#19BCBB"/>
<path d="M84.7974 46.6858C83.9555 45.5005 82.4408 44.6552 80.926 44.6552C79.4113 44.6552 77.8966 45.3316 77.0546 46.6858L57.0225 75.1192C56.3497 76.1346 56.0127 77.4887 56.1806 78.6741L61.0617 107.108C61.3987 109.477 63.4184 111 65.7751 111H96.2436C98.6002 111 100.452 109.307 100.957 107.108L105.838 78.6741C106.006 77.4888 105.838 76.1358 104.996 75.1192L84.7974 46.6858ZM92.2044 101.523H69.6479L65.7765 79.0126L76.0449 64.4571V79.3514C74.5302 80.7055 73.6883 82.5675 73.6883 84.5978C73.6883 88.4903 76.887 91.7064 80.7584 91.7064C84.6297 91.7064 87.8284 88.4903 87.8284 84.5978C87.8284 82.5672 86.9865 80.7054 85.4718 79.3514V64.4571L95.7402 79.0126L92.2044 101.523Z" fill="#474747"/>
</svg>
