<svg width="792" height="766" viewBox="0 0 792 766" fill="none" xmlns="http://www.w3.org/2000/svg">
<path d="M785.174 240.967L368.718 0.889159C366.642 -0.296413 364.269 -0.296413 361.896 1.18555L354.184 5.63144L361.303 15.116L363.972 18.0799V231.186C363.972 235.336 366.048 239.189 369.608 241.264L768.564 471.265L769.157 474.229L779.835 489.048L788.734 484.01C790.217 483.12 791.107 481.638 791.107 479.564V251.341C791.107 247.192 788.734 243.042 785.174 240.967Z" fill="white"/>
<path d="M776.572 246.006L359.226 5.33534C355.667 3.26059 351.514 5.92813 351.514 9.78123V238.3C351.514 242.45 353.59 246.303 357.15 248.377L774.496 489.048C778.055 491.123 782.505 488.456 782.505 484.603V256.38C782.505 252.231 780.132 248.377 776.572 246.006Z" fill="#BBCEE1"/>
<path d="M782.504 484.602V256.38C782.504 254.898 782.208 253.712 781.614 252.23L790.513 247.191C790.81 248.377 791.106 249.859 791.106 251.044V479.267C791.106 481.342 790.216 482.824 788.733 483.713L780.131 488.752C781.318 488.159 782.504 486.677 782.504 484.602Z" fill="#A7BCCE"/>
<path d="M361.895 22.822L510.502 108.776V218.145L361.895 131.598V22.822Z" fill="#F4F7FF"/>
<path d="M365.751 125.671V126.856L505.757 208.364V207.179L365.751 125.671Z" fill="#BBCEE1"/>
<path d="M365.751 112.926V114.111L505.757 195.619V194.434L365.751 112.926Z" fill="#BBCEE1"/>
<path d="M365.751 100.18V101.366L505.757 182.874V181.688L365.751 100.18Z" fill="#BBCEE1"/>
<path d="M365.751 87.4358V88.6214L505.757 170.129V168.944L365.751 87.4358Z" fill="#BBCEE1"/>
<path d="M365.751 74.6909V75.8765L505.757 157.385V156.199L365.751 74.6909Z" fill="#BBCEE1"/>
<path d="M365.751 61.6494V63.1314L505.757 144.639V143.157L365.751 61.6494Z" fill="#BBCEE1"/>
<path d="M365.751 48.9048V50.0904L505.757 131.598V130.413L365.751 48.9048Z" fill="#BBCEE1"/>
<path d="M365.751 37.0488V125.67L366.641 126.263V37.6416L365.751 37.0488Z" fill="#BBCEE1"/>
<path d="M379.099 44.7554V133.377L380.286 134.266V45.3482L379.099 44.7554Z" fill="#BBCEE1"/>
<path d="M392.744 52.7578V141.379L393.634 141.972V53.3506L392.744 52.7578Z" fill="#BBCEE1"/>
<path d="M406.092 60.4644V149.086L407.278 149.975V61.0571L406.092 60.4644Z" fill="#BBCEE1"/>
<path d="M419.439 68.4666V157.088L420.626 157.681V69.0593L419.439 68.4666Z" fill="#BBCEE1"/>
<path d="M433.084 76.1726V165.09L434.271 165.683V76.7654L433.084 76.1726Z" fill="#BBCEE1"/>
<path d="M446.432 84.1753V172.797L447.619 173.39V84.7681L446.432 84.1753Z" fill="#BBCEE1"/>
<path d="M460.077 91.8816V180.799L460.967 181.392V92.7708L460.077 91.8816Z" fill="#BBCEE1"/>
<path d="M473.425 99.8843V188.506L474.611 189.099V100.477L473.425 99.8843Z" fill="#BBCEE1"/>
<path d="M487.069 107.59V196.508L487.959 197.101V108.48L487.069 107.59Z" fill="#BBCEE1"/>
<path d="M500.417 115.593V204.214L501.604 204.807V116.186L500.417 115.593Z" fill="#BBCEE1"/>
<path d="M481.137 173.39L487.959 177.836V101.366L466.306 122.114L460.077 111.147L447.025 122.707L424.779 101.366L406.685 112.333L399.269 99.8843L383.252 118.557L366.641 126.263L487.663 196.508L481.137 173.39Z" fill="#ED5561"/>
<path d="M473.721 144.64L460.67 161.534L447.619 116.186L447.322 115.593L434.271 136.637L420.033 138.712L396.6 117.075L387.701 126.56L378.803 128.338L366.641 126.263L487.959 196.508V139.897V138.712L473.721 144.64Z" fill="url(#paint0_linear_1381_9117)"/>
<path d="M361.895 144.936L548.173 252.526V343.519L361.895 235.928V144.936Z" fill="#F4F7FF"/>
<path d="M367.531 191.47V232.372L381.472 240.375V199.176L367.531 191.47Z" fill="url(#paint1_linear_1381_9117)"/>
<path d="M385.328 209.846V242.746L399.269 250.748V217.849L385.328 209.846Z" fill="#F9AE40"/>
<path d="M403.422 222.294V253.119L417.067 261.122V230.297L403.422 222.294Z" fill="url(#paint2_linear_1381_9117)"/>
<path d="M421.219 227.333V263.493L435.161 271.496V235.336L421.219 227.333Z" fill="#F9AE40"/>
<path d="M439.017 229.704V273.867L452.958 281.869V237.411L439.017 229.704Z" fill="url(#paint3_linear_1381_9117)"/>
<path d="M457.111 248.081V284.241L470.755 292.243V256.083L457.111 248.081Z" fill="#F9AE40"/>
<path d="M474.908 249.859V294.614L488.553 302.617V257.862L474.908 249.859Z" fill="url(#paint4_linear_1381_9117)"/>
<path d="M492.705 245.413V304.988L506.646 312.991V253.416L492.705 245.413Z" fill="#F9AE40"/>
<path d="M510.502 263.493V315.362L524.443 323.364V271.199L510.502 263.493Z" fill="url(#paint5_linear_1381_9117)"/>
<path d="M528.596 249.562V325.735L542.241 333.738V257.268L528.596 249.562Z" fill="#F9AE40"/>
<path d="M396.007 171.018L367.531 154.42V155.902L396.007 172.5V171.018Z" fill="#BBCEE1"/>
<path d="M411.431 182.578L367.531 157.384V158.866L411.431 184.06V182.578Z" fill="#BBCEE1"/>
<path d="M411.431 179.911L398.083 172.204V173.686L411.431 181.393V179.911Z" fill="#BBCEE1"/>
<path d="M396.007 176.65L367.531 160.052V161.534L396.007 178.132V176.65Z" fill="#BBCEE1"/>
<path d="M411.431 188.209L367.531 163.016V164.498L411.431 189.691V188.209Z" fill="#BBCEE1"/>
<path d="M411.431 185.542L398.083 177.539V179.021L411.431 186.727V185.542Z" fill="#BBCEE1"/>
<path d="M396.007 185.838L367.531 169.24V170.722L396.007 187.32V185.838Z" fill="#BBCEE1"/>
<path d="M411.431 197.398L367.531 172.204V173.686L411.431 198.88V197.398Z" fill="#BBCEE1"/>
<path d="M411.431 194.434L398.083 186.728V188.21L411.431 195.916V194.434Z" fill="#BBCEE1"/>
<path d="M396.007 191.469L367.531 174.871V176.353L396.007 192.655V191.469Z" fill="#BBCEE1"/>
<path d="M411.431 203.029L367.531 177.539V179.021L411.431 204.511V203.029Z" fill="#BBCEE1"/>
<path d="M411.431 200.065L398.083 192.359V193.841L411.431 201.547V200.065Z" fill="#BBCEE1"/>
<path d="M444.356 198.879L415.88 182.281V183.763L444.356 200.361V198.879Z" fill="#BBCEE1"/>
<path d="M459.483 210.439L415.88 185.245V186.431L459.483 211.921V210.439Z" fill="#BBCEE1"/>
<path d="M459.483 207.475L446.135 199.769V201.251L459.483 208.957V207.475Z" fill="#BBCEE1"/>
<path d="M444.356 204.215L415.88 187.913V189.395L444.356 205.697V204.215Z" fill="#BBCEE1"/>
<path d="M459.483 216.07L415.88 190.58V192.062L459.483 217.552V216.07Z" fill="#BBCEE1"/>
<path d="M459.483 213.107L446.135 205.4V206.882L459.483 214.589V213.107Z" fill="#BBCEE1"/>
<path d="M444.356 213.403L415.88 197.102V198.584L444.356 214.885V213.403Z" fill="#BBCEE1"/>
<path d="M459.483 225.259L415.88 199.769V201.251L459.483 226.444V225.259Z" fill="#BBCEE1"/>
<path d="M459.483 222.295L446.135 214.589V216.071L459.483 223.777V222.295Z" fill="#BBCEE1"/>
<path d="M444.356 219.035L415.88 202.437V203.918L444.356 220.516V219.035Z" fill="#BBCEE1"/>
<path d="M459.483 230.594L415.88 205.4V206.882L459.483 232.076V230.594Z" fill="#BBCEE1"/>
<path d="M459.483 227.926L446.135 220.22V221.702L459.483 229.408V227.926Z" fill="#BBCEE1"/>
<path d="M326.301 330.774C326.598 322.772 324.225 248.081 323.928 247.488L304.054 250.156L300.495 297.282L310.58 338.184C310.58 338.184 307.317 356.561 311.47 371.973C311.47 371.973 315.029 390.053 316.512 399.834C328.674 403.391 326.894 402.205 326.894 402.205C326.894 402.205 326.004 338.777 326.301 330.774Z" fill="#F4B6A2"/>
<path d="M315.919 153.235C315.919 153.235 316.513 188.506 318.292 201.844C318.292 201.844 312.953 200.658 312.36 195.619C311.767 190.284 304.944 166.869 304.944 166.869V159.756L313.546 151.16L315.919 153.235Z" fill="#ED5561"/>
<path d="M303.758 127.449L311.173 155.014L320.369 154.421C330.454 131.006 303.758 127.449 303.758 127.449Z" fill="#ED5561"/>
<path d="M282.698 248.674C282.698 248.674 274.689 272.385 273.502 282.759C272.613 291.354 278.545 345.002 278.248 345.594C277.952 346.483 280.325 420.582 280.325 420.582C280.325 420.582 278.545 421.767 289.817 419.396C289.817 419.396 301.385 315.362 302.868 301.728C304.648 288.094 308.504 249.267 308.504 249.267L282.698 248.674Z" fill="#F4C5A2"/>
<path d="M279.435 247.488C279.435 247.488 264.604 283.352 275.282 328.7C275.282 328.7 306.131 334.924 330.157 322.179L324.818 249.563L279.435 247.488Z" fill="#07304B"/>
<path d="M305.241 198.879L293.969 154.124L283.291 136.34C283.291 136.34 262.824 191.469 278.248 230.593C278.248 230.593 285.367 229.111 296.935 224.665C308.207 220.22 305.241 198.879 305.241 198.879Z" fill="#ED5561"/>
<path d="M386.515 176.947C386.515 176.947 389.481 174.575 390.371 173.983C391.557 173.39 395.117 170.426 397.193 169.833C399.27 169.24 396.6 172.204 396.007 173.093C395.414 173.983 398.083 172.797 399.863 172.501C401.939 171.908 403.422 171.908 405.795 172.797C407.872 173.39 406.389 181.392 402.829 181.096C399.27 180.8 399.27 180.8 395.71 182.282C391.557 184.06 388.295 184.06 386.811 184.653L386.515 176.947Z" fill="#F4C5A2"/>
<path d="M387.701 175.168L350.031 181.985L314.436 169.833L315.326 190.284L349.437 196.212L389.778 186.431C390.074 185.838 390.964 178.428 387.701 175.168Z" fill="#0F4463"/>
<path d="M287.444 168.055L306.131 168.351L314.733 169.833C314.733 169.833 322.148 183.467 324.225 198.583C326.301 213.699 324.818 249.859 324.818 249.859C310.877 259.344 281.215 248.97 281.215 248.97C283.291 235.336 289.223 230.89 286.257 218.441C280.918 197.101 275.282 173.686 275.282 173.686L287.444 168.055Z" fill="#D4D6D8"/>
<path d="M288.63 162.127L307.91 165.091L307.02 172.501C306.724 175.465 303.461 176.947 300.791 175.465L287.443 167.758L288.63 162.127Z" fill="#F4C5A2"/>
<path d="M285.367 149.678C285.367 160.052 293.079 168.648 302.571 168.648C312.063 168.648 317.699 160.052 317.699 149.678C317.699 139.305 312.063 130.709 302.571 130.709C293.079 130.709 285.367 139.008 285.367 149.678Z" fill="#FED4BD"/>
<path d="M296.935 148.493C296.935 148.493 299.012 155.903 295.452 158.57C291.003 161.83 294.266 160.941 292.783 163.016C291.3 165.387 287.147 163.609 284.477 158.57C281.808 153.235 279.138 141.379 283.291 135.748C287.74 129.524 296.639 127.152 302.275 127.745C309.394 128.338 318.292 133.97 319.182 139.008C320.962 147.604 296.935 148.493 296.935 148.493Z" fill="#ED5561"/>
<path d="M340.242 419.396C337.869 418.803 334.606 417.617 331.936 415.246C327.784 411.393 326.597 402.501 326.597 402.501L316.216 400.13C307.613 414.95 319.182 411.986 323.928 418.803C326.894 422.952 333.42 425.324 338.165 425.62C339.945 425.62 341.132 425.027 341.725 423.842C342.911 422.063 342.022 419.988 340.242 419.396Z" fill="#F4B6A2"/>
<path d="M319.182 179.911L317.996 217.256C317.996 217.256 322.445 213.996 328.674 204.808C335.2 195.916 319.182 179.911 319.182 179.911Z" fill="#0B3B56"/>
<path d="M267.57 444.589C266.087 443.107 267.273 440.44 268.756 438.958C270.239 437.476 271.129 437.18 272.612 435.401C276.172 431.548 280.324 420.878 280.324 420.878L289.816 419.692C292.189 437.18 284.774 435.994 280.918 442.811C278.545 446.96 276.468 446.664 272.612 446.961C271.129 446.961 268.756 445.775 267.57 444.589Z" fill="#F4C5A2"/>
<path d="M295.452 176.946C293.079 175.761 290.113 173.983 290.113 173.983L286.553 168.351C280.324 171.019 272.019 174.872 272.019 174.872L275.282 186.431C278.545 191.47 279.138 216.367 279.138 216.367C279.731 223.184 275.282 252.23 275.282 252.23L299.308 259.344C299.308 259.344 302.571 223.184 300.791 205.993C299.901 196.508 297.528 184.949 295.452 176.946Z" fill="#0B3B56"/>
<path d="M265.79 264.086C265.79 264.086 267.867 267.939 268.46 269.421C269.053 270.903 271.723 275.942 272.019 278.313C272.316 280.684 269.646 276.831 268.757 276.238C267.867 275.349 266.087 275.942 266.384 278.609C266.68 280.98 268.46 286.019 269.053 288.983C269.646 291.947 261.044 288.687 258.968 284.537C256.892 280.388 256.002 276.534 256.299 272.089C256.595 267.939 258.375 264.975 258.375 262.9L265.79 264.086Z" fill="#F4C5A2"/>
<path d="M275.282 173.39C267.57 174.872 264.307 184.356 264.307 184.356C264.307 184.356 257.188 216.663 256.892 218.145C256.595 219.627 255.705 267.346 255.705 267.346C261.638 270.31 269.646 267.05 269.646 267.05L270.536 222.591C270.536 222.591 273.502 210.143 279.435 192.655C285.071 175.465 275.282 173.39 275.282 173.39Z" fill="#0F4463"/>
<path d="M327.487 254.898L326.301 208.068L320.665 184.949L320.368 180.8L315.919 170.13C315.919 170.13 312.36 168.351 307.614 168.648L307.021 172.797C307.021 172.797 311.173 184.653 313.25 196.212C315.326 207.772 315.029 258.751 315.029 258.751C315.029 258.751 321.555 256.973 327.487 254.898Z" fill="#0B3B56"/>
<path d="M307.614 170.426L287.443 168.055L289.816 173.39L301.088 184.06L305.834 185.245L308.207 181.689L307.614 170.426Z" fill="#F4C5A2"/>
<path d="M287.444 168.055C286.85 167.758 285.664 168.648 285.664 168.648L297.232 191.47L305.834 185.246L287.444 168.055Z" fill="#E6E7E8"/>
<path d="M308.8 168.351H307.317L307.021 171.019L305.834 185.245H312.657L308.8 168.351Z" fill="#E6E7E8"/>
<path d="M301.088 144.047L288.333 155.31C282.994 168.648 282.994 206.586 282.994 206.586C286.85 210.439 296.342 211.921 296.342 211.921C295.156 189.395 301.088 144.047 301.088 144.047Z" fill="#ED5561"/>
<path d="M341.132 419.692C339.649 419.396 336.979 418.507 334.903 417.321C326.301 421.471 314.733 404.28 314.733 403.984C310.58 414.357 318.589 414.061 322.742 419.989C325.708 424.138 333.717 425.028 338.166 425.324C340.836 425.62 342.022 423.546 342.615 422.064C342.912 421.174 342.319 419.989 341.132 419.692Z" fill="#0F4463"/>
<path d="M314.436 403.984C314.436 403.984 312.063 407.244 312.36 410.208C312.657 413.468 313.843 420.878 313.25 424.138C313.25 424.138 313.546 424.731 315.623 424.731C315.623 424.731 315.919 413.468 317.699 412.579L314.436 403.984Z" fill="#0F4463"/>
<path d="M268.756 438.958C267.273 440.44 264.9 444.886 266.383 446.664C267.57 447.85 269.053 449.035 270.536 448.739C274.392 448.442 278.545 446.96 280.918 442.811C284.477 436.587 290.706 436.883 290.113 423.545C286.553 427.991 285.367 432.734 280.621 436.883C276.172 440.736 272.019 435.994 272.019 435.994C270.239 437.476 270.239 437.476 268.756 438.958Z" fill="#0F4463"/>
<path d="M290.113 423.545C290.113 423.545 292.19 430.066 290.113 440.44C290.113 440.44 289.223 441.625 288.037 441.033L287.147 433.919" fill="#0F4463"/>
<path d="M665.635 477.489L752.546 527.579V631.317L665.635 581.226V477.489Z" fill="#BBCEE1"/>
<path d="M752.546 527.579L759.071 523.726V627.464L752.546 631.317V527.579Z" fill="#A7BCCE"/>
<path d="M665.635 477.489L672.161 473.636L759.071 523.726L752.546 527.579L665.635 477.489Z" fill="white"/>
<path d="M673.052 490.53L745.427 532.025L745.131 618.572L673.052 576.781V490.53Z" fill="#F4F7FF"/>
<path d="M678.39 549.216V572.631L691.442 580.041V556.626L678.39 549.216Z" fill="#F9AE40"/>
<path d="M671.568 566.703V569.074L675.721 571.446V569.074L671.568 566.703Z" fill="#BBCEE1"/>
<path d="M671.568 558.108V560.183L675.721 562.554V560.479L671.568 558.108Z" fill="#BBCEE1"/>
<path d="M671.568 549.216V551.587L675.721 553.958V551.587L671.568 549.216Z" fill="#BBCEE1"/>
<path d="M671.568 540.621V542.992L675.721 545.363V542.992L671.568 540.621Z" fill="#BBCEE1"/>
<path d="M671.568 532.025V534.1L675.721 536.471V534.396L671.568 532.025Z" fill="#BBCEE1"/>
<path d="M671.568 523.133V525.504L675.721 527.876V525.504L671.568 523.133Z" fill="#BBCEE1"/>
<path d="M671.568 514.538V516.909L675.721 519.28V516.909L671.568 514.538Z" fill="#BBCEE1"/>
<path d="M671.568 505.943V508.017L675.721 510.685V508.314L671.568 505.943Z" fill="#BBCEE1"/>
<path d="M694.408 539.139V582.116L707.459 589.526V546.549L694.408 539.139Z" fill="#F9AE40"/>
<path d="M710.722 554.255V591.304L723.773 599.01V561.665L710.722 554.255Z" fill="#F9AE40"/>
<path d="M727.036 541.214V600.788L740.088 608.495V548.623L727.036 541.214Z" fill="#F9AE40"/>
<path d="M212.992 149.382L91.6736 218.738V363.674L212.992 293.429V149.382Z" fill="#BBCEE1"/>
<path d="M91.6735 218.738L82.7749 213.403V358.043L91.6735 363.675V218.738Z" fill="#A7BCCE"/>
<path d="M212.992 149.382L203.796 144.047L82.7749 213.403L91.6735 218.738L212.992 149.382Z" fill="white"/>
<path d="M202.61 167.462L102.055 225.259V345.298L202.61 287.205V167.462Z" fill="#F4F7FF"/>
<path d="M195.491 203.918V281.573L177.101 292.244V214.589L195.491 203.918Z" fill="#C64453"/>
<path d="M204.686 273.274V276.535L198.754 279.795V276.535L204.686 273.274Z" fill="#BBCEE1"/>
<path d="M204.686 261.122V264.383L198.754 267.643V264.383L204.686 261.122Z" fill="#BBCEE1"/>
<path d="M204.686 249.267V252.231L198.754 255.491V252.527L204.686 249.267Z" fill="#BBCEE1"/>
<path d="M204.686 237.114V240.078L198.754 243.635V240.375L204.686 237.114Z" fill="#BBCEE1"/>
<path d="M204.686 224.963V228.223L198.754 231.483V228.223L204.686 224.963Z" fill="#BBCEE1"/>
<path d="M204.686 212.811V216.071L198.754 219.331V216.071L204.686 212.811Z" fill="#BBCEE1"/>
<path d="M204.686 200.658V203.919L198.754 207.179V203.919L204.686 200.658Z" fill="#BBCEE1"/>
<path d="M204.686 188.802V191.766L198.754 195.027V192.063L204.686 188.802Z" fill="#BBCEE1"/>
<path d="M172.651 234.743V294.615L154.557 305.285V245.414L172.651 234.743Z" fill="url(#paint6_linear_1381_9117)"/>
<path d="M150.108 256.083V307.656L132.014 318.326V266.457L150.108 256.083Z" fill="#C64453"/>
<path d="M127.565 294.911V320.697L109.471 331.367V305.285L127.565 294.911Z" fill="url(#paint7_linear_1381_9117)"/>
<path d="M212.992 60.7605L91.6736 130.413V199.176L212.992 129.227V60.7605Z" fill="#BBCEE1"/>
<path d="M91.6735 130.413L82.7749 125.078V193.841L91.6735 199.176V130.413Z" fill="#A7BCCE"/>
<path d="M212.992 60.7606L203.796 55.4255L82.7749 125.078L91.6735 130.413L212.992 60.7606Z" fill="white"/>
<path d="M202.61 78.8403L102.055 136.637V181.096L202.61 123.003V78.8403Z" fill="url(#paint8_linear_1381_9117)"/>
<path d="M588.217 329.885L560.038 313.583V355.968L588.217 372.269V329.885Z" fill="#F9C32A"/>
<path d="M566.861 309.731L560.038 313.584L588.217 329.885L595.04 326.032L566.861 309.731Z" fill="#F9DC32"/>
<path d="M595.04 326.032L588.217 329.885V372.269L595.04 368.12V326.032Z" fill="#EF9D26"/>
<path d="M547.284 128.042C544.317 126.263 541.351 125.374 538.682 125.374C532.453 125.374 528.003 130.413 528.003 139.008C528.003 151.16 536.605 165.98 546.987 172.204C549.953 173.983 552.919 174.872 555.589 174.872C561.818 174.872 566.267 169.833 566.267 161.238C566.564 149.086 557.962 134.266 547.284 128.042ZM555.886 169.537C554.106 169.537 552.029 168.944 549.953 167.462C541.054 162.127 533.342 149.086 533.342 138.712C533.342 136.044 533.936 130.117 538.978 130.117C540.758 130.117 542.834 130.709 544.911 132.191C553.809 137.526 561.521 150.568 561.521 160.941C561.521 163.609 560.928 169.537 555.886 169.537Z" fill="#F4F7FF"/>
<path d="M547.284 128.042C546.097 127.449 544.911 126.856 543.724 126.56V132.191C544.021 132.488 544.317 132.488 544.614 132.784C550.25 136.044 555.292 142.269 558.259 148.789L563.598 148.196C560.335 139.897 554.402 132.191 547.284 128.042Z" fill="#F9AE40"/>
<path d="M592.963 154.421C589.997 152.642 587.031 151.753 584.361 151.753C578.132 151.753 573.683 156.792 573.683 165.387C573.683 177.539 582.285 192.359 592.667 198.583C595.633 200.362 598.599 201.251 601.269 201.251C607.498 201.251 611.947 196.212 611.947 187.617C612.244 175.168 603.642 160.349 592.963 154.421ZM601.565 195.916C599.786 195.916 597.709 195.323 595.633 193.841C586.734 188.506 579.022 175.465 579.022 165.091C579.022 162.423 579.615 156.495 584.658 156.495C586.438 156.495 588.514 157.088 590.59 158.57C599.489 163.905 607.201 176.947 607.201 187.32C606.904 189.988 606.608 195.916 601.565 195.916Z" fill="#F4F7FF"/>
<path d="M609.277 174.279C609.277 173.982 608.981 173.982 608.981 173.686C608.684 173.093 608.388 172.204 608.091 171.611C607.794 171.315 607.794 170.722 607.498 170.426C607.201 169.833 606.904 169.24 606.608 168.647C606.311 168.055 606.015 167.758 605.718 167.165C605.421 166.573 605.125 166.276 604.828 165.683C604.531 165.091 604.235 164.498 603.642 164.201C603.345 163.905 603.345 163.609 603.048 163.312C600.082 159.459 596.523 156.199 592.963 154.124C591.777 153.531 590.59 152.938 589.404 152.642V158.274C589.7 158.57 589.997 158.57 590.294 158.866C593.26 160.645 596.226 163.312 598.599 166.573C598.896 167.165 599.489 167.462 599.786 168.055C600.082 168.351 600.379 168.647 600.379 168.944C600.675 169.536 600.972 169.833 601.269 170.426C601.565 170.722 601.862 171.315 601.862 171.611C602.158 171.908 602.455 172.5 602.455 172.797C602.752 173.093 602.752 173.686 603.048 173.982C605.125 178.428 606.311 182.874 606.311 187.024C606.311 189.691 605.718 195.619 600.675 195.619C598.896 195.619 596.819 195.026 594.743 193.544C590.59 191.173 586.438 186.727 583.471 181.985C582.285 183.763 581.395 185.245 580.505 186.727C583.768 191.47 587.624 195.323 592.073 197.694C595.04 199.472 598.006 200.361 600.675 200.361C606.904 200.361 611.354 195.323 611.354 186.727C612.244 183.171 611.057 178.725 609.277 174.279Z" fill="#F9AE40"/>
<path d="M638.939 180.8C635.973 179.022 633.007 178.132 630.337 178.132C624.108 178.132 619.659 183.171 619.659 191.766C619.659 203.919 628.261 218.738 638.643 224.962C641.609 226.741 644.575 227.63 647.245 227.63C653.474 227.63 657.923 222.591 657.923 213.996C658.22 201.844 649.618 187.024 638.939 180.8ZM647.541 222.295C645.762 222.295 643.685 221.702 641.609 220.22C632.71 214.885 624.998 201.844 624.998 191.47C624.998 188.802 625.591 182.875 630.634 182.875C632.414 182.875 634.49 183.467 636.566 184.949C645.465 190.284 653.177 203.326 653.177 213.699C652.881 216.367 652.287 222.295 647.541 222.295Z" fill="#F4F7FF"/>
<path d="M638.939 180.8C637.753 180.207 636.566 179.614 635.38 179.318V184.949C635.677 185.245 635.973 185.245 636.27 185.542C641.906 188.802 646.948 195.026 649.914 201.547L655.254 200.954C651.991 192.655 645.762 184.949 638.939 180.8Z" fill="#F9AE40"/>
<path d="M684.62 207.179C681.653 205.4 678.687 204.511 676.017 204.511C669.788 204.511 665.339 209.55 665.339 218.145C665.339 230.297 673.941 245.117 684.323 251.341C687.289 253.119 690.255 254.009 692.925 254.009C699.154 254.009 703.603 248.97 703.603 240.375C703.603 227.926 695.298 213.106 684.62 207.179ZM692.925 248.674C691.145 248.674 689.069 248.081 686.992 246.599C678.094 241.264 670.382 228.222 670.382 217.849C670.382 215.181 670.975 209.253 676.017 209.253C677.797 209.253 679.874 209.846 681.95 211.328C690.849 216.663 698.561 229.704 698.561 240.078C698.561 242.746 697.967 248.674 692.925 248.674Z" fill="#F4F7FF"/>
<path d="M700.934 227.037C700.934 226.741 700.637 226.741 700.637 226.444C700.34 225.851 700.044 224.962 699.747 224.37C699.451 224.073 699.451 223.48 699.154 223.184C698.857 222.591 698.561 221.998 698.264 221.406C697.967 220.813 697.671 220.516 697.374 219.924C697.078 219.331 696.781 219.034 696.484 218.442C696.188 217.849 695.891 217.256 695.298 216.96C695.001 216.663 695.001 216.367 694.705 216.071C691.738 212.217 688.179 208.957 684.619 206.882C683.433 206.29 682.247 205.697 681.06 205.4V211.032C681.357 211.328 681.653 211.328 681.95 211.625C684.916 213.403 687.882 216.071 690.255 219.331C690.552 219.924 691.145 220.22 691.442 220.813C691.738 221.109 692.035 221.406 692.035 221.702C692.332 222.295 692.628 222.591 692.925 223.184C693.221 223.48 693.518 224.073 693.518 224.37C693.815 224.666 694.111 225.259 694.111 225.555C694.408 225.851 694.408 226.444 694.705 226.741C696.781 231.187 697.967 235.632 697.967 239.782C697.967 242.449 697.374 248.377 692.332 248.377C690.552 248.377 688.476 247.785 686.399 246.303C682.246 243.931 678.094 239.486 675.128 234.743C674.238 236.522 673.051 238.004 672.161 239.486C675.424 244.228 679.28 248.081 683.73 250.452C686.696 252.23 689.662 253.12 692.332 253.12C698.561 253.12 703.01 248.081 703.01 239.486C703.603 235.929 702.713 231.483 700.934 227.037Z" fill="#F9AE40"/>
<path d="M504.57 488.752C504.57 488.752 500.121 489.345 498.638 489.641C497.155 489.937 491.222 490.827 489.443 492.309C487.366 493.791 492.409 493.791 493.595 494.383C495.079 494.68 491.816 496.162 490.036 497.644C487.96 499.126 486.773 500.608 485.883 504.164C485.29 506.832 494.189 513.649 496.562 509.796C498.935 505.943 498.935 505.943 502.791 503.571C507.537 500.904 510.206 497.94 511.689 496.458L504.57 488.752Z" fill="#F4C5A2"/>
<path d="M504.57 486.084L501.011 488.455C501.011 488.455 505.164 495.865 508.723 500.015L512.876 497.644L504.57 486.084Z" fill="#E6E7E8"/>
<path d="M537.199 465.93L503.68 486.381L511.393 498.829L549.953 477.786L560.038 462.966L561.225 422.36L537.199 465.93Z" fill="#0F4463"/>
<path d="M577.539 641.098L562.412 640.208C562.412 640.208 560.928 642.876 555.886 644.358C550.547 645.84 540.462 651.768 542.538 656.807C544.614 661.845 553.216 661.845 558.259 659.77C563.005 657.696 569.234 656.51 569.234 656.51L570.42 658.585L580.209 656.214L580.505 642.58L577.539 641.098Z" fill="#9D4D36"/>
<path d="M586.735 647.618C586.735 647.618 584.362 652.954 581.989 654.732C579.616 656.51 572.794 667.18 574.87 670.737C576.946 674.294 581.396 675.479 584.065 674.887C586.735 674.294 593.557 670.737 595.633 666.291L597.71 662.438C597.71 662.438 598.6 664.216 598.896 663.92C599.193 663.92 605.422 660.363 606.312 659.474C606.312 659.474 605.719 648.804 605.422 644.062L586.735 647.618Z" fill="#9D4D36"/>
<path d="M578.726 508.017H558.556C558.259 508.61 557.666 557.515 557.963 565.221C558.259 573.224 560.632 640.505 560.632 640.505C560.632 640.505 568.938 646.729 580.803 643.173L582.879 558.404L578.726 508.017Z" fill="#072944"/>
<path d="M603.939 502.386C603.939 502.386 604.235 527.579 603.939 535.878C603.642 544.177 606.312 579.744 606.608 580.633C606.905 581.523 607.795 645.84 607.795 645.84C607.795 645.84 599.489 652.953 583.768 649.693C583.768 649.693 579.023 562.257 577.539 548.623C575.76 534.989 573.98 506.832 573.98 506.832L603.939 502.386Z" fill="#07304B"/>
<path d="M595.93 417.321L570.717 418.21L560.928 422.36C560.928 422.36 557.072 430.362 554.996 445.478C552.92 460.595 557.072 507.128 557.072 507.128C566.564 511.871 598.303 510.685 598.303 510.685C604.235 495.569 609.871 427.399 609.871 427.399L595.93 417.321Z" fill="#0B3B56"/>
<path d="M577.243 417.914L568.344 425.324C564.488 447.553 564.785 490.827 565.378 509.203C568.641 509.796 572.2 510.092 575.76 510.388C576.65 464.448 591.777 420.581 592.964 417.617L577.243 417.914Z" fill="#D4D6D8"/>
<path d="M569.531 428.881L571.014 435.698C571.014 435.698 567.751 478.082 566.564 496.162L570.124 503.572L574.573 497.051L575.463 438.069L579.912 429.77C580.209 430.066 575.463 426.51 569.531 428.881Z" fill="#0B3B56"/>
<path d="M574.573 428.288L566.564 431.548L569.827 418.211L573.98 415.247L574.573 428.288Z" fill="#E6E7E8"/>
<path d="M592.074 411.69L572.794 414.654L574.573 428.288L593.261 417.321L592.074 411.69Z" fill="#F4C5A2"/>
<path d="M596.523 399.241C596.523 409.615 588.811 418.21 579.319 418.21C569.827 418.21 564.191 409.615 564.191 399.241C564.191 388.867 569.827 380.272 579.319 380.272C589.108 380.272 596.523 388.571 596.523 399.241Z" fill="#FED4BD"/>
<path d="M581.099 397.759C581.099 397.759 578.429 408.43 584.065 408.43C589.701 408.43 587.625 410.504 588.811 412.579C590.294 414.95 594.447 413.172 597.117 408.133C599.786 402.798 602.456 390.942 598.303 385.311C593.854 379.087 584.955 376.715 579.319 377.308C572.2 377.901 563.302 383.533 562.412 388.571C560.929 397.167 581.099 397.759 581.099 397.759Z" fill="#07304B"/>
<path d="M600.379 506.535L576.056 505.943L575.76 520.169L601.862 523.726L600.379 506.535Z" fill="#0B3B56"/>
<path d="M596.523 520.762C596.523 520.762 593.26 523.726 592.074 524.912C591.184 526.097 587.031 530.247 586.141 532.618C585.548 534.989 589.404 532.322 590.591 531.729C591.777 531.136 593.854 532.618 593.26 534.989C592.667 537.36 589.404 541.806 588.218 544.474C587.031 547.141 598.006 547.438 601.269 543.881C604.532 540.324 606.312 536.768 606.608 532.322C606.905 527.876 605.125 524.023 605.422 522.244L596.523 520.762Z" fill="#F4C5A2"/>
<path d="M593.853 517.798L592.667 522.837L607.795 527.579L609.574 521.948L593.853 517.798Z" fill="#E6E7E8"/>
<path d="M609.871 427.102C609.871 427.102 599.192 427.991 600.676 446.071C602.159 464.151 601.862 476.6 601.862 476.6L592.963 519.28L609.278 523.726C609.278 523.726 620.549 480.156 620.549 478.675C620.549 477.193 617.88 440.143 617.88 440.143C617.88 440.143 616.99 430.362 609.871 427.102Z" fill="#0F4463"/>
<path d="M556.48 497.347L556.183 513.945C556.183 515.131 557.073 516.316 558.259 516.613L565.082 518.391L565.378 507.425L556.48 497.347Z" fill="#0B3B56"/>
<path d="M593.557 414.654L574.573 428.288L582.879 436.29L595.93 417.321L593.557 414.654Z" fill="#E6E7E8"/>
<path d="M253.332 658.585C245.917 658.585 248.29 652.953 248.29 652.953C237.315 649.693 231.679 651.471 231.679 651.471C229.009 661.252 229.899 667.18 229.899 669.551C229.899 670.737 230.789 671.33 231.679 671.922C237.611 673.997 242.951 675.479 254.222 674.59C262.528 673.701 271.13 666.291 269.053 658.585C267.867 653.546 260.748 658.585 253.332 658.585Z" fill="#933E31"/>
<path d="M250.069 588.636C247.993 585.672 244.137 583.301 237.908 585.079L171.168 597.824L173.541 615.015C173.541 615.015 183.626 628.353 201.72 623.314C219.517 618.276 231.085 609.977 231.085 609.977L228.713 657.103C228.713 657.103 239.094 660.363 248.586 654.732C250.069 653.843 251.552 608.198 252.146 596.639C252.442 593.379 252.146 591.007 250.069 588.636Z" fill="#1C75BC"/>
<path d="M285.367 672.219C277.655 672.219 280.028 666.291 280.028 666.291C268.46 662.734 262.824 664.809 262.824 664.809C259.858 674.887 261.044 681.111 261.044 683.482C261.044 684.668 261.934 685.557 263.121 685.853C269.35 688.224 274.985 689.706 286.554 688.521C295.156 687.631 304.054 679.925 301.978 671.923C300.495 666.884 293.079 672.219 285.367 672.219Z" fill="#9D4D36"/>
<path d="M209.432 653.546L152.184 620.35V628.649L209.432 661.549V653.546Z" fill="#BBCEE1"/>
<path d="M204.39 590.711L152.184 620.35L209.432 653.546L261.638 623.61L204.39 590.711Z" fill="white"/>
<path d="M261.637 623.61L209.432 653.546V661.549L261.637 631.317V623.61Z" fill="#A7BCCE"/>
<path d="M282.104 599.603C279.731 596.639 275.875 594.268 269.35 595.749L200.237 609.087L202.906 626.871C202.906 626.871 213.585 640.801 231.975 635.466C250.662 630.131 262.527 621.536 262.527 621.536L260.154 670.44C260.154 670.44 271.129 673.701 280.621 668.069C282.104 667.18 283.884 619.757 284.181 607.605C284.477 604.345 284.181 602.27 282.104 599.603Z" fill="#2A87C6"/>
<path d="M386.219 735.647C378.803 735.647 381.176 730.016 381.176 730.016C370.201 726.755 364.565 728.534 364.565 728.534C361.896 738.315 362.785 744.242 362.785 746.614C362.785 747.799 363.675 748.392 364.565 748.985C370.498 751.059 375.837 752.541 387.108 751.652C395.414 750.763 404.016 743.353 401.939 735.647C401.05 730.312 393.931 735.351 386.219 735.647Z" fill="#933E31"/>
<path d="M382.956 665.402C380.879 662.438 377.023 660.067 370.794 661.845L304.054 674.59L306.427 691.781C306.427 691.781 316.513 705.118 334.606 700.08C352.404 695.041 363.972 686.742 363.972 686.742L361.599 733.868C361.599 733.868 371.981 737.129 381.473 731.497C382.956 730.608 384.439 684.964 385.032 673.404C385.329 670.144 385.032 668.069 382.956 665.402Z" fill="#072944"/>
<path d="M418.254 749.281C410.541 749.281 412.914 743.353 412.914 743.353C401.346 739.797 395.71 741.871 395.71 741.871C392.744 751.949 393.931 758.173 393.931 760.544C393.931 761.73 394.821 762.619 396.007 762.915C402.236 765.286 407.872 766.768 419.44 765.583C428.042 764.694 436.941 756.987 434.864 748.985C433.678 743.946 426.262 749.281 418.254 749.281Z" fill="#9D4D36"/>
<path d="M342.615 730.312L285.367 697.412V705.415L342.615 738.315V730.312Z" fill="#BBCEE1"/>
<path d="M337.276 667.477L285.367 697.413L342.615 730.312L394.524 700.376L337.276 667.477Z" fill="white"/>
<path d="M394.523 700.376L342.615 730.312V738.315L394.523 708.379V700.376Z" fill="#A7BCCE"/>
<path d="M414.991 676.368C412.618 673.405 408.762 671.033 402.236 672.515L333.123 685.853L335.793 703.637C335.793 703.637 346.471 717.567 364.862 712.232C383.549 706.897 395.414 698.302 395.414 698.302L393.041 747.206C393.041 747.206 404.016 750.467 413.507 744.835C414.991 743.946 416.77 696.523 417.067 684.371C417.364 681.407 417.067 679.036 414.991 676.368Z" fill="#07304B"/>
<path d="M120.445 581.819C113.03 581.819 115.403 576.188 115.403 576.188C104.428 572.927 98.792 574.706 98.792 574.706C96.1224 584.487 97.0123 590.415 97.0123 592.786C97.0123 593.971 97.9021 594.564 98.792 595.157C104.724 597.232 110.064 598.714 121.335 597.824C129.641 596.935 138.243 589.525 136.166 581.819C134.98 576.484 127.861 581.523 120.445 581.819Z" fill="#933E31"/>
<path d="M117.183 511.574C115.106 508.61 111.25 506.239 105.021 508.017L38.2815 520.762L40.6545 537.953C40.6545 537.953 50.7396 551.291 68.8335 546.252C86.6308 541.213 98.199 532.914 98.199 532.914L95.826 580.041C95.826 580.041 106.208 583.301 115.7 577.67C117.183 576.78 118.666 531.136 119.259 519.577C119.556 516.316 118.963 514.242 117.183 511.574Z" fill="#1B4E6B"/>
<path d="M152.184 595.453C144.472 595.453 146.845 589.525 146.845 589.525C135.277 585.969 129.641 588.043 129.641 588.043C126.675 598.121 127.861 604.345 127.861 606.716C127.861 607.902 128.751 608.791 129.937 609.087C136.166 611.458 141.802 612.94 153.371 611.755C161.973 610.866 170.871 603.159 168.795 595.157C167.608 590.118 160.193 595.453 152.184 595.453Z" fill="#9D4D36"/>
<path d="M76.5458 576.484L19.2979 543.584V551.587L76.5458 584.487V576.484Z" fill="#BBCEE1"/>
<path d="M71.2066 513.649L19.2979 543.585L76.5458 576.484L128.751 546.549L71.2066 513.649Z" fill="white"/>
<path d="M128.751 546.548L76.5457 576.484V584.487L128.751 554.551V546.548Z" fill="#A7BCCE"/>
<path d="M148.921 522.54C146.548 519.577 142.692 517.205 136.167 518.687L67.054 532.025L69.7235 549.809C69.7235 549.809 80.4019 563.739 98.7924 558.404C117.48 553.069 129.344 544.474 129.344 544.474L126.971 593.378C126.971 593.378 137.946 596.639 147.438 591.007C148.921 590.118 150.701 542.695 150.998 530.543C151.591 527.579 150.998 525.208 148.921 522.54Z" fill="#1F5E77"/>
<path d="M34.1287 438.068L185.406 350.336C191.931 346.483 199.643 346.483 206.169 350.336L612.837 585.375C618.769 588.932 618.769 597.528 612.837 601.084L465.119 686.742C457.407 691.188 448.212 691.188 440.5 686.742L34.1287 452.295C28.7895 449.035 28.7895 441.329 34.1287 438.068Z" fill="#E8EBF5"/>
<path d="M34.1288 452.295L440.203 687.039C447.916 691.485 457.111 691.485 464.823 687.039L612.54 601.381C615.507 599.603 616.99 596.639 616.99 593.675V609.976C616.99 612.94 615.507 615.904 612.54 617.683L464.823 703.34C457.111 707.786 447.916 707.786 440.203 703.34L34.1288 468.597C31.4592 467.115 29.9761 464.151 29.9761 461.484V445.182C29.9761 447.85 31.4592 450.813 34.1288 452.295Z" fill="#A7BCCE"/>
<path d="M34.1288 452.295L440.203 687.039C443.763 689.113 447.619 690.003 451.475 690.299V706.601C447.619 706.304 443.763 705.415 440.203 703.34L34.1288 468.597C31.4592 467.115 29.9761 464.151 29.9761 461.484V445.182C29.9761 447.85 31.4592 450.813 34.1288 452.295Z" fill="#BBCEE1"/>
<path d="M212.992 523.429L262.824 494.679C264.307 493.79 265.79 493.79 267.274 494.679L339.649 536.471C340.836 537.36 340.836 539.138 339.649 539.731L290.707 568.185C288.927 569.074 287.147 569.074 285.367 568.185L213.288 526.69C211.805 525.801 211.805 524.022 212.992 523.429Z" fill="white"/>
<path d="M212.992 526.394L285.071 567.889C286.85 568.778 288.63 568.778 290.41 567.889L339.352 539.435C339.946 539.138 340.242 538.546 340.242 537.656V541.213C340.242 541.806 339.946 542.399 339.352 542.992L290.41 571.445C288.63 572.334 286.85 572.334 285.071 571.445L212.992 529.95C212.398 529.654 212.102 529.061 212.102 528.468V524.912C212.102 525.504 212.398 526.097 212.992 526.394Z" fill="#BBCEE1"/>
<path d="M342.319 470.375L268.46 427.694C267.867 427.398 267.57 427.398 266.977 427.694L265.197 428.88L266.68 430.955L267.273 431.548V490.53C267.273 491.419 267.867 492.308 268.46 492.604L338.759 533.21V533.803L341.132 537.063L343.208 535.878C343.505 535.581 343.802 535.285 343.802 534.989V472.746C343.505 471.561 343.208 470.671 342.319 470.375Z" fill="white"/>
<path d="M340.242 471.561L266.087 428.88C265.494 428.584 264.604 428.88 264.604 429.769V492.012C264.604 492.901 265.197 493.79 265.79 494.086L339.946 536.767C340.836 537.063 341.726 536.767 341.726 535.878V473.635C341.429 472.746 341.132 471.857 340.242 471.561Z" fill="#BBCEE1"/>
<path d="M339.056 475.117L266.383 433.03V488.455L339.056 530.543V475.117Z" fill="url(#paint9_linear_1381_9117)"/>
<path d="M261.044 501.793L264.9 499.718L269.053 502.089L265.197 504.164L261.044 501.793Z" fill="#BBCEE1"/>
<path d="M266.383 504.757L269.943 502.682L274.095 505.053L270.536 507.128L266.383 504.757Z" fill="#BBCEE1"/>
<path d="M271.426 507.72L275.282 505.646L279.435 508.017L275.579 510.091L271.426 507.72Z" fill="#BBCEE1"/>
<path d="M276.765 510.684L280.324 508.61L284.477 510.981L280.918 513.056L276.765 510.684Z" fill="#BBCEE1"/>
<path d="M281.808 513.648L285.664 511.574L289.816 513.945L285.96 516.02L281.808 513.648Z" fill="#BBCEE1"/>
<path d="M287.147 516.612L290.706 514.538L294.859 516.909L291.3 518.983L287.147 516.612Z" fill="#BBCEE1"/>
<path d="M292.189 519.576L296.045 517.501L300.198 519.872L296.342 521.947L292.189 519.576Z" fill="#BBCEE1"/>
<path d="M297.528 522.54L301.088 520.465L305.24 522.836L301.681 525.207L297.528 522.54Z" fill="#BBCEE1"/>
<path d="M302.571 525.8L306.427 523.429L310.58 525.8L306.724 528.171L302.571 525.8Z" fill="#BBCEE1"/>
<path d="M307.91 528.764L311.47 526.393L315.622 529.061L312.063 531.135L307.91 528.764Z" fill="#BBCEE1"/>
<path d="M312.953 531.728L316.809 529.654L320.962 532.025L317.106 534.099L312.953 531.728Z" fill="#BBCEE1"/>
<path d="M318.292 534.692L321.852 532.617L326.004 534.989L322.445 537.063L318.292 534.692Z" fill="#BBCEE1"/>
<path d="M327.19 535.581L331.343 537.952L327.784 540.027L323.334 537.656L327.19 535.581Z" fill="#BBCEE1"/>
<path d="M260.451 506.831L256.298 504.46L260.154 502.385L264.307 504.757L260.451 506.831Z" fill="#BBCEE1"/>
<path d="M269.349 507.721L265.79 509.795L261.637 507.424L265.197 505.349L269.349 507.721Z" fill="#BBCEE1"/>
<path d="M274.689 510.684L270.833 512.759L266.68 510.388L270.536 508.313L274.689 510.684Z" fill="#BBCEE1"/>
<path d="M279.731 513.648L276.172 515.723L272.019 513.352L275.579 511.277L279.731 513.648Z" fill="#BBCEE1"/>
<path d="M285.07 516.612L281.214 518.983L277.062 516.316L280.918 514.241L285.07 516.612Z" fill="#BBCEE1"/>
<path d="M290.113 519.576L286.554 521.947L282.401 519.576L285.961 517.205L290.113 519.576Z" fill="#BBCEE1"/>
<path d="M295.452 522.837L291.596 524.911L287.443 522.54L291.299 520.169L295.452 522.837Z" fill="#BBCEE1"/>
<path d="M300.495 525.8L296.935 527.875L292.782 525.504L296.342 523.429L300.495 525.8Z" fill="#BBCEE1"/>
<path d="M305.834 528.764L301.978 530.839L297.825 528.468L301.681 526.393L305.834 528.764Z" fill="#BBCEE1"/>
<path d="M310.877 531.728L307.317 533.803L303.165 531.432L306.724 529.357L310.877 531.728Z" fill="#BBCEE1"/>
<path d="M316.216 534.692L312.359 536.767L308.207 534.396L312.063 532.321L316.216 534.692Z" fill="#BBCEE1"/>
<path d="M321.258 537.656L317.699 539.731L313.546 537.36L317.106 535.285L321.258 537.656Z" fill="#BBCEE1"/>
<path d="M322.445 538.249L326.597 540.62L323.038 542.695L318.589 540.324L322.445 538.249Z" fill="#BBCEE1"/>
<path d="M255.705 509.499L251.552 507.128L255.408 505.053L259.561 507.424L255.705 509.499Z" fill="#BBCEE1"/>
<path d="M264.604 510.388L261.044 512.759L256.892 510.092L260.451 508.017L264.604 510.388Z" fill="#BBCEE1"/>
<path d="M261.934 513.352L265.79 510.981L269.943 513.648L266.087 515.723L261.934 513.352Z" fill="#BBCEE1"/>
<path d="M274.985 516.612L271.426 518.687L267.273 516.316L270.833 513.945L274.985 516.612Z" fill="#BBCEE1"/>
<path d="M280.325 519.576L276.469 521.651L272.316 519.28L276.172 517.205L280.325 519.576Z" fill="#BBCEE1"/>
<path d="M285.367 522.54L281.807 524.615L277.655 522.244L281.214 520.169L285.367 522.54Z" fill="#BBCEE1"/>
<path d="M290.706 525.504L286.85 527.579L282.697 525.208L286.553 523.133L290.706 525.504Z" fill="#BBCEE1"/>
<path d="M295.749 528.468L292.19 530.543L288.037 528.172L291.596 526.097L295.749 528.468Z" fill="#BBCEE1"/>
<path d="M301.088 531.432L297.232 533.507L293.079 531.135L296.935 529.061L301.088 531.432Z" fill="#BBCEE1"/>
<path d="M306.13 534.396L302.571 536.47L298.418 534.099L301.978 532.025L306.13 534.396Z" fill="#BBCEE1"/>
<path d="M311.47 537.36L307.91 539.435L303.461 537.064L307.317 534.989L311.47 537.36Z" fill="#BBCEE1"/>
<path d="M308.8 540.028L312.36 537.953L316.512 540.324L312.953 542.399L308.8 540.028Z" fill="#BBCEE1"/>
<path d="M317.699 540.917L321.852 543.288L318.292 545.363L313.843 542.991L317.699 540.917Z" fill="#BBCEE1"/>
<path d="M250.959 512.463L246.806 510.092L250.662 508.017L254.815 510.388L250.959 512.463Z" fill="#BBCEE1"/>
<path d="M252.146 513.055L255.705 510.981L259.858 513.352L256.298 515.427L252.146 513.055Z" fill="#BBCEE1"/>
<path d="M257.188 516.019L261.044 513.945L265.197 516.316L261.341 518.391L257.188 516.019Z" fill="#BBCEE1"/>
<path d="M262.527 518.983L266.087 516.909L270.239 519.28L266.68 521.354L262.527 518.983Z" fill="#BBCEE1"/>
<path d="M267.57 521.947L271.426 519.872L275.579 522.244L271.723 524.318L267.57 521.947Z" fill="#BBCEE1"/>
<path d="M272.909 524.911L276.469 522.837L280.621 525.208L277.062 527.283L272.909 524.911Z" fill="#BBCEE1"/>
<path d="M277.951 527.875L281.808 525.801L285.96 528.172L282.104 530.246L277.951 527.875Z" fill="#BBCEE1"/>
<path d="M283.291 530.839L286.85 528.764L291.003 531.136L287.444 533.21L283.291 530.839Z" fill="#BBCEE1"/>
<path d="M288.333 533.803L292.19 531.728L296.342 534.099L292.486 536.174L288.333 533.803Z" fill="#BBCEE1"/>
<path d="M293.672 536.767L297.232 534.692L301.385 537.063L297.825 539.138L293.672 536.767Z" fill="#BBCEE1"/>
<path d="M298.715 539.731L302.571 537.656L306.724 540.027L303.164 542.398L298.715 539.731Z" fill="#BBCEE1"/>
<path d="M304.054 542.991L307.614 540.62L311.767 542.991L308.207 545.362L304.054 542.991Z" fill="#BBCEE1"/>
<path d="M312.953 543.584L317.105 546.252L313.546 548.327L309.096 545.955L312.953 543.584Z" fill="#BBCEE1"/>
<path d="M246.213 515.13L242.06 512.759L245.916 510.684L250.069 513.056L246.213 515.13Z" fill="#BBCEE1"/>
<path d="M247.399 515.723L250.959 513.648L255.112 516.019L251.552 518.094L247.399 515.723Z" fill="#BBCEE1"/>
<path d="M252.442 518.687L256.298 516.612L260.451 518.983L256.595 521.058L252.442 518.687Z" fill="#BBCEE1"/>
<path d="M257.781 521.651L261.341 519.576L265.493 521.947L261.934 524.022L257.781 521.651Z" fill="#BBCEE1"/>
<path d="M262.824 524.615L266.68 522.54L270.833 524.911L266.976 526.986L262.824 524.615Z" fill="#BBCEE1"/>
<path d="M268.163 527.579L271.723 525.504L275.875 527.875L272.316 529.95L268.163 527.579Z" fill="#BBCEE1"/>
<path d="M273.206 530.543L277.062 528.468L281.215 530.839L277.359 532.914L273.206 530.543Z" fill="#BBCEE1"/>
<path d="M278.545 533.803L282.104 531.432L286.257 533.803L282.697 536.174L278.545 533.803Z" fill="#BBCEE1"/>
<path d="M283.587 536.767L287.443 534.396L291.596 537.063L287.74 539.138L283.587 536.767Z" fill="#BBCEE1"/>
<path d="M288.927 539.731L292.486 537.36L296.639 540.027L293.079 542.102L288.927 539.731Z" fill="#BBCEE1"/>
<path d="M293.969 542.695L297.825 540.62L301.978 542.991L298.418 545.066L293.969 542.695Z" fill="#BBCEE1"/>
<path d="M299.308 545.659L302.868 543.584L307.02 545.955L303.461 548.03L299.308 545.659Z" fill="#BBCEE1"/>
<path d="M308.207 546.548L312.36 548.919L308.8 550.994L304.351 548.623L308.207 546.548Z" fill="#BBCEE1"/>
<path d="M241.171 513.352L245.323 515.723L241.467 517.798L237.314 515.427L241.171 513.352Z" fill="#BBCEE1"/>
<path d="M250.366 518.687L246.806 520.762L242.654 518.391L246.213 516.316L250.366 518.687Z" fill="#BBCEE1"/>
<path d="M255.705 521.651L251.849 523.726L247.696 521.355L251.552 519.28L255.705 521.651Z" fill="#BBCEE1"/>
<path d="M260.748 524.615L257.188 526.986L253.035 524.319L256.595 522.244L260.748 524.615Z" fill="#BBCEE1"/>
<path d="M266.087 527.579L262.231 529.95L258.078 527.579L261.934 525.208L266.087 527.579Z" fill="#BBCEE1"/>
<path d="M271.129 530.839L267.569 532.914L263.417 530.543L266.976 528.172L271.129 530.839Z" fill="#BBCEE1"/>
<path d="M272.316 531.432L277.358 534.396L278.545 534.989L282.697 537.36L284.774 538.545L287.74 540.324L291.003 542.102L297.232 545.659L293.672 547.734L287.147 544.177L284.18 542.399L280.918 540.62L278.841 539.435L274.985 537.063L273.799 536.471L268.459 533.507L272.316 531.432Z" fill="#BBCEE1"/>
<path d="M302.274 548.623L298.715 550.698L294.562 548.327L298.122 546.252L302.274 548.623Z" fill="#BBCEE1"/>
<path d="M307.614 551.587L304.054 553.662L299.605 551.29L303.461 549.216L307.614 551.587Z" fill="#BBCEE1"/>
<path d="M242.653 538.249L255.705 530.839C256.001 530.543 256.595 530.543 256.891 530.839L274.985 541.213C275.282 541.509 275.282 541.806 274.985 542.102L262.23 549.512C261.934 549.808 261.34 549.808 261.044 549.512L242.95 539.138C242.357 538.842 242.357 538.545 242.653 538.249Z" fill="#BBCEE1"/>
<path d="M463.636 605.234L390.964 646.136L344.988 619.461L417.363 578.558L463.636 605.234Z" fill="#ED5561"/>
<path d="M405.202 645.247V646.729L477.874 605.234V604.048L405.202 645.247Z" fill="#F0CEC9"/>
<path d="M477.875 604.048L405.202 645.247L359.226 618.572L431.602 577.373L477.875 604.048Z" fill="#FFFBF0"/>
<path d="M405.202 645.247V646.729L359.226 620.054V618.572L405.202 645.247Z" fill="#F5DDD8"/>
<path d="M431.008 581.819L458.891 597.824L457.704 598.713L429.822 582.708L431.008 581.819Z" fill="#DFBAB8"/>
<path d="M428.042 583.597L456.221 599.603L454.738 600.195L426.855 584.19L428.042 583.597Z" fill="#DFBAB8"/>
<path d="M421.516 587.45L459.78 609.383L458.594 610.273L420.33 588.043L421.516 587.45Z" fill="#DFBAB8"/>
<path d="M418.847 588.932L457.111 610.865L455.924 611.754L417.66 589.525L418.847 588.932Z" fill="#DFBAB8"/>
<path d="M416.177 590.414L454.441 612.644L453.255 613.237L414.991 591.007L416.177 590.414Z" fill="#DFBAB8"/>
<path d="M413.508 591.896L451.772 614.126L450.585 614.718L412.321 592.489L413.508 591.896Z" fill="#DFBAB8"/>
<path d="M410.838 593.378L449.102 615.608L447.916 616.2L409.652 593.971L410.838 593.378Z" fill="#DFBAB8"/>
<path d="M408.168 594.86L446.433 617.089L445.246 617.682L406.982 595.453L408.168 594.86Z" fill="#DFBAB8"/>
<path d="M405.499 596.342L443.763 618.572L442.576 619.164L404.312 597.231L405.499 596.342Z" fill="#DFBAB8"/>
<path d="M402.829 597.824L441.093 620.053L439.907 620.646L401.643 598.713L402.829 597.824Z" fill="#DFBAB8"/>
<path d="M400.159 599.306L438.424 621.536L437.237 622.128L398.973 600.195L400.159 599.306Z" fill="#DFBAB8"/>
<path d="M397.49 600.788L436.051 623.018L434.568 623.907L396.304 601.677L397.49 600.788Z" fill="#DFBAB8"/>
<path d="M394.821 602.566L433.381 624.499L431.898 625.389L393.634 603.159L394.821 602.566Z" fill="#DFBAB8"/>
<path d="M392.151 604.048L430.711 625.981L429.228 626.871L390.964 604.641L392.151 604.048Z" fill="#DFBAB8"/>
<path d="M389.481 605.53L428.042 627.463L426.559 628.353L388.295 606.123L389.481 605.53Z" fill="#DFBAB8"/>
<path d="M386.811 607.012L425.372 629.242L424.186 629.834L385.625 607.605L386.811 607.012Z" fill="#DFBAB8"/>
<path d="M384.142 608.494L422.703 630.724L421.517 631.317L382.956 609.087L384.142 608.494Z" fill="#DFBAB8"/>
<path d="M183.329 423.842L129.344 454.37L94.9363 434.512L148.921 403.983L183.329 423.842Z" fill="#ED5561"/>
<path d="M183.329 448.146L129.344 478.675L94.9363 458.816L148.921 428.288L183.329 448.146Z" fill="url(#paint10_linear_1381_9117)"/>
<path d="M158.413 469.486C158.413 469.486 161.676 466.226 162.863 465.337C164.049 464.448 168.202 460.595 170.575 460.002C172.948 459.409 169.982 462.966 169.685 464.448C169.092 465.633 170.278 467.412 172.651 467.115C175.024 466.522 179.473 463.559 181.846 462.669C184.516 461.484 184.219 472.154 180.66 475.414C177.1 478.378 173.541 479.86 169.092 480.157C164.642 480.453 161.083 478.378 159.303 478.675L158.413 469.486Z" fill="#F4C5A2"/>
<path d="M39.4681 441.329C39.4681 441.329 29.9762 470.968 32.0526 486.677C32.0526 486.677 39.7647 493.198 48.3668 497.347L39.4681 441.329Z" fill="#FFC67B"/>
<path d="M94.9366 416.728C93.7501 427.991 85.4447 436.587 76.2494 435.697C67.0542 434.808 60.5285 424.731 61.715 413.468C62.9015 402.205 71.2069 393.61 80.4021 394.499C89.5974 395.388 96.123 405.465 94.9366 416.728Z" fill="#FED4BD"/>
<path d="M63.791 426.509C63.791 426.509 69.4268 427.991 76.2491 424.434C76.2491 424.434 80.4018 421.767 83.0714 416.135C83.0714 416.135 88.114 418.21 89.5971 414.061C91.0802 409.911 97.3093 409.911 97.6059 406.058C97.6059 406.058 95.8261 387.385 75.9525 390.646C76.2491 390.646 47.4769 396.277 63.791 426.509Z" fill="#0B3B56"/>
<path d="M62.6045 429.77C62.6045 429.77 74.766 428.88 84.2578 435.697C84.2578 435.697 84.8511 437.772 86.9274 438.958C88.7072 440.143 102.945 445.478 102.945 445.478C102.945 445.478 94.0463 499.126 98.7923 526.097C98.7923 526.097 78.3254 542.103 46.2903 526.097C46.2903 526.097 41.5444 458.223 39.468 441.329C39.468 441.329 44.8072 434.808 62.6045 429.77Z" fill="#FFBD59"/>
<path d="M102.648 445.478L126.674 471.265L160.786 465.04C160.786 465.04 164.642 473.932 163.455 480.453L121.928 490.53L94.9359 466.522C94.9359 466.819 86.0373 448.146 102.648 445.478Z" fill="#FFC67B"/>
<path d="M57.2653 521.059L0.017334 487.863L19.2977 543.584L76.5456 576.484L57.2653 521.059Z" fill="#BBCEE1"/>
<path d="M6.24638 484.306L0.017334 487.863L57.2653 521.059L63.7909 517.205L6.24638 484.306Z" fill="white"/>
<path d="M63.7908 517.206L57.2651 521.059L76.5455 576.484L83.0712 572.927L63.7908 517.206Z" fill="#A7BCCE"/>
<path d="M68.5367 425.027H63.4941C51.9259 438.365 60.5279 450.22 60.5279 450.22C72.6893 441.625 68.5367 425.027 68.5367 425.027Z" fill="#0B3B56"/>
<path d="M227.229 494.383C226.043 505.942 217.441 514.538 207.949 513.649C198.457 512.759 191.931 502.682 192.821 490.826C194.008 479.267 202.61 470.672 212.102 471.561C221.594 472.746 228.416 482.824 227.229 494.383Z" fill="#FED4BD"/>
<path d="M241.171 523.43C241.171 523.43 245.323 524.615 246.806 524.615C248.289 524.912 253.629 526.097 255.705 525.208C257.781 524.615 253.629 522.837 252.739 521.948C251.849 521.059 251.849 518.984 253.925 518.391C256.002 517.798 261.044 518.095 263.714 517.502C266.383 517.206 261.044 508.314 256.595 507.721C252.146 506.832 248.586 507.425 244.73 509.499C241.171 511.574 239.094 514.834 237.314 515.427L241.171 523.43Z" fill="#F4C5A2"/>
<path d="M241.764 510.685L213.585 517.798L212.102 535.582L245.027 525.505C245.916 518.984 241.764 510.685 241.764 510.685Z" fill="#C64453"/>
<path d="M356.853 567.593C356.853 578.855 349.438 588.34 339.946 588.044C330.75 588.044 323.335 578.855 323.335 567.296C323.335 556.033 330.75 546.549 340.242 546.845C349.438 547.141 356.853 556.33 356.853 567.593Z" fill="#FED4BD"/>
<path d="M346.174 546.252C346.174 546.252 359.226 548.623 359.522 559.59L347.361 563.739C347.361 563.739 349.141 572.927 342.318 575.298C342.318 575.298 340.242 583.597 327.784 583.005C327.784 583.005 309.097 558.7 331.936 547.141C331.936 547.141 338.166 544.77 346.174 546.252Z" fill="#0B3B56"/>
<path d="M305.537 595.157C305.537 595.157 296.046 624.796 298.122 640.505C298.122 640.505 305.834 647.026 314.436 651.175L305.537 595.157Z" fill="#0F4463"/>
<path d="M328.674 583.598C328.674 583.598 340.835 582.708 350.327 589.525C350.327 589.525 350.92 591.6 352.997 592.786C354.776 593.971 363.082 599.306 363.082 599.306C363.082 599.306 360.116 652.953 364.862 679.925C364.862 679.925 344.395 695.93 312.36 679.925C312.36 679.925 307.614 612.051 305.537 595.157C305.537 595.157 310.877 588.636 328.674 583.598Z" fill="#0B3B56"/>
<path d="M323.335 674.887L266.087 641.691L285.367 697.412L342.615 730.312L323.335 674.887Z" fill="#BBCEE1"/>
<path d="M272.316 638.134L266.087 641.69L323.335 674.886L329.564 671.033L272.316 638.134Z" fill="white"/>
<path d="M329.564 671.033L323.335 674.886L342.615 730.312L348.844 726.755L329.564 671.033Z" fill="#A7BCCE"/>
<path d="M412.618 578.262C412.618 578.262 413.211 573.816 413.508 572.334C413.804 570.852 414.694 565.221 416.177 563.146C417.66 561.368 417.66 565.814 418.254 567.296C418.55 568.481 420.627 569.37 422.11 567.296C423.593 565.517 425.076 560.479 426.559 557.811C428.042 555.44 434.568 563.739 433.678 568.481C432.788 572.927 431.008 576.484 427.746 579.448C424.483 582.412 420.627 583.005 419.144 584.487L412.618 578.262Z" fill="#F4C5A2"/>
<path d="M353.59 593.082L387.108 599.603L412.618 573.52C412.618 573.52 421.516 576.188 423.296 583.894L393.041 618.572L354.48 616.794C354.183 617.09 341.132 597.824 353.59 593.082Z" fill="#0F4463"/>
<path d="M230.789 461.484C230.789 461.484 227.229 467.411 211.508 467.411C210.322 467.411 209.136 467.708 207.652 467.708C207.652 467.708 178.287 473.636 195.194 504.46C195.194 504.46 201.127 505.942 207.949 502.386C207.949 502.386 212.398 499.422 214.771 494.087C214.771 494.087 219.814 496.161 221.594 492.012C223.077 488.455 227.823 487.863 229.306 485.491C229.899 484.899 239.391 472.746 230.789 461.484Z" fill="#F99840"/>
<path d="M172.651 518.095C172.651 518.095 164.939 527.876 172.651 541.213C172.651 541.213 177.99 548.623 192.821 541.51L172.651 518.095Z" fill="#C64453"/>
<path d="M195.491 506.832C195.491 506.832 207.652 505.943 217.144 512.76C217.144 512.76 217.737 514.834 219.814 516.02C221.593 517.206 235.831 522.541 235.831 522.541C235.831 522.541 226.933 576.188 231.679 603.159C231.679 603.159 211.212 619.165 179.177 603.159C179.177 603.159 174.431 535.285 172.354 518.391C172.651 518.095 177.99 511.574 195.491 506.832Z" fill="#ED5561"/>
<path d="M190.152 597.825L132.904 564.629L152.184 620.647L209.432 653.547L190.152 597.825Z" fill="#BBCEE1"/>
<path d="M139.429 561.072L132.904 564.628L190.152 597.824L196.677 593.971L139.429 561.072Z" fill="white"/>
<path d="M196.677 593.971L190.151 597.825L209.432 653.546L215.957 649.693L196.677 593.971Z" fill="#A7BCCE"/>
<path d="M278.545 543.881C278.545 543.881 281.808 540.621 282.994 539.731C284.181 538.842 288.333 534.989 290.706 534.396C293.079 533.804 290.113 537.36 289.817 538.842C289.223 540.028 290.41 541.806 292.783 541.51C295.156 540.917 299.605 537.953 301.978 537.064C304.648 535.878 304.351 546.548 300.792 549.809C297.232 552.773 293.673 554.255 289.223 554.551C284.774 554.847 281.215 552.773 279.435 553.069L278.545 543.881Z" fill="#F4C5A2"/>
<path d="M231.086 520.762L254.816 548.327L279.435 541.213C279.435 541.213 284.774 547.734 282.995 554.847L250.07 567.592L223.374 542.102C223.374 542.102 214.475 523.43 231.086 520.762Z" fill="#C64453"/>
<path d="M196.677 345.594L183.329 337.888V365.156L196.677 372.566V345.594Z" fill="#F9C32A"/>
<path d="M196.974 330.181L183.329 337.888L196.677 345.594L210.025 337.888L196.974 330.181Z" fill="#F9DC32"/>
<path d="M210.025 337.888L196.677 345.594V372.566L210.025 364.859V337.888Z" fill="#EF9D26"/>
<path d="M211.805 342.334L198.754 334.627V374.048L211.805 381.458V342.334Z" fill="#F9C32A"/>
<path d="M212.398 326.921L198.754 334.628L211.805 342.334L225.45 334.628L212.398 326.921Z" fill="#F9DC32"/>
<path d="M225.45 334.627L211.805 342.334V381.458L225.45 373.751V334.627Z" fill="#EF9D26"/>
<path d="M227.23 357.746L213.882 350.04V382.643L227.23 390.349V357.746Z" fill="#F9C32A"/>
<path d="M227.526 342.333L213.882 350.04L227.23 357.746L240.578 350.04L227.526 342.333Z" fill="#F9DC32"/>
<path d="M240.577 350.04L227.229 357.746V390.349L240.577 382.346V350.04Z" fill="#EF9D26"/>
<path d="M242.357 343.816L229.306 336.11V391.535L242.357 399.241V343.816Z" fill="#F9C32A"/>
<path d="M242.654 328.404L229.306 336.11L242.357 343.816L256.002 336.11L242.654 328.404Z" fill="#F9DC32"/>
<path d="M256.002 336.11L242.357 343.816V399.241L256.002 391.239V336.11Z" fill="#EF9D26"/>
<path d="M257.485 355.375L244.433 347.668V400.426L257.485 408.133V355.375Z" fill="#F9C32A"/>
<path d="M258.078 339.962L244.433 347.669L257.485 355.375L271.129 347.669L258.078 339.962Z" fill="#F9DC32"/>
<path d="M271.129 347.668L257.485 355.375V408.133L271.129 400.13V347.668Z" fill="#EF9D26"/>
<path d="M585.845 306.767L566.861 295.8V296.689L585.845 307.656V306.767Z" fill="#F4F7FF"/>
<path d="M596.226 314.473L566.861 297.579V298.764L596.226 315.659V314.473Z" fill="#F4F7FF"/>
<path d="M596.226 312.694L587.328 307.359V308.545L596.226 313.583V312.694Z" fill="#F4F7FF"/>
<path d="M585.845 310.62L566.861 299.357V300.543L585.845 311.509V310.62Z" fill="#F4F7FF"/>
<path d="M596.226 318.326L566.861 301.431V302.321L596.226 319.215V318.326Z" fill="#F4F7FF"/>
<path d="M596.226 316.251L587.328 311.212V312.102L596.226 317.437V316.251Z" fill="#F4F7FF"/>
<path d="M620.549 299.653L601.565 288.687V289.576L620.549 300.542V299.653Z" fill="#F4F7FF"/>
<path d="M630.634 307.36L601.565 290.465V291.355L630.634 308.249V307.36Z" fill="#F4F7FF"/>
<path d="M630.634 305.581L621.736 300.246V301.432L630.634 306.47V305.581Z" fill="#F4F7FF"/>
<path d="M620.549 303.21L601.565 292.244V293.133L620.549 304.396V303.21Z" fill="#F4F7FF"/>
<path d="M630.634 311.213L601.565 294.318V295.208L630.634 312.102V311.213Z" fill="#F4F7FF"/>
<path d="M630.634 309.138L621.736 304.099V304.988L630.634 310.323V309.138Z" fill="#F4F7FF"/>
<path d="M555.292 233.558L527.41 217.256V218.738L555.292 235.04V233.558Z" fill="#F4F7FF"/>
<path d="M570.42 244.821L527.41 219.924V221.406L570.42 246.303V244.821Z" fill="#F4F7FF"/>
<path d="M570.42 242.153L557.368 234.447V235.929L570.42 243.635V242.153Z" fill="#F4F7FF"/>
<path d="M555.292 238.893L527.41 222.591V224.073L555.292 240.375V238.893Z" fill="#F4F7FF"/>
<path d="M570.42 250.452L527.41 225.555V227.037L570.42 251.934V250.452Z" fill="#F4F7FF"/>
<path d="M570.42 247.488L557.368 240.078V241.56L570.42 248.97V247.488Z" fill="#F4F7FF"/>
<path d="M655.254 332.256L636.27 321.29V322.179L655.254 333.442V332.256Z" fill="#F4F7FF"/>
<path d="M665.339 340.259L636.27 323.365V324.254L665.339 341.148V340.259Z" fill="#F4F7FF"/>
<path d="M665.339 338.184L656.44 333.146V334.035L665.339 339.37V338.184Z" fill="#F4F7FF"/>
<path d="M655.254 336.11L636.27 325.143V326.032L655.254 336.999V336.11Z" fill="#F4F7FF"/>
<path d="M665.339 343.816L636.27 326.921V327.811L665.339 344.705V343.816Z" fill="#F4F7FF"/>
<path d="M665.339 342.037L656.44 336.702V337.888L665.339 342.926V342.037Z" fill="#F4F7FF"/>
<path d="M689.959 310.323L670.975 299.061V300.246L689.959 311.213V310.323Z" fill="#F4F7FF"/>
<path d="M700.044 318.03L670.975 301.135V302.024L700.044 318.919V318.03Z" fill="#F4F7FF"/>
<path d="M700.044 315.955L691.145 310.916V311.805L700.044 317.141V315.955Z" fill="#F4F7FF"/>
<path d="M689.959 313.88L670.975 302.914V303.803L689.959 314.77V313.88Z" fill="#F4F7FF"/>
<path d="M700.044 321.587L670.975 304.692V305.878L700.044 322.772V321.587Z" fill="#F4F7FF"/>
<path d="M700.044 319.808L691.145 314.77V315.659L700.044 320.697V319.808Z" fill="#F4F7FF"/>
<path d="M724.663 303.507L705.679 292.54V293.429L724.663 304.396V303.507Z" fill="#F4F7FF"/>
<path d="M734.748 311.213L705.679 294.318V295.504L734.748 312.398V311.213Z" fill="#F4F7FF"/>
<path d="M734.748 309.434L725.85 304.396V305.285L734.748 310.324V309.434Z" fill="#F4F7FF"/>
<path d="M724.663 307.36L705.679 296.097V297.282L724.663 308.249V307.36Z" fill="#F4F7FF"/>
<path d="M734.748 315.066L705.679 298.171V299.061L734.748 315.955V315.066Z" fill="#F4F7FF"/>
<path d="M734.748 313.287L725.85 307.952V308.842L734.748 314.177V313.287Z" fill="#F4F7FF"/>
<path d="M759.368 297.282L740.087 286.315V287.205L759.368 298.171V297.282Z" fill="#F4F7FF"/>
<path d="M769.453 304.988L740.087 288.094V289.28L769.453 306.174V304.988Z" fill="#F4F7FF"/>
<path d="M769.453 303.21L760.554 298.171V299.061L769.453 304.099V303.21Z" fill="#F4F7FF"/>
<path d="M759.368 301.135L740.087 289.873V291.058L759.368 302.025V301.135Z" fill="#F4F7FF"/>
<path d="M769.453 308.841L740.087 291.947V292.836L769.453 309.73V308.841Z" fill="#F4F7FF"/>
<path d="M769.453 307.063L760.554 301.728V302.617L769.453 307.952V307.063Z" fill="#F4F7FF"/>
<path d="M622.922 322.772L594.447 306.47V375.826L622.922 392.128V322.772Z" fill="#DE495A"/>
<path d="M601.566 302.617L594.447 306.47L622.922 322.772L629.745 318.919L601.566 302.617Z" fill="#ED5561"/>
<path d="M629.745 318.918L622.922 322.772V392.128L629.745 388.274V318.918Z" fill="#C64453"/>
<path d="M657.331 355.671L629.152 339.073V395.981L657.331 412.282V355.671Z" fill="#F9C32A"/>
<path d="M636.27 335.22L629.151 339.073L657.33 355.671L664.449 351.522L636.27 335.22Z" fill="#F9DC32"/>
<path d="M664.449 351.522L657.33 355.671V412.282L664.449 408.133V351.522Z" fill="#EF9D26"/>
<path d="M692.035 333.442L663.856 317.141V416.136L692.035 432.437V333.442Z" fill="#DE495A"/>
<path d="M670.975 312.991L663.856 317.141L692.035 333.442L699.154 329.589L670.975 312.991Z" fill="#ED5561"/>
<path d="M699.154 329.59L692.035 333.443V432.438L699.154 428.288V329.59Z" fill="#C64453"/>
<path d="M726.74 326.625L698.561 310.323V435.994L726.74 452.296V326.625Z" fill="#F9C32A"/>
<path d="M705.679 306.47L698.561 310.323L726.74 326.625L733.858 322.772L705.679 306.47Z" fill="#F9DC32"/>
<path d="M733.858 322.772L726.739 326.625V452.295L733.858 448.442V322.772Z" fill="#EF9D26"/>
<path d="M761.444 320.401L733.265 304.099V456.149L761.444 472.45V320.401Z" fill="#DE495A"/>
<path d="M740.088 300.246L733.265 304.099L761.444 320.401L768.563 316.548L740.088 300.246Z" fill="#ED5561"/>
<path d="M768.563 316.548L761.444 320.401V472.45L768.563 468.301V316.548Z" fill="#C64453"/>
<path d="M536.902 193.841C531.563 190.877 527.113 193.248 527.113 199.472V201.843L546.394 213.106V210.735C546.69 204.511 542.538 196.805 536.902 193.841Z" fill="#F4F7FF"/>
<path d="M537.198 192.359C540.758 194.434 543.427 192.655 543.427 188.802C543.427 184.949 540.758 179.91 537.198 178.132C533.639 176.057 530.969 177.836 530.969 181.689C530.969 185.542 533.639 190.284 537.198 192.359Z" fill="#F4F7FF"/>
<path d="M560.928 207.475C555.589 204.511 551.139 206.882 551.139 213.106V215.477L570.42 226.74V224.369C570.42 218.145 566.267 210.735 560.928 207.475Z" fill="#F4F7FF"/>
<path d="M560.928 205.993C564.487 208.067 567.157 206.289 567.157 202.436C567.157 198.583 564.487 193.544 560.928 191.766C557.369 189.691 554.699 191.469 554.699 195.322C554.699 199.176 557.369 204.214 560.928 205.993Z" fill="#F4F7FF"/>
<path d="M584.658 221.405C579.319 218.441 574.869 220.812 574.869 227.037V229.408L594.15 240.671V238.3C594.15 232.075 589.997 224.369 584.658 221.405Z" fill="#F4F7FF"/>
<path d="M584.658 219.923C588.217 221.998 590.887 220.22 590.887 216.367C590.887 212.513 588.217 207.475 584.658 205.696C581.099 203.622 578.429 205.4 578.429 209.253C578.429 213.106 581.099 217.848 584.658 219.923Z" fill="#F4F7FF"/>
<path d="M608.387 235.336C603.048 232.372 598.599 234.743 598.599 240.967V243.338L617.879 254.601V252.23C617.879 245.709 613.727 238.3 608.387 235.336Z" fill="#F4F7FF"/>
<path d="M608.387 233.558C611.947 235.632 614.616 233.854 614.616 230.001C614.616 226.148 611.947 221.109 608.387 219.331C604.828 217.256 602.158 219.034 602.158 222.887C602.158 226.74 604.828 231.779 608.387 233.558Z" fill="#F4F7FF"/>
<path d="M632.117 248.97C626.778 246.006 622.329 248.377 622.329 254.602V256.973L641.609 268.236V265.865C641.609 259.64 637.456 252.23 632.117 248.97Z" fill="#F4F7FF"/>
<path d="M632.117 247.488C635.677 249.563 638.346 247.785 638.346 243.931C638.346 240.078 635.677 235.04 632.117 233.261C628.558 231.187 625.888 232.965 625.888 236.818C625.888 240.671 628.558 245.413 632.117 247.488Z" fill="#F4F7FF"/>
<path d="M124.598 128.042L132.904 139.897L141.209 151.753L124.598 161.238L107.988 171.018L116.293 149.382L124.598 128.042Z" fill="#F4F7FF"/>
<path d="M192.525 104.923C190.745 105.812 189.559 107.294 188.966 109.369C188.076 111.444 187.779 113.815 187.779 116.779C187.779 119.743 188.076 121.817 188.966 122.706C189.855 123.596 191.042 123.596 192.822 122.706C194.305 121.817 195.788 120.335 196.381 118.261C197.271 116.186 197.568 113.815 197.568 110.851C197.568 104.923 195.788 102.848 192.525 104.923ZM193.711 117.075C193.415 117.964 193.118 118.557 192.822 118.853C192.228 119.15 191.932 118.853 191.932 118.261C191.635 117.668 191.635 116.186 191.635 114.407C191.635 112.629 191.635 111.147 191.932 110.258C192.228 109.369 192.525 108.776 192.822 108.48C193.415 108.183 193.711 108.48 194.008 109.072C194.305 109.665 194.305 111.147 194.305 112.925C194.008 114.704 194.008 116.186 193.711 117.075Z" fill="#F4F7FF"/>
<path d="M188.669 96.0313L178.584 130.116L182.143 128.338L192.228 93.9565L188.669 96.0313Z" fill="#F4F7FF"/>
<path d="M182.143 115C183.033 112.926 183.33 110.554 183.33 107.59C183.33 101.663 181.55 99.5879 178.287 101.663C175.024 103.441 173.541 107.59 173.541 113.518C173.541 116.482 173.838 118.557 174.728 119.446C175.617 120.632 176.804 120.335 178.584 119.446C180.067 118.557 181.253 117.075 182.143 115ZM179.473 113.815C179.177 114.704 178.88 115.297 178.584 115.593C177.99 115.889 177.694 115.593 177.694 115C177.397 114.408 177.397 112.926 177.397 111.147C177.397 109.369 177.397 107.887 177.694 106.998C177.99 106.108 178.287 105.516 178.584 105.219C179.177 104.923 179.473 105.219 179.473 105.812C179.77 106.405 179.77 107.59 179.77 109.665C179.77 111.444 179.473 112.926 179.473 113.815Z" fill="#F4F7FF"/>
<path d="M164.346 109.665C161.973 110.851 160.193 113.222 159.303 116.186C158.117 119.15 157.524 123.299 157.82 128.338C157.82 133.377 158.413 136.933 159.303 138.415C160.49 140.194 161.973 140.194 164.346 139.008C166.719 137.526 168.499 135.451 169.388 132.487C170.575 129.524 170.872 125.67 170.872 120.335C170.872 115 170.278 111.74 169.388 109.962C168.499 108.48 166.719 108.183 164.346 109.665ZM166.422 129.524C166.422 131.006 166.126 132.191 165.829 132.784C165.532 133.673 164.939 133.969 164.643 134.562C163.753 135.155 163.159 134.562 162.863 133.377C162.566 132.191 162.27 129.524 162.27 125.67C162.27 121.817 162.27 119.15 162.566 117.371C162.863 115.889 163.456 114.704 164.346 114.408C165.236 113.815 165.829 114.408 166.126 115.593C166.422 116.779 166.719 119.446 166.719 123.299C166.422 125.967 166.422 128.042 166.422 129.524Z" fill="#F4F7FF"/>
<path d="M141.802 123.299V128.042L150.405 123.003L143.582 150.567L148.328 147.9L154.854 119.15V115.593L141.802 123.299Z" fill="#F4F7FF"/>
<path d="M444.356 198.879L415.881 182.281V183.763L444.356 200.361V198.879Z" fill="#BBCEE1"/>
<path d="M459.484 210.439L415.881 185.245V186.431L459.484 211.921V210.439Z" fill="#BBCEE1"/>
<path d="M459.484 207.475L446.136 199.769V201.251L459.484 208.957V207.475Z" fill="#BBCEE1"/>
<path d="M444.356 204.215L415.881 187.913V189.395L444.356 205.697V204.215Z" fill="#BBCEE1"/>
<path d="M459.484 216.07L415.881 190.58V192.062L459.484 217.552V216.07Z" fill="#BBCEE1"/>
<path d="M459.484 213.107L446.136 205.4V206.882L459.484 214.589V213.107Z" fill="#BBCEE1"/>
<defs>
<linearGradient id="paint0_linear_1381_9117" x1="366.762" y1="156.063" x2="488.046" y2="156.063" gradientUnits="userSpaceOnUse">
<stop stop-color="#1C75BC"/>
<stop offset="0.2787" stop-color="#2077BC"/>
<stop offset="0.5411" stop-color="#2B7EBC"/>
<stop offset="0.7962" stop-color="#3E88BC"/>
<stop offset="1" stop-color="#5394BC"/>
</linearGradient>
<linearGradient id="paint1_linear_1381_9117" x1="367.544" y1="215.859" x2="381.375" y2="215.859" gradientUnits="userSpaceOnUse">
<stop stop-color="#1C75BC"/>
<stop offset="0.2787" stop-color="#2077BC"/>
<stop offset="0.5411" stop-color="#2B7EBC"/>
<stop offset="0.7962" stop-color="#3E88BC"/>
<stop offset="1" stop-color="#5394BC"/>
</linearGradient>
<linearGradient id="paint2_linear_1381_9117" x1="403.312" y1="241.72" x2="417.144" y2="241.72" gradientUnits="userSpaceOnUse">
<stop stop-color="#1C75BC"/>
<stop offset="0.2787" stop-color="#2077BC"/>
<stop offset="0.5411" stop-color="#2B7EBC"/>
<stop offset="0.7962" stop-color="#3E88BC"/>
<stop offset="1" stop-color="#5394BC"/>
</linearGradient>
<linearGradient id="paint3_linear_1381_9117" x1="439.08" y1="255.707" x2="452.912" y2="255.707" gradientUnits="userSpaceOnUse">
<stop stop-color="#1C75BC"/>
<stop offset="0.2787" stop-color="#2077BC"/>
<stop offset="0.5411" stop-color="#2B7EBC"/>
<stop offset="0.7962" stop-color="#3E88BC"/>
<stop offset="1" stop-color="#5394BC"/>
</linearGradient>
<linearGradient id="paint4_linear_1381_9117" x1="474.849" y1="276.212" x2="488.68" y2="276.212" gradientUnits="userSpaceOnUse">
<stop stop-color="#1C75BC"/>
<stop offset="0.2787" stop-color="#2077BC"/>
<stop offset="0.5411" stop-color="#2B7EBC"/>
<stop offset="0.7962" stop-color="#3E88BC"/>
<stop offset="1" stop-color="#5394BC"/>
</linearGradient>
<linearGradient id="paint5_linear_1381_9117" x1="510.617" y1="293.323" x2="524.451" y2="293.323" gradientUnits="userSpaceOnUse">
<stop stop-color="#1C75BC"/>
<stop offset="0.2787" stop-color="#2077BC"/>
<stop offset="0.5411" stop-color="#2B7EBC"/>
<stop offset="0.7962" stop-color="#3E88BC"/>
<stop offset="1" stop-color="#5394BC"/>
</linearGradient>
<linearGradient id="paint6_linear_1381_9117" x1="154.53" y1="270.021" x2="172.767" y2="270.021" gradientUnits="userSpaceOnUse">
<stop stop-color="#1C75BC"/>
<stop offset="0.2787" stop-color="#2077BC"/>
<stop offset="0.5411" stop-color="#2B7EBC"/>
<stop offset="0.7962" stop-color="#3E88BC"/>
<stop offset="1" stop-color="#5394BC"/>
</linearGradient>
<linearGradient id="paint7_linear_1381_9117" x1="109.373" y1="313.093" x2="127.611" y2="313.093" gradientUnits="userSpaceOnUse">
<stop stop-color="#1C75BC"/>
<stop offset="0.2787" stop-color="#2077BC"/>
<stop offset="0.5411" stop-color="#2B7EBC"/>
<stop offset="0.7962" stop-color="#3E88BC"/>
<stop offset="1" stop-color="#5394BC"/>
</linearGradient>
<linearGradient id="paint8_linear_1381_9117" x1="102.031" y1="130.066" x2="202.69" y2="130.066" gradientUnits="userSpaceOnUse">
<stop stop-color="#1C75BC"/>
<stop offset="0.2787" stop-color="#2077BC"/>
<stop offset="0.5411" stop-color="#2B7EBC"/>
<stop offset="0.7962" stop-color="#3E88BC"/>
<stop offset="1" stop-color="#5394BC"/>
</linearGradient>
<linearGradient id="paint9_linear_1381_9117" x1="280.257" y1="515.57" x2="345.527" y2="417.238" gradientUnits="userSpaceOnUse">
<stop stop-color="#1C75BC"/>
<stop offset="0.2787" stop-color="#2077BC"/>
<stop offset="0.5411" stop-color="#2B7EBC"/>
<stop offset="0.7962" stop-color="#3E88BC"/>
<stop offset="1" stop-color="#5394BC"/>
</linearGradient>
<linearGradient id="paint10_linear_1381_9117" x1="95.0173" y1="453.385" x2="183.442" y2="453.385" gradientUnits="userSpaceOnUse">
<stop stop-color="#1C75BC"/>
<stop offset="0.2787" stop-color="#2077BC"/>
<stop offset="0.5411" stop-color="#2B7EBC"/>
<stop offset="0.7962" stop-color="#3E88BC"/>
<stop offset="1" stop-color="#5394BC"/>
</linearGradient>
</defs>
</svg>
