<svg width="169" height="171" viewBox="0 0 169 171" fill="none" xmlns="http://www.w3.org/2000/svg">
<path d="M73.875 32H59.4375C55.6084 32 51.9362 33.5352 49.2286 36.2679C46.5211 39.0005 45 42.7068 45 46.5714V153.429C45 157.293 46.5211 160.999 49.2286 163.732C51.9362 166.465 55.6084 168 59.4375 168H107.562C111.392 168 115.064 166.465 117.771 163.732C120.479 160.999 122 157.293 122 153.429V46.5714C122 42.7068 120.479 39.0005 117.771 36.2679C115.064 33.5352 111.392 32 107.562 32H93.125M73.875 32H93.125Z" stroke="white" stroke-width="5" stroke-linecap="round" stroke-linejoin="round"/>
<path d="M59 71C59 68.2386 61.2386 66 64 66H102C104.761 66 107 68.2386 107 71V90C107 92.7615 104.761 95 102 95H64C61.2386 95 59 92.7615 59 90V71Z" fill="white"/>
<path d="M53 145C53 142.239 55.2386 140 58 140H106C108.761 140 111 142.239 111 145V150C111 152.761 108.761 155 106 155H58C55.2386 155 53 152.761 53 150V145Z" fill="white"/>
<path d="M53.3 54.222C53.3 53.706 53.42 53.25 53.66 52.854C53.888 52.446 54.206 52.128 54.614 51.9C55.01 51.66 55.466 51.54 55.982 51.54H66.134C66.65 51.54 67.106 51.66 67.502 51.9C67.91 52.128 68.228 52.446 68.456 52.854C68.696 53.25 68.816 53.706 68.816 54.222V54.258C68.816 54.774 68.696 55.236 68.456 55.644C68.228 56.04 67.91 56.358 67.502 56.598C67.106 56.826 66.65 56.94 66.134 56.94H55.982C55.466 56.94 55.01 56.826 54.614 56.598C54.206 56.358 53.888 56.04 53.66 55.644C53.42 55.236 53.3 54.774 53.3 54.258V54.222Z" fill="white"/>
<path d="M63.4074 54.222C63.4074 53.706 63.5274 53.25 63.7674 52.854C63.9954 52.446 64.3134 52.128 64.7214 51.9C65.1174 51.66 65.5734 51.54 66.0894 51.54H76.2414C76.7574 51.54 77.2134 51.66 77.6094 51.9C78.0174 52.128 78.3354 52.446 78.5634 52.854C78.8034 53.25 78.9234 53.706 78.9234 54.222V54.258C78.9234 54.774 78.8034 55.236 78.5634 55.644C78.3354 56.04 78.0174 56.358 77.6094 56.598C77.2134 56.826 76.7574 56.94 76.2414 56.94H66.0894C65.5734 56.94 65.1174 56.826 64.7214 56.598C64.3134 56.358 63.9954 56.04 63.7674 55.644C63.5274 55.236 63.4074 54.774 63.4074 54.258V54.222Z" fill="white"/>
<path d="M53.3 113.222C53.3 112.706 53.42 112.25 53.66 111.854C53.888 111.446 54.206 111.128 54.614 110.9C55.01 110.66 55.466 110.54 55.982 110.54H66.134C66.65 110.54 67.106 110.66 67.502 110.9C67.91 111.128 68.228 111.446 68.456 111.854C68.696 112.25 68.816 112.706 68.816 113.222V113.258C68.816 113.774 68.696 114.236 68.456 114.644C68.228 115.04 67.91 115.358 67.502 115.598C67.106 115.826 66.65 115.94 66.134 115.94H55.982C55.466 115.94 55.01 115.826 54.614 115.598C54.206 115.358 53.888 115.04 53.66 114.644C53.42 114.236 53.3 113.774 53.3 113.258V113.222Z" fill="white"/>
<path d="M63.4074 113.222C63.4074 112.706 63.5274 112.25 63.7674 111.854C63.9954 111.446 64.3134 111.128 64.7214 110.9C65.1174 110.66 65.5734 110.54 66.0894 110.54H76.2414C76.7574 110.54 77.2134 110.66 77.6094 110.9C78.0174 111.128 78.3354 111.446 78.5634 111.854C78.8034 112.25 78.9234 112.706 78.9234 113.222V113.258C78.9234 113.774 78.8034 114.236 78.5634 114.644C78.3354 115.04 78.0174 115.358 77.6094 115.598C77.2134 115.826 76.7574 115.94 76.2414 115.94H66.0894C65.5734 115.94 65.1174 115.826 64.7214 115.598C64.3134 115.358 63.9954 115.04 63.7674 114.644C63.5274 114.236 63.4074 113.774 63.4074 113.258V113.222Z" fill="white"/>
<path d="M53.3 124.222C53.3 123.706 53.42 123.25 53.66 122.854C53.888 122.446 54.206 122.128 54.614 121.9C55.01 121.66 55.466 121.54 55.982 121.54H66.134C66.65 121.54 67.106 121.66 67.502 121.9C67.91 122.128 68.228 122.446 68.456 122.854C68.696 123.25 68.816 123.706 68.816 124.222V124.258C68.816 124.774 68.696 125.236 68.456 125.644C68.228 126.04 67.91 126.358 67.502 126.598C67.106 126.826 66.65 126.94 66.134 126.94H55.982C55.466 126.94 55.01 126.826 54.614 126.598C54.206 126.358 53.888 126.04 53.66 125.644C53.42 125.236 53.3 124.774 53.3 124.258V124.222Z" fill="white"/>
<path d="M63.4074 124.222C63.4074 123.706 63.5274 123.25 63.7674 122.854C63.9954 122.446 64.3134 122.128 64.7214 121.9C65.1174 121.66 65.5734 121.54 66.0894 121.54H76.2414C76.7574 121.54 77.2134 121.66 77.6094 121.9C78.0174 122.128 78.3354 122.446 78.5634 122.854C78.8034 123.25 78.9234 123.706 78.9234 124.222V124.258C78.9234 124.774 78.8034 125.236 78.5634 125.644C78.3354 126.04 78.0174 126.358 77.6094 126.598C77.2134 126.826 76.7574 126.94 76.2414 126.94H66.0894C65.5734 126.94 65.1174 126.826 64.7214 126.598C64.3134 126.358 63.9954 126.04 63.7674 125.644C63.5274 125.236 63.4074 124.774 63.4074 124.258V124.222Z" fill="white"/>
<path d="M73.5148 124.222C73.5148 123.706 73.6348 123.25 73.8748 122.854C74.1028 122.446 74.4208 122.128 74.8288 121.9C75.2248 121.66 75.6808 121.54 76.1968 121.54H86.3488C86.8648 121.54 87.3208 121.66 87.7168 121.9C88.1248 122.128 88.4428 122.446 88.6708 122.854C88.9108 123.25 89.0308 123.706 89.0308 124.222V124.258C89.0308 124.774 88.9108 125.236 88.6708 125.644C88.4428 126.04 88.1248 126.358 87.7168 126.598C87.3208 126.826 86.8648 126.94 86.3488 126.94H76.1968C75.6808 126.94 75.2248 126.826 74.8288 126.598C74.4208 126.358 74.1028 126.04 73.8748 125.644C73.6348 125.236 73.5148 124.774 73.5148 124.258V124.222Z" fill="white"/>
<path d="M83.6223 124.222C83.6223 123.706 83.7423 123.25 83.9823 122.854C84.2103 122.446 84.5283 122.128 84.9363 121.9C85.3323 121.66 85.7883 121.54 86.3043 121.54H96.4563C96.9723 121.54 97.4283 121.66 97.8243 121.9C98.2323 122.128 98.5503 122.446 98.7783 122.854C99.0183 123.25 99.1383 123.706 99.1383 124.222V124.258C99.1383 124.774 99.0183 125.236 98.7783 125.644C98.5503 126.04 98.2323 126.358 97.8243 126.598C97.4283 126.826 96.9723 126.94 96.4563 126.94H86.3043C85.7883 126.94 85.3323 126.826 84.9363 126.598C84.5283 126.358 84.2103 126.04 83.9823 125.644C83.7423 125.236 83.6223 124.774 83.6223 124.258V124.222Z" fill="white"/>
<path d="M93.7297 124.222C93.7297 123.706 93.8497 123.25 94.0897 122.854C94.3177 122.446 94.6357 122.128 95.0437 121.9C95.4397 121.66 95.8957 121.54 96.4117 121.54H106.564C107.08 121.54 107.536 121.66 107.932 121.9C108.34 122.128 108.658 122.446 108.886 122.854C109.126 123.25 109.246 123.706 109.246 124.222V124.258C109.246 124.774 109.126 125.236 108.886 125.644C108.658 126.04 108.34 126.358 107.932 126.598C107.536 126.826 107.08 126.94 106.564 126.94H96.4117C95.8957 126.94 95.4397 126.826 95.0437 126.598C94.6357 126.358 94.3177 126.04 94.0897 125.644C93.8497 125.236 93.7297 124.774 93.7297 124.258V124.222Z" fill="white"/>
<path d="M102.3 54.222C102.3 53.706 102.42 53.25 102.66 52.854C102.888 52.446 103.206 52.128 103.614 51.9C104.01 51.66 104.466 51.54 104.982 51.54H110.166C110.682 51.54 111.138 51.66 111.534 51.9C111.942 52.128 112.26 52.446 112.488 52.854C112.728 53.25 112.848 53.706 112.848 54.222V54.258C112.848 54.774 112.728 55.236 112.488 55.644C112.26 56.04 111.942 56.358 111.534 56.598C111.138 56.826 110.682 56.94 110.166 56.94H104.982C104.466 56.94 104.01 56.826 103.614 56.598C103.206 56.358 102.888 56.04 102.66 55.644C102.42 55.236 102.3 54.774 102.3 54.258V54.222Z" fill="white"/>
<path d="M112.378 50.7979L111.766 50.2873L110.97 50.3385C107.632 50.5532 104.266 51.3063 101.268 53.2715C98.2472 55.2521 95.7791 58.3454 94.0424 62.9216L94.0417 62.9234C94.0015 63.0299 93.9467 63.0867 93.897 63.1205C93.8545 63.1493 93.7902 63.1783 93.6966 63.1876C93.6664 63.179 93.6143 63.1629 93.5377 63.1337C93.3373 63.0574 93.0665 62.9301 92.726 62.7439C92.0459 62.3721 91.2313 61.8451 90.3773 61.254C89.5303 60.6677 88.6835 60.0456 87.9405 59.4952C87.8267 59.411 87.7141 59.3274 87.6034 59.2453C87.0162 58.8097 86.4844 58.4151 86.1273 58.1714L82.9995 56.0372L83 59.8237C83.0008 66.5254 84.5392 73.0311 88.1089 77.9168C91.7407 82.8875 97.3509 86 105.001 86C111.302 86 116.823 84.1792 120.792 80.567C124.785 76.9325 127.001 71.6696 127.001 65.2203C127.001 64.8439 126.962 64.5028 126.926 64.2381C126.91 64.1197 126.897 64.0262 126.885 63.9445C126.866 63.8123 126.852 63.7111 126.838 63.5851L126.754 62.7773L126.13 62.2573L112.378 50.7979ZM114.547 51.0514L114.736 51.4634L115.085 51.7537L125.056 60.063L125.408 60.3561L125.852 60.467C127.082 60.7741 128.412 61 129.835 61C132.533 61 135.045 60.4997 137.557 59.131C140.033 57.7822 142.388 55.6552 144.895 52.5936C149.868 46.5183 155.78 36.3183 164.591 19.8727L164.599 19.8578L164.607 19.8428C165.783 17.5551 167 14.7709 167 11.7422C167 5.88029 161.786 2 156.545 2C153.585 2 150.908 3.30261 148.928 5.08062C142.291 11.0098 136.866 15.7555 132.444 19.6238C126.291 25.0065 122.08 28.6903 119.247 31.5001C116.791 33.9356 115.178 35.8934 114.216 37.8993C113.223 39.9703 113.001 41.9257 113.001 44.1703C113.001 46.6315 113.585 48.9555 114.547 51.0514Z" fill="#474747" stroke="#19BCBB" stroke-width="4"/>
<mask id="path-4-outside-1_173_238" maskUnits="userSpaceOnUse" x="0" y="80" width="81" height="81" fill="black">
<rect fill="white" y="80" width="81" height="81"/>
<path d="M4 89C4 86.2386 6.23858 84 9 84H20.9C23.6614 84 25.9 86.2386 25.9 89V91.3H55.1V89C55.1 86.2386 57.3386 84 60.1 84H72C74.7614 84 77 86.2386 77 89V100.9C77 103.661 74.7614 105.9 72 105.9H69.7V135.1H72C74.7614 135.1 77 137.339 77 140.1V152C77 154.761 74.7614 157 72 157H60.1C57.3386 157 55.1 154.761 55.1 152V149.7H25.9V157H8.99999C6.23857 157 4 154.761 4 152V140.1C4 137.339 6.23858 135.1 9 135.1H11.3V105.9H9C6.23858 105.9 4 103.661 4 100.9V89ZM55.1 105.9V98.6H25.9V100.9C25.9 103.661 23.6614 105.9 20.9 105.9H18.6V135.1H20.9C23.6614 135.1 25.9 137.339 25.9 140.1V142.4H55.1V140.1C55.1 137.339 57.3386 135.1 60.1 135.1H62.4V105.9M11.3 91.3V98.6H18.6V91.3M62.4 91.3V98.6H69.7V91.3M11.3 142.4V149.7H18.6V142.4M62.4 142.4V149.7H69.7V142.4H62.4Z"/>
</mask>
<path d="M4 89C4 86.2386 6.23858 84 9 84H20.9C23.6614 84 25.9 86.2386 25.9 89V91.3H55.1V89C55.1 86.2386 57.3386 84 60.1 84H72C74.7614 84 77 86.2386 77 89V100.9C77 103.661 74.7614 105.9 72 105.9H69.7V135.1H72C74.7614 135.1 77 137.339 77 140.1V152C77 154.761 74.7614 157 72 157H60.1C57.3386 157 55.1 154.761 55.1 152V149.7H25.9V157H8.99999C6.23857 157 4 154.761 4 152V140.1C4 137.339 6.23858 135.1 9 135.1H11.3V105.9H9C6.23858 105.9 4 103.661 4 100.9V89ZM55.1 105.9V98.6H25.9V100.9C25.9 103.661 23.6614 105.9 20.9 105.9H18.6V135.1H20.9C23.6614 135.1 25.9 137.339 25.9 140.1V142.4H55.1V140.1C55.1 137.339 57.3386 135.1 60.1 135.1H62.4V105.9M11.3 91.3V98.6H18.6V91.3M62.4 91.3V98.6H69.7V91.3M11.3 142.4V149.7H18.6V142.4M62.4 142.4V149.7H69.7V142.4H62.4Z" fill="#474747"/>
<path d="M25.9 91.3H21.9V95.3H25.9V91.3ZM55.1 91.3V95.3H59.1V91.3H55.1ZM69.7 105.9V101.9H65.7V105.9H69.7ZM69.7 135.1H65.7V139.1H69.7V135.1ZM55.1 149.7H59.1V145.7H55.1V149.7ZM25.9 149.7V145.7H21.9V149.7H25.9ZM25.9 157V161H29.9V157H25.9ZM11.3 135.1V139.1H15.3V135.1H11.3ZM11.3 105.9H15.3V101.9H11.3V105.9ZM55.1 98.6H59.1V94.6H55.1V98.6ZM25.9 98.6V94.6H21.9V98.6H25.9ZM18.6 105.9V101.9H14.6V105.9H18.6ZM18.6 135.1H14.6V139.1H18.6V135.1ZM25.9 142.4H21.9V146.4H25.9V142.4ZM55.1 142.4V146.4H59.1V142.4H55.1ZM62.4 135.1V139.1H66.4V135.1H62.4ZM11.3 98.6H7.3V102.6H11.3V98.6ZM18.6 98.6V102.6H22.6V98.6H18.6ZM62.4 98.6H58.4V102.6H62.4V98.6ZM69.7 98.6V102.6H73.7V98.6H69.7ZM11.3 149.7H7.3V153.7H11.3V149.7ZM18.6 149.7V153.7H22.6V149.7H18.6ZM62.4 142.4V138.4H58.4V142.4H62.4ZM62.4 149.7H58.4V153.7H62.4V149.7ZM69.7 149.7V153.7H73.7V149.7H69.7ZM69.7 142.4H73.7V138.4H69.7V142.4ZM9 88H20.9V80H9V88ZM21.9 89V91.3H29.9V89H21.9ZM25.9 95.3H55.1V87.3H25.9V95.3ZM59.1 91.3V89H51.1V91.3H59.1ZM60.1 88H72V80H60.1V88ZM73 89V100.9H81V89H73ZM72 101.9H69.7V109.9H72V101.9ZM65.7 105.9V135.1H73.7V105.9H65.7ZM69.7 139.1H72V131.1H69.7V139.1ZM73 140.1V152H81V140.1H73ZM72 153H60.1V161H72V153ZM59.1 152V149.7H51.1V152H59.1ZM55.1 145.7H25.9V153.7H55.1V145.7ZM21.9 149.7V157H29.9V149.7H21.9ZM25.9 153H8.99999V161H25.9V153ZM8 152V140.1H0V152H8ZM9 139.1H11.3V131.1H9V139.1ZM15.3 135.1V105.9H7.3V135.1H15.3ZM11.3 101.9H9V109.9H11.3V101.9ZM8 100.9V89H0V100.9H8ZM59.1 105.9V98.6H51.1V105.9H59.1ZM55.1 94.6H25.9V102.6H55.1V94.6ZM21.9 98.6V100.9H29.9V98.6H21.9ZM20.9 101.9H18.6V109.9H20.9V101.9ZM14.6 105.9V135.1H22.6V105.9H14.6ZM18.6 139.1H20.9V131.1H18.6V139.1ZM21.9 140.1V142.4H29.9V140.1H21.9ZM25.9 146.4H55.1V138.4H25.9V146.4ZM59.1 142.4V140.1H51.1V142.4H59.1ZM60.1 139.1H62.4V131.1H60.1V139.1ZM66.4 135.1V105.9H58.4V135.1H66.4ZM7.3 91.3V98.6H15.3V91.3H7.3ZM11.3 102.6H18.6V94.6H11.3V102.6ZM22.6 98.6V91.3H14.6V98.6H22.6ZM58.4 91.3V98.6H66.4V91.3H58.4ZM62.4 102.6H69.7V94.6H62.4V102.6ZM73.7 98.6V91.3H65.7V98.6H73.7ZM7.3 142.4V149.7H15.3V142.4H7.3ZM11.3 153.7H18.6V145.7H11.3V153.7ZM22.6 149.7V142.4H14.6V149.7H22.6ZM58.4 142.4V149.7H66.4V142.4H58.4ZM62.4 153.7H69.7V145.7H62.4V153.7ZM73.7 149.7V142.4H65.7V149.7H73.7ZM69.7 138.4H62.4V146.4H69.7V138.4ZM20.9 139.1C21.4523 139.1 21.9 139.548 21.9 140.1H29.9C29.9 135.129 25.8706 131.1 20.9 131.1V139.1ZM9 101.9C8.44772 101.9 8 101.452 8 100.9H0C0 105.871 4.02943 109.9 9 109.9V101.9ZM73 152C73 152.552 72.5523 153 72 153V161C76.9706 161 81 156.971 81 152H73ZM72 139.1C72.5523 139.1 73 139.548 73 140.1H81C81 135.129 76.9706 131.1 72 131.1V139.1ZM8.99999 153C8.44772 153 8 152.552 8 152H0C0 156.971 4.02942 161 8.99999 161V153ZM59.1 89C59.1 88.4477 59.5477 88 60.1 88V80C55.1294 80 51.1 84.0294 51.1 89H59.1ZM59.1 140.1C59.1 139.548 59.5477 139.1 60.1 139.1V131.1C55.1294 131.1 51.1 135.129 51.1 140.1H59.1ZM73 100.9C73 101.452 72.5523 101.9 72 101.9V109.9C76.9706 109.9 81 105.871 81 100.9H73ZM20.9 88C21.4523 88 21.9 88.4477 21.9 89H29.9C29.9 84.0294 25.8706 80 20.9 80V88ZM8 140.1C8 139.548 8.44771 139.1 9 139.1V131.1C4.02944 131.1 0 135.129 0 140.1H8ZM72 88C72.5523 88 73 88.4477 73 89H81C81 84.0294 76.9706 80 72 80V88ZM60.1 153C59.5477 153 59.1 152.552 59.1 152H51.1C51.1 156.971 55.1294 161 60.1 161V153ZM21.9 100.9C21.9 101.452 21.4523 101.9 20.9 101.9V109.9C25.8706 109.9 29.9 105.871 29.9 100.9H21.9ZM9 80C4.02944 80 0 84.0294 0 89H8C8 88.4477 8.44771 88 9 88V80Z" fill="#19BCBB" mask="url(#path-4-outside-1_173_238)"/>
</svg>
